STARTFONT 2.1
FONT -FontForge-IBM Plex Mono-Bold-R-Normal--31-300-75-75-P-179-ISO10646-1
SIZE 30 75 75
FONTBOUNDINGBOX 30 45 -10 -9
COMMENT "Generated by fontforge, http://fontforge.sourceforge.net"
COMMENT "Copyright 2017 IBM Corp. All rights reserved."
STARTPROPERTIES 41
FOUNDRY "FontForge"
FAMILY_NAME "IBM Plex Mono"
WEIGHT_NAME "Bold"
SLANT "R"
SETWIDTH_NAME "Normal"
ADD_STYLE_NAME ""
PIXEL_SIZE 31
POINT_SIZE 300
RESOLUTION_X 75
RESOLUTION_Y 75
SPACING "P"
AVERAGE_WIDTH 179
CHARSET_REGISTRY "ISO10646"
CHARSET_ENCODING "1"
FONTNAME_REGISTRY ""
CHARSET_COLLECTIONS "ISO8859-2 ISO8859-5 ISO8859-9 ISO8859-4 ISO10646-1"
FONT_NAME "IBMPlexMono-Bold"
FACE_NAME "IBM Plex Mono Bold"
COPYRIGHT "Copyright 2017 IBM Corp. All rights reserved."
FONT_VERSION "2.1"
FONT_ASCENT 24
FONT_DESCENT 7
UNDERLINE_POSITION -5
UNDERLINE_THICKNESS 4
X_HEIGHT 15
CAP_HEIGHT 21
DEFAULT_CHAR 1
RAW_ASCENT 780
RAW_DESCENT 220
NORM_SPACE 19
RELATIVE_WEIGHT 70
RELATIVE_SETWIDTH 50
SUPERSCRIPT_X 0
SUPERSCRIPT_Y 10
SUPERSCRIPT_SIZE 18
SUBSCRIPT_X 0
SUBSCRIPT_Y 2
SUBSCRIPT_SIZE 18
FIGURE_WIDTH 19
AVG_LOWERCASE_WIDTH 190
AVG_UPPERCASE_WIDTH 190
ENDPROPERTIES
CHARS 847
STARTCHAR .null
ENCODING 0
SWIDTH 0 0
DWIDTH 0 0
BBX 1 1 0 0
BITMAP
00
ENDCHAR
STARTCHAR uni000D
ENCODING 13
SWIDTH 600 0
DWIDTH 19 0
BBX 1 1 0 0
BITMAP
00
ENDCHAR
STARTCHAR space
ENCODING 32
SWIDTH 600 0
DWIDTH 19 0
BBX 1 1 0 0
BITMAP
00
ENDCHAR
STARTCHAR exclam
ENCODING 33
SWIDTH 600 0
DWIDTH 19 0
BBX 7 22 6 0
BITMAP
7C
7C
7C
7C
7C
7C
7C
7C
78
38
38
38
38
10
00
00
7C
7C
FE
FE
7C
7C
ENDCHAR
STARTCHAR quotedbl
ENCODING 34
SWIDTH 600 0
DWIDTH 19 0
BBX 11 10 4 13
BITMAP
F1E0
F1E0
F1E0
F1E0
F1E0
F1E0
F1E0
F1E0
F1E0
F1E0
ENDCHAR
STARTCHAR numbersign
ENCODING 35
SWIDTH 600 0
DWIDTH 19 0
BBX 19 22 0 0
BITMAP
03CF00
03CF00
03CF00
03CF00
038E00
038E00
3F9FE0
3F9FE0
3F9FE0
3F9FE0
071C00
071C00
FF3F80
FF3F80
FF3F80
FF3F80
0E3800
0E3800
1E7800
1E7800
1E7800
1C7000
ENDCHAR
STARTCHAR dollar
ENCODING 36
SWIDTH 600 0
DWIDTH 19 0
BBX 17 28 1 -3
BITMAP
01E000
01E000
01E000
07F800
1FFE00
3FFF00
7FFF00
7DDE00
79C400
79C000
7DC000
7FC000
3FF800
3FFE00
0FFF00
03FF00
01DF80
01CF80
01CF80
31CF80
7DDF00
FFFF00
7FFE00
3FFC00
0FF000
01E000
01E000
01E000
ENDCHAR
STARTCHAR percent
ENCODING 37
SWIDTH 600 0
DWIDTH 19 0
BBX 19 22 0 0
BITMAP
1F01E0
3F83C0
7F8380
73C780
71C700
F1CF00
F1CE00
71DE00
73DC00
7F8000
3F9F00
1F3F80
003FC0
0779C0
0F71C0
0E71E0
1E71E0
1C71C0
3C79C0
383FC0
783F80
F01F00
ENDCHAR
STARTCHAR ampersand
ENCODING 38
SWIDTH 600 0
DWIDTH 19 0
BBX 18 22 1 0
BITMAP
07C000
1FE000
3FF000
3FF800
7C7800
782000
780000
3C0000
3E0000
1F0F80
3F8F80
7FCF80
FFDF80
F3FE00
F1FE00
F0FC00
F0FC00
F87C00
FFFE00
7FDF00
3F8F80
1F0FC0
ENDCHAR
STARTCHAR quotesingle
ENCODING 39
SWIDTH 600 0
DWIDTH 19 0
BBX 5 10 7 13
BITMAP
F8
F8
F8
F8
F8
F8
F8
F8
F8
F8
ENDCHAR
STARTCHAR parenleft
ENCODING 40
SWIDTH 600 0
DWIDTH 19 0
BBX 11 28 6 -4
BITMAP
07E0
0F80
0F00
1E00
3C00
3800
7800
7000
F000
F000
F000
E000
E000
E000
E000
E000
E000
F000
F000
F000
7000
7800
3800
3C00
1E00
1F00
0F80
07E0
ENDCHAR
STARTCHAR parenright
ENCODING 41
SWIDTH 600 0
DWIDTH 19 0
BBX 11 28 2 -4
BITMAP
FC00
3E00
1E00
0F00
0780
0380
03C0
01C0
01E0
01E0
01E0
00E0
00E0
00E0
00E0
00E0
00E0
01E0
01E0
01E0
01C0
03C0
0380
0780
0F00
1F00
3E00
FC00
ENDCHAR
STARTCHAR asterisk
ENCODING 42
SWIDTH 600 0
DWIDTH 19 0
BBX 17 16 1 2
BITMAP
01C000
01C000
01C000
01C000
71C700
7FFF00
FFFF80
7FFF00
0FF800
07F000
0FF800
1F7C00
1F7C00
3E3E00
1C1C00
081000
ENDCHAR
STARTCHAR plus
ENCODING 43
SWIDTH 600 0
DWIDTH 19 0
BBX 15 16 2 1
BITMAP
0780
0780
0780
0780
0780
0780
FFFE
FFFE
FFFE
FFFE
0780
0780
0780
0780
0780
0780
ENDCHAR
STARTCHAR comma
ENCODING 44
SWIDTH 600 0
DWIDTH 19 0
BBX 8 10 5 -5
BITMAP
3F
3E
3E
3E
7C
7C
78
78
78
F0
ENDCHAR
STARTCHAR hyphen
ENCODING 45
SWIDTH 600 0
DWIDTH 19 0
BBX 10 4 4 7
BITMAP
FFC0
FFC0
FFC0
FFC0
ENDCHAR
STARTCHAR period
ENCODING 46
SWIDTH 600 0
DWIDTH 19 0
BBX 7 6 6 0
BITMAP
7C
FE
FE
FE
FE
7C
ENDCHAR
STARTCHAR slash
ENCODING 47
SWIDTH 600 0
DWIDTH 19 0
BBX 14 28 2 -4
BITMAP
003C
003C
007C
0078
0078
00F8
00F0
00F0
01E0
01E0
01E0
03C0
03C0
03C0
0780
0780
0F80
0F00
0F00
1F00
1E00
1E00
3C00
3C00
3C00
7800
7800
F800
ENDCHAR
STARTCHAR zero
ENCODING 48
SWIDTH 600 0
DWIDTH 19 0
BBX 17 22 1 0
BITMAP
07F000
1FFC00
3FFE00
3FFE00
7C3F00
7C1F00
780F00
F80F80
F80F80
F9CF80
F9CF80
F9CF80
F9CF80
F80F80
F80F80
780F00
7C1F00
7C3F00
3FFE00
3FFE00
1FFC00
07F000
ENDCHAR
STARTCHAR one
ENCODING 49
SWIDTH 600 0
DWIDTH 19 0
BBX 17 22 1 0
BITMAP
07F800
0FF800
0FF800
1FF800
1EF800
3EF800
7CF800
78F800
F0F800
30F800
00F800
00F800
00F800
00F800
00F800
00F800
00F800
00F800
3FFF80
3FFF80
3FFF80
3FFF80
ENDCHAR
STARTCHAR two
ENCODING 50
SWIDTH 600 0
DWIDTH 19 0
BBX 16 22 1 0
BITMAP
07F0
1FFC
3FFE
7FFE
7C3F
F81F
181F
001F
001F
003E
007E
00FC
01F8
03F0
07E0
1F80
3F00
7E00
7FFF
7FFF
7FFF
7FFF
ENDCHAR
STARTCHAR three
ENCODING 51
SWIDTH 600 0
DWIDTH 19 0
BBX 16 22 1 0
BITMAP
07F0
1FFC
3FFE
7FFE
7C3F
301F
101F
001F
003E
03FC
03F8
03FC
03FE
003F
001F
101F
701F
FC3F
7FFF
7FFE
1FFC
07F0
ENDCHAR
STARTCHAR four
ENCODING 52
SWIDTH 600 0
DWIDTH 19 0
BBX 17 22 1 0
BITMAP
00FC00
00FC00
01FC00
03FC00
03FC00
07BC00
073C00
0F3C00
1E3C00
1E3C00
3C3C00
783C00
783C00
F03C00
FFFF80
FFFF80
FFFF80
FFFF80
003C00
003C00
003C00
003C00
ENDCHAR
STARTCHAR five
ENCODING 53
SWIDTH 600 0
DWIDTH 19 0
BBX 17 22 1 0
BITMAP
3FFE00
3FFE00
3FFE00
3FFE00
380000
380000
380000
38F800
7BFC00
7BFE00
7FFF00
7C3F00
081F80
000F80
000F80
100F80
381F00
7C3F00
FFFF00
3FFE00
1FFC00
07F000
ENDCHAR
STARTCHAR six
ENCODING 54
SWIDTH 600 0
DWIDTH 19 0
BBX 17 22 1 0
BITMAP
00FE00
03F800
07E000
0FC000
0F8000
1F0000
3E0000
3EF800
7DFE00
7FFE00
7BFF00
FE1F00
FC0F80
F80F80
F80F80
780F80
7C0F80
7E1F00
3FFF00
3FFE00
1FFC00
07F000
ENDCHAR
STARTCHAR seven
ENCODING 55
SWIDTH 600 0
DWIDTH 19 0
BBX 15 22 2 0
BITMAP
FFFE
FFFE
FFFE
FFFE
F01E
F03E
F03C
F07C
007C
00F8
00F8
00F0
01F0
01F0
03E0
03E0
03C0
07C0
07C0
0F80
0F80
1F00
ENDCHAR
STARTCHAR eight
ENCODING 56
SWIDTH 600 0
DWIDTH 19 0
BBX 17 22 1 0
BITMAP
07F000
1FFC00
3FFE00
7FFF00
7C1F00
7C1F00
780F00
781F00
3C1E00
1FFC00
0FF800
1FFC00
3FFE00
7C1F00
F80F80
F80F80
F80F80
7C1F00
7FFF00
3FFE00
1FFC00
07F000
ENDCHAR
STARTCHAR nine
ENCODING 57
SWIDTH 600 0
DWIDTH 19 0
BBX 17 22 1 0
BITMAP
07E000
1FFC00
3FFE00
7FFE00
7C3F00
F81F00
F80F00
F80F80
F80F80
F81F80
7C3F00
7FEF00
3FFF00
3FDF00
0FBE00
003E00
007C00
00F800
01F800
03F000
0FE000
3F8000
ENDCHAR
STARTCHAR colon
ENCODING 58
SWIDTH 600 0
DWIDTH 19 0
BBX 7 17 6 0
BITMAP
7C
FE
FE
FE
FE
7C
00
00
00
00
00
7C
FE
FE
FE
FE
7C
ENDCHAR
STARTCHAR semicolon
ENCODING 59
SWIDTH 600 0
DWIDTH 19 0
BBX 8 22 5 -5
BITMAP
3E
7F
7F
7F
7F
3E
00
00
00
00
00
00
3F
3E
3E
3E
7C
7C
78
78
78
F0
ENDCHAR
STARTCHAR less
ENCODING 60
SWIDTH 600 0
DWIDTH 19 0
BBX 13 19 3 0
BITMAP
0008
0038
0078
01F8
07F8
1FE0
7F80
FE00
FC00
F000
FC00
FE00
7F80
1FE0
07F8
01F8
0078
0038
0008
ENDCHAR
STARTCHAR equal
ENCODING 61
SWIDTH 600 0
DWIDTH 19 0
BBX 15 11 2 4
BITMAP
FFFE
FFFE
FFFE
FFFE
0000
0000
0000
FFFE
FFFE
FFFE
FFFE
ENDCHAR
STARTCHAR greater
ENCODING 62
SWIDTH 600 0
DWIDTH 19 0
BBX 13 19 3 0
BITMAP
8000
E000
F000
FC00
FF00
3FC0
0FF0
03F8
01F8
0078
01F8
03F8
0FF0
3FC0
FF00
FC00
F000
E000
8000
ENDCHAR
STARTCHAR question
ENCODING 63
SWIDTH 600 0
DWIDTH 19 0
BBX 15 22 2 0
BITMAP
0FC0
3FF0
7FF8
7FFC
F87C
703E
103E
003C
007C
03F8
07F0
07C0
0780
0780
0000
0000
0780
0FC0
0FC0
0FC0
0FC0
0780
ENDCHAR
STARTCHAR at
ENCODING 64
SWIDTH 600 0
DWIDTH 19 0
BBX 16 26 1 -4
BITMAP
07F0
0FFC
1FFE
3FFE
3C1F
7807
78F7
71F7
71FF
F3C7
F3C7
F3C7
F3C7
F3C7
F3C7
F3C7
73FF
71FF
70F7
7800
7C00
3E00
3FF8
1FF8
0FF8
03F8
ENDCHAR
STARTCHAR A
ENCODING 65
SWIDTH 600 0
DWIDTH 19 0
BBX 19 22 0 0
BITMAP
03F800
03F800
03F800
07FC00
07FC00
07BC00
0FBE00
0FBE00
0F3E00
0F1E00
1F1F00
1F1F00
1E1F00
1FFF00
3FFF80
3FFF80
3FFF80
3C0F80
7C07C0
7C07C0
7807C0
F803E0
ENDCHAR
STARTCHAR B
ENCODING 66
SWIDTH 600 0
DWIDTH 19 0
BBX 14 22 3 0
BITMAP
FFC0
FFF0
FFF8
FFF8
F0FC
F07C
F07C
F07C
F0F8
FFF0
FFC0
FFF0
FFF8
F07C
F03C
F03C
F03C
F07C
FFFC
FFF8
FFF8
FFE0
ENDCHAR
STARTCHAR C
ENCODING 67
SWIDTH 600 0
DWIDTH 19 0
BBX 17 22 1 0
BITMAP
03F000
0FFC00
1FFE00
3FFE00
3E1F00
7C0F00
7C0F80
7C0800
780000
F80000
F80000
F80000
780000
7C0000
7C1000
7C0F80
7C0F00
3E1F00
3FFF00
1FFE00
0FFC00
03F000
ENDCHAR
STARTCHAR D
ENCODING 68
SWIDTH 600 0
DWIDTH 19 0
BBX 16 22 2 0
BITMAP
FFC0
FFF0
FFF8
FFFC
F87E
F83E
F83E
F81E
F81F
F81F
F81F
F81F
F81F
F81F
F81E
F83E
F83E
F87E
FFFC
FFF8
FFF0
FFC0
ENDCHAR
STARTCHAR E
ENCODING 69
SWIDTH 600 0
DWIDTH 19 0
BBX 13 22 3 0
BITMAP
FFF8
FFF8
FFF8
FFF8
F000
F000
F000
F000
F000
FFF8
FFF8
FFF8
FFF8
F000
F000
F000
F000
F000
FFF8
FFF8
FFF8
FFF8
ENDCHAR
STARTCHAR F
ENCODING 70
SWIDTH 600 0
DWIDTH 19 0
BBX 14 22 3 0
BITMAP
FFFC
FFFC
FFFC
FFFC
F000
F000
F000
F000
F000
FFF8
FFF8
FFF8
FFF8
F000
F000
F000
F000
F000
F000
F000
F000
F000
ENDCHAR
STARTCHAR G
ENCODING 71
SWIDTH 600 0
DWIDTH 19 0
BBX 16 22 1 0
BITMAP
07F0
0FF8
1FFC
3FFE
7E3E
7C1F
7C1F
7810
F800
F800
F8FF
F8FF
F8FF
F8FF
F80F
7C0F
7C0F
7E1F
3FFF
3FEF
1FCF
0F8F
ENDCHAR
STARTCHAR H
ENCODING 72
SWIDTH 600 0
DWIDTH 19 0
BBX 15 22 2 0
BITMAP
F83E
F83E
F83E
F83E
F83E
F83E
F83E
F83E
F83E
FFFE
FFFE
FFFE
FFFE
F83E
F83E
F83E
F83E
F83E
F83E
F83E
F83E
F83E
ENDCHAR
STARTCHAR I
ENCODING 73
SWIDTH 600 0
DWIDTH 19 0
BBX 14 22 2 0
BITMAP
FFFC
FFFC
FFFC
FFFC
07C0
07C0
07C0
07C0
07C0
07C0
07C0
07C0
07C0
07C0
07C0
07C0
07C0
07C0
FFFC
FFFC
FFFC
FFFC
ENDCHAR
STARTCHAR J
ENCODING 74
SWIDTH 600 0
DWIDTH 19 0
BBX 15 22 1 0
BITMAP
1FFE
1FFE
1FFE
1FFE
003E
003E
003E
003E
003E
003E
003E
003E
003E
003E
003E
383E
F83E
7C7E
7FFC
3FFC
1FF8
07E0
ENDCHAR
STARTCHAR K
ENCODING 75
SWIDTH 600 0
DWIDTH 19 0
BBX 17 22 2 0
BITMAP
F81F80
F83F00
F83E00
F87C00
F8F800
F8F800
F9F000
FBE000
FBE000
FFC000
FFE000
FFE000
FFF000
FDF000
FCF800
F8F800
F87C00
F87C00
F83E00
F83F00
F81F00
F81F80
ENDCHAR
STARTCHAR L
ENCODING 76
SWIDTH 600 0
DWIDTH 19 0
BBX 14 22 3 0
BITMAP
F800
F800
F800
F800
F800
F800
F800
F800
F800
F800
F800
F800
F800
F800
F800
F800
F800
F800
FFFC
FFFC
FFFC
FFFC
ENDCHAR
STARTCHAR M
ENCODING 77
SWIDTH 600 0
DWIDTH 19 0
BBX 17 22 1 0
BITMAP
FC1F80
FC1F80
FE1F80
FE3F80
FF3F80
FF7F80
F77780
F7F780
F7F780
F3E780
F3E780
F3E780
F1C780
F1C780
F08780
F08780
F08780
F00780
F00780
F00780
F00780
F00780
ENDCHAR
STARTCHAR N
ENCODING 78
SWIDTH 600 0
DWIDTH 19 0
BBX 15 22 2 0
BITMAP
FC1E
FC1E
FE1E
FE1E
FE1E
FF1E
FF1E
F71E
F79E
F79E
F39E
F3DE
F3DE
F1DE
F1FE
F1FE
F0FE
F0FE
F0FE
F07E
F07E
F07E
ENDCHAR
STARTCHAR O
ENCODING 79
SWIDTH 600 0
DWIDTH 19 0
BBX 17 22 1 0
BITMAP
07F000
1FFC00
3FFE00
3FFE00
7E3F00
7C1F00
780F00
F80F80
F80F80
F80F80
F80F80
F80F80
F80F80
F80F80
F80F80
780F00
7C1F00
7E3F00
3FFE00
3FFE00
1FFC00
07F000
ENDCHAR
STARTCHAR P
ENCODING 80
SWIDTH 600 0
DWIDTH 19 0
BBX 15 22 3 0
BITMAP
FFE0
FFF0
FFF8
FFFC
F07C
F03C
F03E
F03E
F03C
F07C
FFFC
FFF8
FFF0
FFE0
F000
F000
F000
F000
F000
F000
F000
F000
ENDCHAR
STARTCHAR Q
ENCODING 81
SWIDTH 600 0
DWIDTH 19 0
BBX 17 28 1 -6
BITMAP
07F000
1FFC00
3FFE00
3FFE00
7E3F00
7C1F00
780F00
F80F80
F80F80
F80F80
F80F80
F80F80
F80F80
F80F80
F80F80
F80F80
7C1F00
7E3F00
3FFE00
3FFE00
1FFC00
07F000
03E000
03E000
01FF00
01FF00
01FF00
00FF00
ENDCHAR
STARTCHAR R
ENCODING 82
SWIDTH 600 0
DWIDTH 19 0
BBX 15 22 3 0
BITMAP
FFE0
FFF0
FFF8
FFFC
F07C
F03C
F03E
F03E
F03C
F07C
FFFC
FFF8
FFF0
FFE0
F3E0
F1F0
F1F0
F0F8
F0F8
F07C
F07C
F03E
ENDCHAR
STARTCHAR S
ENCODING 83
SWIDTH 600 0
DWIDTH 19 0
BBX 16 22 1 0
BITMAP
07F0
1FFC
3FFF
3FFF
7E1E
7C04
7C00
7C00
7F00
3FF8
3FFE
1FFE
03FF
003F
000F
200F
300F
7C1F
FFFF
7FFE
3FFC
07F0
ENDCHAR
STARTCHAR T
ENCODING 84
SWIDTH 600 0
DWIDTH 19 0
BBX 17 22 1 0
BITMAP
FFFF80
FFFF80
FFFF80
FFFF80
03E000
03E000
03E000
03E000
03E000
03E000
03E000
03E000
03E000
03E000
03E000
03E000
03E000
03E000
03E000
03E000
03E000
03E000
ENDCHAR
STARTCHAR U
ENCODING 85
SWIDTH 600 0
DWIDTH 19 0
BBX 15 22 2 0
BITMAP
F83E
F83E
F83E
F83E
F83E
F83E
F83E
F83E
F83E
F83E
F83E
F83E
F83E
F83E
F83E
F83E
F83E
FC7E
7FFC
7FFC
3FF8
0FE0
ENDCHAR
STARTCHAR V
ENCODING 86
SWIDTH 600 0
DWIDTH 19 0
BBX 19 22 0 0
BITMAP
FC07E0
7C07C0
7C07C0
7C07C0
3E0780
3E0F80
3E0F80
3E0F80
1F0F00
1F1F00
1F1F00
1F1F00
0F1E00
0F9E00
0FBE00
07BE00
07BC00
07BC00
07FC00
03F800
03F800
03F800
ENDCHAR
STARTCHAR W
ENCODING 87
SWIDTH 600 0
DWIDTH 19 0
BBX 17 22 1 0
BITMAP
F00380
F00380
F00780
F00780
F00780
F3E780
F3E780
F3E780
F3E780
F3E780
F36780
F77780
F77780
F77780
F77780
F77780
773700
7E3F00
7E3F00
7E3F00
7E3F00
7E3F00
ENDCHAR
STARTCHAR X
ENCODING 88
SWIDTH 600 0
DWIDTH 19 0
BBX 19 22 0 0
BITMAP
7C07C0
3E0F80
3E0F80
1F1F00
1F1F00
0FBE00
0FBE00
07FC00
07FC00
03F800
03F800
03F800
03F800
07FC00
0FBE00
0FBE00
1F1F00
1F1F00
3E1F80
3E0F80
7C0FC0
FC07E0
ENDCHAR
STARTCHAR Y
ENCODING 89
SWIDTH 600 0
DWIDTH 19 0
BBX 19 22 0 0
BITMAP
FC07E0
7C07C0
3E0F80
3E0F80
1F0F00
1F1F00
0F1E00
0FBE00
07BC00
07FC00
03F800
03F800
01F000
01F000
01F000
01F000
01F000
01F000
01F000
01F000
01F000
01F000
ENDCHAR
STARTCHAR Z
ENCODING 90
SWIDTH 600 0
DWIDTH 19 0
BBX 15 22 2 0
BITMAP
FFFE
FFFE
FFFE
FFFE
007E
007C
00F8
01F8
01F0
03E0
07C0
0FC0
0F80
1F00
3F00
7E00
7C00
F800
FFFE
FFFE
FFFE
FFFE
ENDCHAR
STARTCHAR bracketleft
ENCODING 91
SWIDTH 600 0
DWIDTH 19 0
BBX 10 28 6 -4
BITMAP
FFC0
FFC0
FFC0
FFC0
F000
F000
F000
F000
F000
F000
F000
F000
F000
F000
F000
F000
F000
F000
F000
F000
F000
F000
F000
F000
FFC0
FFC0
FFC0
FFC0
ENDCHAR
STARTCHAR backslash
ENCODING 92
SWIDTH 600 0
DWIDTH 19 0
BBX 14 28 3 -4
BITMAP
F000
F000
F800
7800
7800
7C00
3C00
3C00
1E00
1E00
1E00
0F00
0F00
0F00
0780
0780
07C0
03C0
03C0
03E0
01E0
01E0
00F0
00F0
00F0
0078
0078
007C
ENDCHAR
STARTCHAR bracketright
ENCODING 93
SWIDTH 600 0
DWIDTH 19 0
BBX 10 28 3 -4
BITMAP
FFC0
FFC0
FFC0
FFC0
03C0
03C0
03C0
03C0
03C0
03C0
03C0
03C0
03C0
03C0
03C0
03C0
03C0
03C0
03C0
03C0
03C0
03C0
03C0
03C0
FFC0
FFC0
FFC0
FFC0
ENDCHAR
STARTCHAR asciicircum
ENCODING 94
SWIDTH 600 0
DWIDTH 19 0
BBX 17 14 1 8
BITMAP
03E000
07F000
07F000
0FF800
0F7800
1F7C00
1E3C00
3E3E00
3C1E00
3C1E00
780F00
780F00
F00780
300600
ENDCHAR
STARTCHAR underscore
ENCODING 95
SWIDTH 600 0
DWIDTH 19 0
BBX 15 4 2 -6
BITMAP
FFFE
FFFE
FFFE
FFFE
ENDCHAR
STARTCHAR grave
ENCODING 96
SWIDTH 600 0
DWIDTH 19 0
BBX 7 7 5 18
BITMAP
30
F8
78
7C
3C
1E
08
ENDCHAR
STARTCHAR a
ENCODING 97
SWIDTH 600 0
DWIDTH 19 0
BBX 16 16 2 0
BITMAP
0FE0
3FF0
7FF8
FFFC
707C
207C
003C
1FFC
7FFC
FFFC
F03C
F07C
FFFF
FFBF
7F9F
3E0F
ENDCHAR
STARTCHAR b
ENCODING 98
SWIDTH 600 0
DWIDTH 19 0
BBX 16 23 2 0
BITMAP
F800
F800
F800
F800
F800
F800
F800
F9F0
FBF8
FFFC
FFFE
FC3E
F83E
F81F
F81F
F81F
F81F
F83E
F83E
FFFE
FFFC
FBFC
F9F0
ENDCHAR
STARTCHAR c
ENCODING 99
SWIDTH 600 0
DWIDTH 19 0
BBX 15 16 2 0
BITMAP
07E0
1FF8
3FFC
7FFC
7C3E
F810
F800
F800
F800
F800
F818
7C3E
7FFE
3FFC
1FF8
07E0
ENDCHAR
STARTCHAR d
ENCODING 100
SWIDTH 600 0
DWIDTH 19 0
BBX 16 23 1 0
BITMAP
001F
001F
001F
001F
001F
001F
001F
0F9F
3FDF
3FFF
7FFF
7C3F
781F
F81F
F81F
F81F
F81F
7C1F
7C1F
7FFF
3FFF
3FDF
0F9F
ENDCHAR
STARTCHAR e
ENCODING 101
SWIDTH 600 0
DWIDTH 19 0
BBX 15 16 2 0
BITMAP
0FE0
1FF0
3FFC
7FFC
F83E
F01E
FFFE
FFFE
FFFE
F000
F800
FC18
7FFC
7FFE
1FFC
07F0
ENDCHAR
STARTCHAR f
ENCODING 102
SWIDTH 600 0
DWIDTH 19 0
BBX 15 23 2 0
BITMAP
01FE
03FE
03FE
07FE
07C0
07C0
07C0
FFFE
FFFE
FFFE
FFFE
07C0
07C0
07C0
07C0
07C0
07C0
07C0
07C0
FFFE
FFFE
FFFE
FFFE
ENDCHAR
STARTCHAR g
ENCODING 103
SWIDTH 600 0
DWIDTH 19 0
BBX 16 26 2 -6
BITMAP
001E
003E
003E
003E
0FF0
3FF8
7FFC
7C7C
F83C
F83C
F83C
7C7C
7FF8
3FF0
1FC0
7000
7FF8
FFFE
7FFF
1FFF
F00F
F00F
FFFF
FFFE
FFFC
3FF0
ENDCHAR
STARTCHAR h
ENCODING 104
SWIDTH 600 0
DWIDTH 19 0
BBX 15 23 2 0
BITMAP
F800
F800
F800
F800
F800
F800
F800
F8F0
FBF8
FBFC
FFFE
FC7E
F83E
F83E
F83E
F83E
F83E
F83E
F83E
F83E
F83E
F83E
F83E
ENDCHAR
STARTCHAR i
ENCODING 105
SWIDTH 600 0
DWIDTH 19 0
BBX 15 23 3 0
BITMAP
0780
07C0
07C0
07C0
0380
0000
0000
FFC0
FFC0
FFC0
FFC0
07C0
07C0
07C0
07C0
07C0
07C0
07C0
07C0
FFFE
FFFE
FFFE
FFFE
ENDCHAR
STARTCHAR j
ENCODING 106
SWIDTH 600 0
DWIDTH 19 0
BBX 11 29 3 -6
BITMAP
03C0
03E0
03E0
03E0
01C0
0000
0000
FFE0
FFE0
FFE0
FFE0
03E0
03E0
03E0
03E0
03E0
03E0
03E0
03E0
03E0
03E0
03E0
03E0
03E0
03E0
FFE0
FFC0
FFC0
FF00
ENDCHAR
STARTCHAR k
ENCODING 107
SWIDTH 600 0
DWIDTH 19 0
BBX 16 23 2 0
BITMAP
F800
F800
F800
F800
F800
F800
F800
F83F
F87C
F8F8
F9F0
FBE0
FFC0
FFC0
FFC0
FFE0
FDF0
F9F8
F8F8
F87C
F87E
F83E
F81F
ENDCHAR
STARTCHAR l
ENCODING 108
SWIDTH 600 0
DWIDTH 19 0
BBX 15 23 2 0
BITMAP
FFC0
FFC0
FFC0
FFC0
07C0
07C0
07C0
07C0
07C0
07C0
07C0
07C0
07C0
07C0
07C0
07C0
07C0
07C0
07C0
FFFE
FFFE
FFFE
FFFE
ENDCHAR
STARTCHAR m
ENCODING 109
SWIDTH 600 0
DWIDTH 19 0
BBX 17 16 1 0
BITMAP
F38E00
F79F00
FFDF80
FFFF80
F3E780
F1C780
F1C780
F1C780
F1C780
F1C780
F1C780
F1C780
F1C780
F1C780
F1C780
F1C780
ENDCHAR
STARTCHAR n
ENCODING 110
SWIDTH 600 0
DWIDTH 19 0
BBX 15 16 2 0
BITMAP
F8F0
FBF8
FBFC
FFFE
FC7E
F83E
F83E
F83E
F83E
F83E
F83E
F83E
F83E
F83E
F83E
F83E
ENDCHAR
STARTCHAR o
ENCODING 111
SWIDTH 600 0
DWIDTH 19 0
BBX 17 16 1 0
BITMAP
07F000
1FFC00
3FFE00
3FFE00
7C3F00
7C1F00
780F00
F80F80
F80F80
780F00
7C1F00
7C1F00
3FFE00
3FFE00
1FFC00
07F000
ENDCHAR
STARTCHAR p
ENCODING 112
SWIDTH 600 0
DWIDTH 19 0
BBX 16 22 2 -6
BITMAP
F9F0
FBF8
FFFC
FFFE
FC3E
F83E
F81F
F81F
F81F
F81F
F83E
F83E
FFFE
FFFC
FBFC
F9F0
F800
F800
F800
F800
F800
F800
ENDCHAR
STARTCHAR q
ENCODING 113
SWIDTH 600 0
DWIDTH 19 0
BBX 16 22 1 -6
BITMAP
0F9F
3FDF
3FFF
7FFF
7C3F
781F
F81F
F81F
F81F
F81F
7C1F
7C1F
7FFF
3FFF
3FDF
0F9F
001F
001F
001F
001F
001F
001F
ENDCHAR
STARTCHAR r
ENCODING 114
SWIDTH 600 0
DWIDTH 19 0
BBX 15 16 3 0
BITMAP
FF1E
FF3E
FF7E
FFFE
1F80
1F00
1F00
1F00
1F00
1F00
1F00
1F00
FFF8
FFF8
FFF8
FFF8
ENDCHAR
STARTCHAR s
ENCODING 115
SWIDTH 600 0
DWIDTH 19 0
BBX 15 16 2 0
BITMAP
0FE0
3FF8
7FFE
7FFC
7818
7800
7FC0
7FF8
3FFC
0FFE
003E
703E
FFFC
FFFC
7FF8
0FE0
ENDCHAR
STARTCHAR t
ENCODING 116
SWIDTH 600 0
DWIDTH 19 0
BBX 15 22 2 0
BITMAP
0F00
0F00
0F00
0F00
0F00
0F00
FFFE
FFFE
FFFE
FFFE
0F00
0F00
0F00
0F00
0F00
0F00
0F00
0F00
0FFE
0FFE
07FE
03FE
ENDCHAR
STARTCHAR u
ENCODING 117
SWIDTH 600 0
DWIDTH 19 0
BBX 15 16 2 0
BITMAP
F83E
F83E
F83E
F83E
F83E
F83E
F83E
F83E
F83E
F83E
F83E
FC7E
FFFE
7FBE
3FBE
1F3E
ENDCHAR
STARTCHAR v
ENCODING 118
SWIDTH 600 0
DWIDTH 19 0
BBX 17 16 1 0
BITMAP
F80F80
780F00
7C0F00
7C1F00
3C1E00
3E1E00
3E3E00
1E3C00
1E3C00
1F7C00
0F7800
0F7800
07F800
07F000
07F000
03E000
ENDCHAR
STARTCHAR w
ENCODING 119
SWIDTH 600 0
DWIDTH 19 0
BBX 19 16 0 0
BITMAP
F1F1E0
71F1C0
71F1C0
79F1C0
79F1C0
79B3C0
79BBC0
7BBBC0
7BBBC0
3BBB80
3BBB80
3B1B80
3B1B80
3F1F80
3F1F80
3F1F80
ENDCHAR
STARTCHAR x
ENCODING 120
SWIDTH 600 0
DWIDTH 19 0
BBX 17 16 1 0
BITMAP
FC0F80
7E1F00
3E3E00
1F3C00
0F7800
0FF800
07F000
03E000
07F000
07F000
0FF800
1F7C00
3E7E00
3C3E00
7C1F00
F81F80
ENDCHAR
STARTCHAR y
ENCODING 121
SWIDTH 600 0
DWIDTH 19 0
BBX 17 22 1 -6
BITMAP
F80F80
F80F80
7C0F00
7C1F00
3C1E00
3E1E00
3E3E00
1E3C00
1F3C00
0F7800
0F7800
0FF800
07F000
07F000
03E000
03E000
03C000
07C000
7FC000
7F8000
7F0000
7E0000
ENDCHAR
STARTCHAR z
ENCODING 122
SWIDTH 600 0
DWIDTH 19 0
BBX 15 16 2 0
BITMAP
7FFC
7FFC
7FFC
7FFC
007C
01F8
03F0
07E0
0FC0
1F00
3E00
7C00
FFFE
FFFE
FFFE
FFFE
ENDCHAR
STARTCHAR braceleft
ENCODING 123
SWIDTH 600 0
DWIDTH 19 0
BBX 13 28 3 -4
BITMAP
07F8
0FF8
0FF8
0FF8
0E00
0E00
0E00
0F00
0780
0380
03C0
07C0
FF80
FF00
FF00
FF80
07C0
03C0
0380
0780
0F00
0E00
0E00
0E00
0FF8
0FF8
0FF8
07F8
ENDCHAR
STARTCHAR bar
ENCODING 124
SWIDTH 600 0
DWIDTH 19 0
BBX 4 28 7 -4
BITMAP
F0
F0
F0
F0
F0
F0
F0
F0
F0
F0
F0
F0
F0
F0
F0
F0
F0
F0
F0
F0
F0
F0
F0
F0
F0
F0
F0
F0
ENDCHAR
STARTCHAR braceright
ENCODING 125
SWIDTH 600 0
DWIDTH 19 0
BBX 13 28 3 -4
BITMAP
FF00
FF80
FF80
FF80
0380
0380
0380
0780
0F00
0E00
1E00
1F00
1FF8
07F8
07F8
0FF8
1F00
1E00
0E00
0F00
0780
0380
0380
0380
FF80
FF80
FF80
FF00
ENDCHAR
STARTCHAR asciitilde
ENCODING 126
SWIDTH 600 0
DWIDTH 19 0
BBX 17 6 1 7
BITMAP
1E0600
3FC780
7FFF00
7FFF00
F1FE00
307C00
ENDCHAR
STARTCHAR uni00A0
ENCODING 160
SWIDTH 600 0
DWIDTH 19 0
BBX 1 1 0 0
BITMAP
00
ENDCHAR
STARTCHAR exclamdown
ENCODING 161
SWIDTH 600 0
DWIDTH 19 0
BBX 7 22 6 -6
BITMAP
7C
7C
FE
FE
7C
7C
00
00
10
38
38
38
38
78
7C
7C
7C
7C
7C
7C
7C
7C
ENDCHAR
STARTCHAR cent
ENCODING 162
SWIDTH 600 0
DWIDTH 19 0
BBX 15 22 2 -3
BITMAP
03C0
03C0
03C0
0FE0
1FF8
3FFC
7FFC
7FBE
FB90
F380
F380
F380
F380
FB98
7FBE
7FFE
3FFC
1FF8
0FF0
03C0
03C0
03C0
ENDCHAR
STARTCHAR sterling
ENCODING 163
SWIDTH 600 0
DWIDTH 19 0
BBX 16 22 2 0
BITMAP
07F0
1FFC
3FFE
3FFF
7E1C
7C08
7C00
7C00
7C00
3C00
FFF0
FFF0
FFF0
FFF0
1F00
1E00
3E00
7C00
FFFE
FFFE
FFFE
FFFE
ENDCHAR
STARTCHAR yen
ENCODING 165
SWIDTH 600 0
DWIDTH 19 0
BBX 19 22 0 0
BITMAP
F803E0
7C03C0
7C07C0
3C0780
3E0F80
1E0F00
1F0F00
0F1E00
0F1E00
0FBE00
07BC00
3FFF80
3FFF80
3FFF80
3FFF80
01F000
01F000
01F000
3FFF80
3FFF80
3FFF80
3FFF80
ENDCHAR
STARTCHAR brokenbar
ENCODING 166
SWIDTH 600 0
DWIDTH 19 0
BBX 4 28 7 -4
BITMAP
F0
F0
F0
F0
F0
F0
F0
F0
F0
F0
F0
00
00
00
00
00
00
F0
F0
F0
F0
F0
F0
F0
F0
F0
F0
F0
ENDCHAR
STARTCHAR section
ENCODING 167
SWIDTH 600 0
DWIDTH 19 0
BBX 15 27 2 -5
BITMAP
07E0
1FF8
3FFC
3FFC
7C38
7810
7C00
7F80
3FF0
1FFC
0FFE
39FE
703E
F01E
F81C
FF38
7FF0
7FF0
1FF8
03FC
003C
203C
387C
3FFC
7FF8
3FF0
0FC0
ENDCHAR
STARTCHAR dieresis
ENCODING 168
SWIDTH 600 0
DWIDTH 19 0
BBX 11 5 4 18
BITMAP
F1E0
FBE0
FBE0
FBE0
F1E0
ENDCHAR
STARTCHAR copyright
ENCODING 169
SWIDTH 600 0
DWIDTH 19 0
BBX 19 20 0 1
BITMAP
03F800
0FFE00
1E0F00
380380
31F180
63F8C0
67FCC0
C71E60
CF0860
CF0060
CF0060
CF0860
CF1E60
67FCC0
63FCC0
31F180
380380
1E0F00
0FFE00
03F800
ENDCHAR
STARTCHAR ordfeminine
ENCODING 170
SWIDTH 600 0
DWIDTH 19 0
BBX 11 11 4 11
BITMAP
3F00
7F80
E3C0
01C0
01C0
3FC0
7FC0
E1C0
E1C0
FFE0
7CE0
ENDCHAR
STARTCHAR guillemotleft
ENCODING 171
SWIDTH 600 0
DWIDTH 19 0
BBX 15 15 2 1
BITMAP
0404
060E
1E1E
3F3E
7C7C
F8F8
F8F0
F0E0
F8F0
F8F8
7C7C
3E3E
1F1E
060E
0204
ENDCHAR
STARTCHAR logicalnot
ENCODING 172
SWIDTH 600 0
DWIDTH 19 0
BBX 14 10 2 1
BITMAP
FFFC
FFFC
FFFC
FFFC
001C
001C
001C
001C
001C
001C
ENDCHAR
STARTCHAR uni00AD
ENCODING 173
SWIDTH 600 0
DWIDTH 19 0
BBX 10 4 4 7
BITMAP
FFC0
FFC0
FFC0
FFC0
ENDCHAR
STARTCHAR registered
ENCODING 174
SWIDTH 600 0
DWIDTH 19 0
BBX 11 11 4 11
BITMAP
1F00
2080
4040
DF60
9B20
9F20
9B20
DB60
4040
2080
1F00
ENDCHAR
STARTCHAR macron
ENCODING 175
SWIDTH 600 0
DWIDTH 19 0
BBX 9 3 5 19
BITMAP
FF80
FF80
FF80
ENDCHAR
STARTCHAR degree
ENCODING 176
SWIDTH 600 0
DWIDTH 19 0
BBX 11 12 4 10
BITMAP
1F00
3F80
71C0
E0E0
E0E0
E0E0
E0E0
E0E0
E0E0
71C0
3F80
1F00
ENDCHAR
STARTCHAR plusminus
ENCODING 177
SWIDTH 600 0
DWIDTH 19 0
BBX 15 20 2 0
BITMAP
0780
0780
0780
0780
0780
FFFE
FFFE
FFFE
FFFE
0780
0780
0780
0780
0780
0000
0000
FFFE
FFFE
FFFE
FFFE
ENDCHAR
STARTCHAR twosuperior
ENCODING 178
SWIDTH 600 0
DWIDTH 19 0
BBX 9 12 5 10
BITMAP
3E00
FF00
E780
0380
0780
0700
0F00
1C00
3800
7000
FF80
FF80
ENDCHAR
STARTCHAR threesuperior
ENCODING 179
SWIDTH 600 0
DWIDTH 19 0
BBX 10 12 4 10
BITMAP
3F00
7F80
33C0
01C0
03C0
0F80
0F80
03C0
21C0
73C0
FF80
3F00
ENDCHAR
STARTCHAR acute
ENCODING 180
SWIDTH 600 0
DWIDTH 19 0
BBX 7 7 7 18
BITMAP
18
3E
3C
7C
78
F0
20
ENDCHAR
STARTCHAR mu
ENCODING 181
SWIDTH 600 0
DWIDTH 19 0
BBX 15 22 2 -6
BITMAP
F83E
F83E
F83E
F83E
F83E
F83E
F83E
F83E
F83E
F83E
F83E
FC7E
FFFE
FFFE
FFBE
F73E
F000
F800
F800
F800
F800
F800
ENDCHAR
STARTCHAR paragraph
ENCODING 182
SWIDTH 600 0
DWIDTH 19 0
BBX 16 27 1 -5
BITMAP
0FFF
3FFF
7FFF
7FFF
FFC7
FFC7
FFC7
FFC7
FFC7
FFC7
7FC7
7FC7
3FC7
0FC7
01C7
01C7
01C7
01C7
01C7
01C7
01C7
01C7
01C7
01C7
01C7
01C7
01C7
ENDCHAR
STARTCHAR periodcentered
ENCODING 183
SWIDTH 600 0
DWIDTH 19 0
BBX 7 6 6 6
BITMAP
7C
FE
FE
FE
FE
7C
ENDCHAR
STARTCHAR cedilla
ENCODING 184
SWIDTH 600 0
DWIDTH 19 0
BBX 8 8 6 -7
BITMAP
18
30
30
3E
07
47
FF
3C
ENDCHAR
STARTCHAR onesuperior
ENCODING 185
SWIDTH 600 0
DWIDTH 19 0
BBX 10 12 5 10
BITMAP
3E00
FE00
6E00
0E00
0E00
0E00
0E00
0E00
0E00
0E00
7FC0
7FC0
ENDCHAR
STARTCHAR ordmasculine
ENCODING 186
SWIDTH 600 0
DWIDTH 19 0
BBX 11 12 4 10
BITMAP
1F00
7FC0
71C0
E0E0
E0E0
E0E0
E0E0
E0E0
E0E0
71C0
7FC0
1F00
ENDCHAR
STARTCHAR guillemotright
ENCODING 187
SWIDTH 600 0
DWIDTH 19 0
BBX 15 15 2 1
BITMAP
4080
E0E0
F0F0
F9F8
7C7C
3E3E
1E3E
0E1E
1E3E
3E3E
7C7C
F8F8
F1F0
E0E0
4080
ENDCHAR
STARTCHAR onequarter
ENCODING 188
SWIDTH 600 0
DWIDTH 19 0
BBX 19 22 0 0
BITMAP
1E01E0
7E01C0
6E0380
0E0780
0E0700
0E0E00
0E0E00
0E1C00
0E3C00
7F8000
7F8000
000380
000780
078F80
070D80
0E1980
1E3980
1C3180
383FE0
383FE0
700180
F00180
ENDCHAR
STARTCHAR onehalf
ENCODING 189
SWIDTH 600 0
DWIDTH 19 0
BBX 19 22 0 0
BITMAP
1E01E0
7E01C0
6E0380
0E0780
0E0700
0E0E00
0E0E00
0E1C00
0E3C00
7F8000
7F8000
000F00
003FC0
07B9C0
0701C0
0E01C0
1E0380
1C0700
380E00
381C00
703FC0
F03FC0
ENDCHAR
STARTCHAR threequarters
ENCODING 190
SWIDTH 600 0
DWIDTH 19 0
BBX 19 22 0 0
BITMAP
3E01E0
7F81C0
238380
038780
0F0700
0F0E00
038E00
039C00
63BC00
7F8000
3E0000
000380
000780
078F80
070D80
0E1980
1E3980
1C3180
383FE0
383FE0
700180
F00180
ENDCHAR
STARTCHAR questiondown
ENCODING 191
SWIDTH 600 0
DWIDTH 19 0
BBX 15 22 2 -6
BITMAP
03C0
07E0
07E0
07E0
07E0
03C0
0000
0000
03C0
03C0
07C0
1FC0
3F80
7C00
7800
F820
F81C
7C3E
7FFC
3FFC
1FF8
07E0
ENDCHAR
STARTCHAR Agrave
ENCODING 192
SWIDTH 600 0
DWIDTH 19 0
BBX 19 30 0 0
BITMAP
018000
07C000
03C000
03E000
01E000
00F000
004000
000000
03F800
03F800
03F800
07FC00
07FC00
07BC00
0FBE00
0FBE00
0F3E00
0F1E00
1F1F00
1F1F00
1E1F00
1FFF00
3FFF80
3FFF80
3FFF80
3C0F80
7C07C0
7C07C0
7807C0
F803E0
ENDCHAR
STARTCHAR Aacute
ENCODING 193
SWIDTH 600 0
DWIDTH 19 0
BBX 19 30 0 0
BITMAP
003000
007C00
007800
00F800
00F000
01E000
004000
000000
03F800
03F800
03F800
07FC00
07FC00
07BC00
0FBE00
0FBE00
0F3E00
0F1E00
1F1F00
1F1F00
1E1F00
1FFF00
3FFF80
3FFF80
3FFF80
3C0F80
7C07C0
7C07C0
7807C0
F803E0
ENDCHAR
STARTCHAR Acircumflex
ENCODING 194
SWIDTH 600 0
DWIDTH 19 0
BBX 19 30 0 0
BITMAP
01F000
03F800
03F800
07BC00
0F1E00
1E0F00
040400
000000
03F800
03F800
03F800
07FC00
07FC00
07BC00
0FBE00
0FBE00
0F3E00
0F1E00
1F1F00
1F1F00
1E1F00
1FFF00
3FFF80
3FFF80
3FFF80
3C0F80
7C07C0
7C07C0
7807C0
F803E0
ENDCHAR
STARTCHAR Atilde
ENCODING 195
SWIDTH 600 0
DWIDTH 19 0
BBX 19 28 0 0
BITMAP
07C400
0FFE00
0FFE00
047C00
000000
000000
03F800
03F800
03F800
07FC00
07FC00
07BC00
0FBE00
0FBE00
0F3E00
0F1E00
1F1F00
1F1F00
1E1F00
1FFF00
3FFF80
3FFF80
3FFF80
3C0F80
7C07C0
7C07C0
7807C0
F803E0
ENDCHAR
STARTCHAR Adieresis
ENCODING 196
SWIDTH 600 0
DWIDTH 19 0
BBX 19 29 0 0
BITMAP
0F1E00
0FBE00
0FBE00
0FBE00
0F1E00
000000
000000
03F800
03F800
03F800
07FC00
07FC00
07BC00
0FBE00
0FBE00
0F3E00
0F1E00
1F1F00
1F1F00
1E1F00
1FFF00
3FFF80
3FFF80
3FFF80
3C0F80
7C07C0
7C07C0
7807C0
F803E0
ENDCHAR
STARTCHAR Aring
ENCODING 197
SWIDTH 600 0
DWIDTH 19 0
BBX 19 32 0 0
BITMAP
01F000
03F800
071C00
071C00
071C00
071C00
071C00
03F800
01F000
000000
03F800
03F800
03F800
07FC00
07FC00
07BC00
0FBE00
0FBE00
0F3E00
0F1E00
1F1F00
1F1F00
1E1F00
1FFF00
3FFF80
3FFF80
3FFF80
3C0F80
7C07C0
7C07C0
7807C0
F803E0
ENDCHAR
STARTCHAR AE
ENCODING 198
SWIDTH 600 0
DWIDTH 19 0
BBX 18 22 0 0
BITMAP
07FFC0
07FFC0
0FFFC0
0FFFC0
0F7800
0F7800
0F7800
1E7800
1E7800
1E7FC0
1E7FC0
3E7FC0
3C7FC0
3FF800
3FF800
7FF800
7FF800
787800
787FC0
787FC0
F87FC0
F87FC0
ENDCHAR
STARTCHAR Ccedilla
ENCODING 199
SWIDTH 600 0
DWIDTH 19 0
BBX 17 28 1 -6
BITMAP
03F000
0FFC00
1FFE00
3FFE00
3E1F00
7C0F00
7C0F80
7C0800
780000
F80000
F80000
F80000
780000
7C0000
7C1000
7C0F80
7C0F00
3E1F00
3FFE00
1FFE00
0FFC00
03F000
018000
01F000
003800
023800
07F800
03F000
ENDCHAR
STARTCHAR Egrave
ENCODING 200
SWIDTH 600 0
DWIDTH 19 0
BBX 13 30 3 0
BITMAP
0C00
3E00
1E00
1F00
0F00
0780
0200
0000
FFF8
FFF8
FFF8
FFF8
F000
F000
F000
F000
F000
FFF8
FFF8
FFF8
FFF8
F000
F000
F000
F000
F000
FFF8
FFF8
FFF8
FFF8
ENDCHAR
STARTCHAR Eacute
ENCODING 201
SWIDTH 600 0
DWIDTH 19 0
BBX 13 30 3 0
BITMAP
0180
03E0
03E0
07C0
0780
0F00
0200
0000
FFF8
FFF8
FFF8
FFF8
F000
F000
F000
F000
F000
FFF8
FFF8
FFF8
FFF8
F000
F000
F000
F000
F000
FFF8
FFF8
FFF8
FFF8
ENDCHAR
STARTCHAR Ecircumflex
ENCODING 202
SWIDTH 600 0
DWIDTH 19 0
BBX 13 30 3 0
BITMAP
0F80
1FC0
1FE0
3DE0
78F0
7078
2020
0000
FFF8
FFF8
FFF8
FFF8
F000
F000
F000
F000
F000
FFF8
FFF8
FFF8
FFF8
F000
F000
F000
F000
F000
FFF8
FFF8
FFF8
FFF8
ENDCHAR
STARTCHAR Edieresis
ENCODING 203
SWIDTH 600 0
DWIDTH 19 0
BBX 13 29 3 0
BITMAP
78F0
7CF0
7DF0
7CF0
78F0
0000
0000
FFF8
FFF8
FFF8
FFF8
F000
F000
F000
F000
F000
FFF8
FFF8
FFF8
FFF8
F000
F000
F000
F000
F000
FFF8
FFF8
FFF8
FFF8
ENDCHAR
STARTCHAR Igrave
ENCODING 204
SWIDTH 600 0
DWIDTH 19 0
BBX 14 30 2 0
BITMAP
0600
1F00
0F00
0F80
0780
03C0
0100
0000
FFFC
FFFC
FFFC
FFFC
07C0
07C0
07C0
07C0
07C0
07C0
07C0
07C0
07C0
07C0
07C0
07C0
07C0
07C0
FFFC
FFFC
FFFC
FFFC
ENDCHAR
STARTCHAR Iacute
ENCODING 205
SWIDTH 600 0
DWIDTH 19 0
BBX 14 30 2 0
BITMAP
00C0
01F0
01E0
03E0
03C0
0780
0100
0000
FFFC
FFFC
FFFC
FFFC
07C0
07C0
07C0
07C0
07C0
07C0
07C0
07C0
07C0
07C0
07C0
07C0
07C0
07C0
FFFC
FFFC
FFFC
FFFC
ENDCHAR
STARTCHAR Icircumflex
ENCODING 206
SWIDTH 600 0
DWIDTH 19 0
BBX 14 30 2 0
BITMAP
07C0
0FE0
0FE0
1EF0
3C78
783C
1010
0000
FFFC
FFFC
FFFC
FFFC
07C0
07C0
07C0
07C0
07C0
07C0
07C0
07C0
07C0
07C0
07C0
07C0
07C0
07C0
FFFC
FFFC
FFFC
FFFC
ENDCHAR
STARTCHAR Idieresis
ENCODING 207
SWIDTH 600 0
DWIDTH 19 0
BBX 14 29 2 0
BITMAP
3C78
3EF8
3EF8
3EF8
3C78
0000
0000
FFFC
FFFC
FFFC
FFFC
07C0
07C0
07C0
07C0
07C0
07C0
07C0
07C0
07C0
07C0
07C0
07C0
07C0
07C0
FFFC
FFFC
FFFC
FFFC
ENDCHAR
STARTCHAR Eth
ENCODING 208
SWIDTH 600 0
DWIDTH 19 0
BBX 17 22 1 0
BITMAP
7FE000
7FF800
7FFC00
7FFE00
7C3F00
7C1F00
7C1F00
7C0F00
7C0F80
FF8F80
FF8F80
FF8F80
FF8F80
7C0F80
7C0F00
7C1F00
7C1F00
7C3F00
7FFE00
7FFC00
7FF800
7FE000
ENDCHAR
STARTCHAR Ntilde
ENCODING 209
SWIDTH 600 0
DWIDTH 19 0
BBX 15 28 2 0
BITMAP
1F10
3FF8
3FF8
11F0
0000
0000
FC1E
FC1E
FE1E
FE1E
FE1E
FF1E
FF1E
F71E
F79E
F79E
F39E
F3DE
F3DE
F1DE
F1FE
F1FE
F0FE
F0FE
F0FE
F07E
F07E
F07E
ENDCHAR
STARTCHAR Ograve
ENCODING 210
SWIDTH 600 0
DWIDTH 19 0
BBX 17 30 1 0
BITMAP
030000
0F8000
078000
07C000
03C000
01E000
008000
000000
07F000
1FFC00
3FFE00
3FFE00
7E3F00
7C1F00
780F00
F80F80
F80F80
F80F80
F80F80
F80F80
F80F80
F80F80
F80F80
780F00
7C1F00
7E3F00
3FFE00
3FFE00
1FFC00
07F000
ENDCHAR
STARTCHAR Oacute
ENCODING 211
SWIDTH 600 0
DWIDTH 19 0
BBX 17 30 1 0
BITMAP
006000
00F800
00F000
01F000
01E000
03C000
008000
000000
07F000
1FFC00
3FFE00
3FFE00
7E3F00
7C1F00
780F00
F80F80
F80F80
F80F80
F80F80
F80F80
F80F80
F80F80
F80F80
780F00
7C1F00
7E3F00
3FFE00
3FFE00
1FFC00
07F000
ENDCHAR
STARTCHAR Ocircumflex
ENCODING 212
SWIDTH 600 0
DWIDTH 19 0
BBX 17 30 1 0
BITMAP
03E000
07F000
07F000
0F7800
1E3C00
3C1E00
080800
000000
07F000
1FFC00
3FFE00
3FFE00
7E3F00
7C1F00
780F00
F80F80
F80F80
F80F80
F80F80
F80F80
F80F80
F80F80
F80F80
780F00
7C1F00
7E3F00
3FFE00
3FFE00
1FFC00
07F000
ENDCHAR
STARTCHAR Otilde
ENCODING 213
SWIDTH 600 0
DWIDTH 19 0
BBX 17 28 1 0
BITMAP
0F8800
1FFC00
1FFC00
08F800
000000
000000
07F000
1FFC00
3FFE00
3FFE00
7E3F00
7C1F00
780F00
F80F80
F80F80
F80F80
F80F80
F80F80
F80F80
F80F80
F80F80
780F00
7C1F00
7E3F00
3FFE00
3FFE00
1FFC00
07F000
ENDCHAR
STARTCHAR Odieresis
ENCODING 214
SWIDTH 600 0
DWIDTH 19 0
BBX 17 29 1 0
BITMAP
1E3C00
1F7C00
1F7C00
1F7C00
1E3C00
000000
000000
07F000
1FFC00
3FFE00
3FFE00
7E3F00
7C1F00
780F00
F80F80
F80F80
F80F80
F80F80
F80F80
F80F80
F80F80
F80F80
780F00
7C1F00
7E3F00
3FFE00
3FFE00
1FFC00
07F000
ENDCHAR
STARTCHAR multiply
ENCODING 215
SWIDTH 600 0
DWIDTH 19 0
BBX 15 14 2 2
BITMAP
3018
783C
FC7E
7EFC
3FF8
1FF0
0FE0
0FE0
1FF0
3FF8
7EFC
FC7E
783C
3018
ENDCHAR
STARTCHAR Oslash
ENCODING 216
SWIDTH 600 0
DWIDTH 19 0
BBX 17 26 1 -2
BITMAP
000200
000300
07F780
1FFF00
3FFF00
3FFE00
7E3F00
7C3F00
783F80
F87F80
F8FF80
F8EF80
F9EF80
FBCF80
FB8F80
FF8F80
FF0F80
FE0F00
7E1F00
7E3F00
3FFE00
7FFE00
7FFC00
F7F000
600000
200000
ENDCHAR
STARTCHAR Ugrave
ENCODING 217
SWIDTH 600 0
DWIDTH 19 0
BBX 15 30 2 0
BITMAP
0600
1F00
0F00
0F80
0780
03C0
0100
0000
F83E
F83E
F83E
F83E
F83E
F83E
F83E
F83E
F83E
F83E
F83E
F83E
F83E
F83E
F83E
F83E
F83E
FC7E
7FFC
7FFC
3FF8
0FE0
ENDCHAR
STARTCHAR Uacute
ENCODING 218
SWIDTH 600 0
DWIDTH 19 0
BBX 15 30 2 0
BITMAP
00C0
01F0
01E0
03E0
03C0
0780
0100
0000
F83E
F83E
F83E
F83E
F83E
F83E
F83E
F83E
F83E
F83E
F83E
F83E
F83E
F83E
F83E
F83E
F83E
FC7E
7FFC
7FFC
3FF8
0FE0
ENDCHAR
STARTCHAR Ucircumflex
ENCODING 219
SWIDTH 600 0
DWIDTH 19 0
BBX 15 30 2 0
BITMAP
07C0
0FE0
0FE0
1EF0
3C78
783C
1010
0000
F83E
F83E
F83E
F83E
F83E
F83E
F83E
F83E
F83E
F83E
F83E
F83E
F83E
F83E
F83E
F83E
F83E
FC7E
7FFC
7FFC
3FF8
0FE0
ENDCHAR
STARTCHAR Udieresis
ENCODING 220
SWIDTH 600 0
DWIDTH 19 0
BBX 15 29 2 0
BITMAP
3C78
3EF8
3EF8
3EF8
3C78
0000
0000
F83E
F83E
F83E
F83E
F83E
F83E
F83E
F83E
F83E
F83E
F83E
F83E
F83E
F83E
F83E
F83E
F83E
FC7E
7FFC
7FFC
3FF8
0FE0
ENDCHAR
STARTCHAR Yacute
ENCODING 221
SWIDTH 600 0
DWIDTH 19 0
BBX 19 30 0 0
BITMAP
003000
007C00
007800
00F800
00F000
01E000
004000
000000
FC07E0
7C07C0
3E0F80
3E0F80
1F0F00
1F1F00
0F1E00
0FBE00
07BC00
07FC00
03F800
03F800
01F000
01F000
01F000
01F000
01F000
01F000
01F000
01F000
01F000
01F000
ENDCHAR
STARTCHAR Thorn
ENCODING 222
SWIDTH 600 0
DWIDTH 19 0
BBX 14 22 3 0
BITMAP
F000
F000
F000
F000
FFE0
FFF0
FFF8
FFFC
F07C
F07C
F03C
F03C
F07C
F07C
FFFC
FFF8
FFF0
FFE0
F000
F000
F000
F000
ENDCHAR
STARTCHAR germandbls
ENCODING 223
SWIDTH 600 0
DWIDTH 19 0
BBX 16 29 2 -6
BITMAP
3FC0
7FC0
FFC0
FFC0
F800
F800
F800
FFFE
FFFE
FFFE
FFFE
F83C
F878
F878
F8F0
F9E0
F9E0
F9F8
F9FE
F9FE
F83F
F81F
F81F
001F
003F
03FE
03FE
03FC
03E0
ENDCHAR
STARTCHAR agrave
ENCODING 224
SWIDTH 600 0
DWIDTH 19 0
BBX 16 25 2 0
BITMAP
0600
1E00
1F00
0F00
0780
0380
0340
0000
0000
0FE0
3FF0
7FF8
FFFC
707C
207C
003C
1FFC
7FFC
FFFC
F03C
F07C
FFFF
FFBF
7F9F
3E0F
ENDCHAR
STARTCHAR aacute
ENCODING 225
SWIDTH 600 0
DWIDTH 19 0
BBX 16 25 2 0
BITMAP
00C0
01F0
01E0
03C0
03C0
0780
0100
0000
0000
0FE0
3FF0
7FF8
FFFC
707C
207C
003C
1FFC
7FFC
FFFC
F03C
F07C
FFFF
FFBF
7F9F
3E0F
ENDCHAR
STARTCHAR acircumflex
ENCODING 226
SWIDTH 600 0
DWIDTH 19 0
BBX 16 25 2 0
BITMAP
07C0
0FC0
1FE0
1FF0
3CF8
7878
1030
0000
0000
0FE0
3FF0
7FF8
FFFC
707C
207C
003C
1FFC
7FFC
FFFC
F03C
F07C
FFFF
FFBF
7F9F
3E0F
ENDCHAR
STARTCHAR atilde
ENCODING 227
SWIDTH 600 0
DWIDTH 19 0
BBX 16 22 2 0
BITMAP
1E10
3FF8
7FF8
11F0
0000
0000
0FE0
3FF0
7FF8
FFFC
707C
207C
003C
1FFC
7FFC
FFFC
F03C
F07C
FFFF
FFBF
7F9F
3E0F
ENDCHAR
STARTCHAR adieresis
ENCODING 228
SWIDTH 600 0
DWIDTH 19 0
BBX 16 23 2 0
BITMAP
3C70
7CF8
7CF8
7CF8
3C70
0000
0000
0FE0
3FF0
7FF8
FFFC
707C
207C
003C
1FFC
7FFC
FFFC
F03C
F07C
FFFF
FFBF
7F9F
3E0F
ENDCHAR
STARTCHAR aring
ENCODING 229
SWIDTH 600 0
DWIDTH 19 0
BBX 16 26 2 0
BITMAP
0780
0FE0
1CE0
1C70
1C70
1C70
1CE0
0FE0
0780
0000
0FE0
3FF0
7FF8
FFFC
707C
207C
003C
1FFC
7FFC
FFFC
F03C
F07C
FFFF
FFBF
7F9F
3E0F
ENDCHAR
STARTCHAR ae
ENCODING 230
SWIDTH 600 0
DWIDTH 19 0
BBX 18 16 0 0
BITMAP
1F1E00
3FBF80
7FFF80
71F3C0
31E1C0
01E1C0
01FFC0
1FFFC0
7FFFC0
7FE000
F1E000
F1E1C0
F1F3C0
7F7F80
7E7F80
3C1E00
ENDCHAR
STARTCHAR ccedilla
ENCODING 231
SWIDTH 600 0
DWIDTH 19 0
BBX 15 22 2 -6
BITMAP
07E0
1FF8
3FFC
7FFC
7C3E
F810
F800
F800
F800
F800
F818
7C3E
7FFE
3FFC
1FF8
0FE0
0300
03E0
00F0
0470
0FF0
07C0
ENDCHAR
STARTCHAR egrave
ENCODING 232
SWIDTH 600 0
DWIDTH 19 0
BBX 15 25 2 0
BITMAP
0600
1F00
0F00
0F80
0780
03C0
0100
0000
0000
0FE0
1FF0
3FFC
7FFC
F83E
F01E
FFFE
FFFE
FFFE
F000
F800
FC18
7FFC
7FFE
1FFC
07F0
ENDCHAR
STARTCHAR eacute
ENCODING 233
SWIDTH 600 0
DWIDTH 19 0
BBX 15 25 2 0
BITMAP
00C0
01F0
01E0
03E0
03C0
0780
0100
0000
0000
0FE0
1FF0
3FFC
7FFC
F83E
F01E
FFFE
FFFE
FFFE
F000
F800
FC18
7FFC
7FFE
1FFC
07F0
ENDCHAR
STARTCHAR ecircumflex
ENCODING 234
SWIDTH 600 0
DWIDTH 19 0
BBX 15 25 2 0
BITMAP
07C0
0FE0
0FE0
1EF0
3C78
383C
1010
0000
0000
0FE0
1FF0
3FFC
7FFC
F83E
F01E
FFFE
FFFE
FFFE
F000
F800
FC18
7FFC
7FFE
1FFC
07F0
ENDCHAR
STARTCHAR edieresis
ENCODING 235
SWIDTH 600 0
DWIDTH 19 0
BBX 15 23 2 0
BITMAP
3C78
3EF8
3EF8
3EF8
3C78
0000
0000
0FE0
1FF0
3FFC
7FFC
F83E
F01E
FFFE
FFFE
FFFE
F000
F800
FC18
7FFC
7FFE
1FFC
07F0
ENDCHAR
STARTCHAR igrave
ENCODING 236
SWIDTH 600 0
DWIDTH 19 0
BBX 14 25 3 0
BITMAP
0600
1F00
0F00
0F80
0780
03C0
0100
0000
0000
FFC0
FFC0
FFC0
FFC0
07C0
07C0
07C0
07C0
07C0
07C0
07C0
07C0
FFFC
FFFC
FFFC
FFFC
ENDCHAR
STARTCHAR iacute
ENCODING 237
SWIDTH 600 0
DWIDTH 19 0
BBX 14 25 3 0
BITMAP
00C0
01F0
01E0
03E0
03C0
0780
0100
0000
0000
FFC0
FFC0
FFC0
FFC0
07C0
07C0
07C0
07C0
07C0
07C0
07C0
07C0
FFFC
FFFC
FFFC
FFFC
ENDCHAR
STARTCHAR icircumflex
ENCODING 238
SWIDTH 600 0
DWIDTH 19 0
BBX 14 25 3 0
BITMAP
07C0
0FE0
0FE0
1EF0
3C78
783C
1010
0000
0000
FFC0
FFC0
FFC0
FFC0
07C0
07C0
07C0
07C0
07C0
07C0
07C0
07C0
FFFC
FFFC
FFFC
FFFC
ENDCHAR
STARTCHAR idieresis
ENCODING 239
SWIDTH 600 0
DWIDTH 19 0
BBX 14 23 3 0
BITMAP
3C78
3CF8
3EF8
3CF8
3C78
0000
0000
FFC0
FFC0
FFC0
FFC0
07C0
07C0
07C0
07C0
07C0
07C0
07C0
07C0
FFFC
FFFC
FFFC
FFFC
ENDCHAR
STARTCHAR eth
ENCODING 240
SWIDTH 600 0
DWIDTH 19 0
BBX 17 23 1 0
BITMAP
7F9800
0FFC00
03F000
03F800
0FF800
067C00
003E00
0F9E00
1FFF00
3FFF00
7E3F00
7C1F00
780F80
F80F80
F80F80
F80F80
780F00
7C1F00
7E3F00
3FFE00
3FFE00
1FFC00
07F000
ENDCHAR
STARTCHAR ntilde
ENCODING 241
SWIDTH 600 0
DWIDTH 19 0
BBX 15 22 2 0
BITMAP
1F10
3FF8
3FF8
11F0
0000
0000
F8F0
FBF8
FBFC
FFFE
FC7E
F83E
F83E
F83E
F83E
F83E
F83E
F83E
F83E
F83E
F83E
F83E
ENDCHAR
STARTCHAR ograve
ENCODING 242
SWIDTH 600 0
DWIDTH 19 0
BBX 17 25 1 0
BITMAP
030000
0F8000
078000
07C000
03C000
01E000
008000
000000
000000
07F000
1FFC00
3FFE00
3FFE00
7C3F00
7C1F00
780F00
F80F80
F80F80
780F00
7C1F00
7C1F00
3FFE00
3FFE00
1FFC00
07F000
ENDCHAR
STARTCHAR oacute
ENCODING 243
SWIDTH 600 0
DWIDTH 19 0
BBX 17 25 1 0
BITMAP
006000
00F800
00F000
01F000
01E000
03C000
008000
000000
000000
07F000
1FFC00
3FFE00
3FFE00
7C3F00
7C1F00
780F00
F80F80
F80F80
780F00
7C1F00
7C1F00
3FFE00
3FFE00
1FFC00
07F000
ENDCHAR
STARTCHAR ocircumflex
ENCODING 244
SWIDTH 600 0
DWIDTH 19 0
BBX 17 25 1 0
BITMAP
03E000
07F000
07F000
0F7800
1E3C00
3C1E00
080800
000000
000000
07F000
1FFC00
3FFE00
3FFE00
7C3F00
7C1F00
780F00
F80F80
F80F80
780F00
7C1F00
7C1F00
3FFE00
3FFE00
1FFC00
07F000
ENDCHAR
STARTCHAR otilde
ENCODING 245
SWIDTH 600 0
DWIDTH 19 0
BBX 17 22 1 0
BITMAP
0F8800
1FFC00
1FFC00
08F800
000000
000000
07F000
1FFC00
3FFE00
3FFE00
7C3F00
7C1F00
780F00
F80F80
F80F80
780F00
7C1F00
7C1F00
3FFE00
3FFE00
1FFC00
07F000
ENDCHAR
STARTCHAR odieresis
ENCODING 246
SWIDTH 600 0
DWIDTH 19 0
BBX 17 23 1 0
BITMAP
1E3C00
1F7C00
1F7C00
1F7C00
1E3C00
000000
000000
07F000
1FFC00
3FFE00
3FFE00
7C3F00
7C1F00
780F00
F80F80
F80F80
780F00
7C1F00
7C1F00
3FFE00
3FFE00
1FFC00
07F000
ENDCHAR
STARTCHAR divide
ENCODING 247
SWIDTH 600 0
DWIDTH 19 0
BBX 15 18 2 0
BITMAP
0380
07C0
07C0
07C0
0380
0000
0000
FFFE
FFFE
FFFE
FFFE
0000
0000
0380
07C0
07C0
07C0
0380
ENDCHAR
STARTCHAR oslash
ENCODING 248
SWIDTH 600 0
DWIDTH 19 0
BBX 17 20 1 -2
BITMAP
000200
000300
07F780
1FFF00
3FFE00
3FFE00
7C3F00
787F00
78FF00
F9EF80
FBCF80
7F8F00
7F1F00
7E1F00
3FFE00
3FFE00
7FFC00
F7F000
600000
400000
ENDCHAR
STARTCHAR ugrave
ENCODING 249
SWIDTH 600 0
DWIDTH 19 0
BBX 15 25 2 0
BITMAP
0600
1F00
0F00
0F80
0780
03C0
0100
0000
0000
F83E
F83E
F83E
F83E
F83E
F83E
F83E
F83E
F83E
F83E
F83E
FC7E
FFFE
7FBE
3FBE
1F3E
ENDCHAR
STARTCHAR uacute
ENCODING 250
SWIDTH 600 0
DWIDTH 19 0
BBX 15 25 2 0
BITMAP
00C0
01F0
01E0
03E0
03C0
0780
0100
0000
0000
F83E
F83E
F83E
F83E
F83E
F83E
F83E
F83E
F83E
F83E
F83E
FC7E
FFFE
7FBE
3FBE
1F3E
ENDCHAR
STARTCHAR ucircumflex
ENCODING 251
SWIDTH 600 0
DWIDTH 19 0
BBX 15 25 2 0
BITMAP
07C0
0FE0
0FE0
1EF0
3C78
7838
1010
0000
0000
F83E
F83E
F83E
F83E
F83E
F83E
F83E
F83E
F83E
F83E
F83E
FC7E
FFFE
7FBE
3FBE
1F3E
ENDCHAR
STARTCHAR udieresis
ENCODING 252
SWIDTH 600 0
DWIDTH 19 0
BBX 15 23 2 0
BITMAP
3C78
3CF8
3EF8
3CF8
3C78
0000
0000
F83E
F83E
F83E
F83E
F83E
F83E
F83E
F83E
F83E
F83E
F83E
FC7E
FFFE
7FBE
3FBE
1F3E
ENDCHAR
STARTCHAR yacute
ENCODING 253
SWIDTH 600 0
DWIDTH 19 0
BBX 17 31 1 -6
BITMAP
006000
00F800
00F800
01F000
01E000
03C000
008000
000000
000000
F80F80
F80F80
7C0F00
7C1F00
3C1E00
3E1E00
3E3E00
1E3C00
1F3C00
0F7800
0F7800
0FF800
07F000
07F000
03E000
03E000
03C000
07C000
7FC000
7F8000
7F0000
7E0000
ENDCHAR
STARTCHAR thorn
ENCODING 254
SWIDTH 600 0
DWIDTH 19 0
BBX 16 29 2 -6
BITMAP
F800
F800
F800
F800
F800
F800
F800
F9F0
FBF8
FFFC
FFFE
FC3E
F83E
F81F
F81F
F81F
F81F
F83E
F83E
FFFE
FFFC
FBFC
F9F0
F800
F800
F800
F800
F800
F800
ENDCHAR
STARTCHAR ydieresis
ENCODING 255
SWIDTH 600 0
DWIDTH 19 0
BBX 17 29 1 -6
BITMAP
1E3C00
1F3C00
1F7C00
1F3C00
1E3C00
000000
000000
F80F80
F80F80
7C0F00
7C1F00
3C1E00
3E1E00
3E3E00
1E3C00
1F3C00
0F7800
0F7800
0FF800
07F000
07F000
03E000
03E000
03C000
07C000
7FC000
7F8000
7F0000
7E0000
ENDCHAR
STARTCHAR Amacron
ENCODING 256
SWIDTH 600 0
DWIDTH 19 0
BBX 19 27 0 0
BITMAP
07FC00
07FC00
07FC00
000000
000000
03F800
03F800
03F800
07FC00
07FC00
07BC00
0FBE00
0FBE00
0F3E00
0F1E00
1F1F00
1F1F00
1E1F00
1FFF00
3FFF80
3FFF80
3FFF80
3C0F80
7C07C0
7C07C0
7807C0
F803E0
ENDCHAR
STARTCHAR amacron
ENCODING 257
SWIDTH 600 0
DWIDTH 19 0
BBX 16 22 2 0
BITMAP
3FF0
3FF0
3FF0
0000
0000
0000
0FE0
3FF0
7FF8
FFFC
707C
207C
003C
1FFC
7FFC
FFFC
F03C
F07C
FFFF
FFBF
7F9F
3E0F
ENDCHAR
STARTCHAR Abreve
ENCODING 258
SWIDTH 600 0
DWIDTH 19 0
BBX 19 29 0 0
BITMAP
0E0E00
1E0F00
0F1E00
07FC00
03F800
01F000
000000
03F800
03F800
03F800
07FC00
07FC00
07BC00
0FBE00
0FBE00
0F3E00
0F1E00
1F1F00
1F1F00
1E1F00
1FFF00
3FFF80
3FFF80
3FFF80
3C0F80
7C07C0
7C07C0
7807C0
F803E0
ENDCHAR
STARTCHAR abreve
ENCODING 259
SWIDTH 600 0
DWIDTH 19 0
BBX 16 24 2 0
BITMAP
3030
7878
3C78
3FF0
1FE0
07C0
0000
0000
0FE0
3FF0
7FF8
FFFC
707C
207C
003C
1FFC
7FFC
FFFC
F03C
F07C
FFFF
FFBF
7F9F
3E0F
ENDCHAR
STARTCHAR Aogonek
ENCODING 260
SWIDTH 600 0
DWIDTH 19 0
BBX 20 28 0 -6
BITMAP
03F800
03F800
03F800
07FC00
07FC00
07BC00
0FBE00
0FBE00
0F3E00
0F1E00
1F1F00
1F1F00
1E1F00
1FFF00
3FFF80
3FFF80
3FFF80
3C0FC0
7C07C0
7C07C0
7807C0
F803E0
000180
000700
000E00
000E40
000FF0
0007E0
ENDCHAR
STARTCHAR aogonek
ENCODING 261
SWIDTH 600 0
DWIDTH 19 0
BBX 17 22 2 -6
BITMAP
0FE000
3FF000
7FF800
FFFC00
707C00
207C00
003C00
1FFC00
7FFC00
FFFC00
F03C00
F07C00
FFFF00
FFFF00
7FBF00
3F1F00
000C00
003800
003000
007900
007F80
003F00
ENDCHAR
STARTCHAR Cacute
ENCODING 262
SWIDTH 600 0
DWIDTH 19 0
BBX 17 30 1 0
BITMAP
006000
007800
00FC00
00F000
01E000
01E000
00C000
000000
03F000
0FFC00
1FFE00
3FFE00
3E1F00
7C0F00
7C0F80
7C0800
780000
F80000
F80000
F80000
780000
7C0000
7C1000
7C0F80
7C0F00
3E1F00
3FFF00
1FFE00
0FFC00
03F000
ENDCHAR
STARTCHAR cacute
ENCODING 263
SWIDTH 600 0
DWIDTH 19 0
BBX 15 25 2 0
BITMAP
00E0
00F8
01F0
01E0
03C0
03C0
0180
0000
0000
07E0
1FF8
3FFC
7FFC
7C3E
F810
F800
F800
F800
F800
F818
7C3E
7FFE
3FFC
1FF8
07E0
ENDCHAR
STARTCHAR Ccircumflex
ENCODING 264
SWIDTH 600 0
DWIDTH 19 0
BBX 17 30 1 0
BITMAP
01E000
03F000
07F800
0FFC00
1F3C00
1E1E00
0C0800
000000
03F000
0FFC00
1FFE00
3FFE00
3E1F00
7C0F00
7C0F80
7C0800
780000
F80000
F80000
F80000
780000
7C0000
7C1000
7C0F80
7C0F00
3E1F00
3FFF00
1FFE00
0FFC00
03F000
ENDCHAR
STARTCHAR ccircumflex
ENCODING 265
SWIDTH 600 0
DWIDTH 19 0
BBX 15 25 2 0
BITMAP
03C0
07E0
0FF0
1FF8
3E78
3C3C
0810
0000
0000
07E0
1FF8
3FFC
7FFC
7C3E
F810
F800
F800
F800
F800
F818
7C3E
7FFE
3FFC
1FF8
07E0
ENDCHAR
STARTCHAR Cdotaccent
ENCODING 266
SWIDTH 600 0
DWIDTH 19 0
BBX 17 28 1 0
BITMAP
01E000
03F000
03F000
03F000
01E000
000000
03F000
0FFC00
1FFE00
3FFE00
3E1F00
7C0F00
7C0F80
7C0800
780000
F80000
F80000
F80000
780000
7C0000
7C1000
7C0F80
7C0F00
3E1F00
3FFF00
1FFE00
0FFC00
03F000
ENDCHAR
STARTCHAR cdotaccent
ENCODING 267
SWIDTH 600 0
DWIDTH 19 0
BBX 15 23 2 0
BITMAP
03C0
07E0
07E0
07E0
03C0
0000
0000
07E0
1FF8
3FFC
7FFC
7C3E
F810
F800
F800
F800
F800
F818
7C3E
7FFE
3FFC
1FF8
07E0
ENDCHAR
STARTCHAR Ccaron
ENCODING 268
SWIDTH 600 0
DWIDTH 19 0
BBX 17 30 1 0
BITMAP
040800
1E1C00
1F3E00
0FFC00
07F800
03F000
01E000
000000
03F000
0FFC00
1FFE00
3FFE00
3E1F00
7C0F00
7C0F80
7C0800
780000
F80000
F80000
F80000
780000
7C0000
7C1000
7C0F80
7C0F00
3E1F00
3FFF00
1FFE00
0FFC00
03F000
ENDCHAR
STARTCHAR ccaron
ENCODING 269
SWIDTH 600 0
DWIDTH 19 0
BBX 15 25 2 0
BITMAP
0810
3C3C
3E78
1FF8
0FF0
07E0
03C0
0000
0000
07E0
1FF8
3FFC
7FFC
7C3E
F810
F800
F800
F800
F800
F818
7C3E
7FFE
3FFC
1FF8
07E0
ENDCHAR
STARTCHAR Dcaron
ENCODING 270
SWIDTH 600 0
DWIDTH 19 0
BBX 16 30 2 0
BITMAP
1020
7870
7CF8
3FF0
1FE0
0FC0
0780
0000
FFC0
FFF0
FFF8
FFFC
F87E
F83E
F83E
F81E
F81F
F81F
F81F
F81F
F81F
F81F
F81E
F83E
F83E
F87E
FFFC
FFF8
FFF0
FFC0
ENDCHAR
STARTCHAR dcaron
ENCODING 271
SWIDTH 600 0
DWIDTH 19 0
BBX 19 23 1 0
BITMAP
0079E0
0079E0
0079C0
0079C0
0079C0
0079C0
007980
1E7800
3F7800
7F7800
7FF800
F8F800
F87800
F87800
F87800
F87800
F87800
F87800
F8F800
7FF800
7F7800
3F7800
1E7800
ENDCHAR
STARTCHAR Dcroat
ENCODING 272
SWIDTH 600 0
DWIDTH 19 0
BBX 17 22 1 0
BITMAP
7FE000
7FF800
7FFC00
7FFE00
7C3F00
7C1F00
7C1F00
7C0F00
7C0F80
FF8F80
FF8F80
FF8F80
FF8F80
7C0F80
7C0F00
7C1F00
7C1F00
7C3F00
7FFE00
7FFC00
7FF800
7FE000
ENDCHAR
STARTCHAR dcroat
ENCODING 273
SWIDTH 600 0
DWIDTH 19 0
BBX 18 23 1 0
BITMAP
001F00
001F00
01FFC0
01FFC0
01FFC0
01FFC0
001F00
0F9F00
3FDF00
3FFF00
7FFF00
7C3F00
781F00
F81F00
F81F00
F81F00
F81F00
7C1F00
7C1F00
7FFF00
3FFF00
3FDF00
0F9F00
ENDCHAR
STARTCHAR Emacron
ENCODING 274
SWIDTH 600 0
DWIDTH 19 0
BBX 13 27 3 0
BITMAP
3FE0
3FE0
3FE0
0000
0000
FFF8
FFF8
FFF8
FFF8
F000
F000
F000
F000
F000
FFF8
FFF8
FFF8
FFF8
F000
F000
F000
F000
F000
FFF8
FFF8
FFF8
FFF8
ENDCHAR
STARTCHAR emacron
ENCODING 275
SWIDTH 600 0
DWIDTH 19 0
BBX 15 22 2 0
BITMAP
1FF0
1FF0
1FF0
0000
0000
0000
0FE0
1FF0
3FFC
7FFC
F83E
F01E
FFFE
FFFE
FFFE
F000
F800
FC18
7FFC
7FFE
1FFC
07F0
ENDCHAR
STARTCHAR Ebreve
ENCODING 276
SWIDTH 600 0
DWIDTH 19 0
BBX 13 29 3 0
BITMAP
7070
7078
78F0
3FE0
1FE0
0F80
0000
FFF8
FFF8
FFF8
FFF8
F000
F000
F000
F000
F000
FFF8
FFF8
FFF8
FFF8
F000
F000
F000
F000
F000
FFF8
FFF8
FFF8
FFF8
ENDCHAR
STARTCHAR ebreve
ENCODING 277
SWIDTH 600 0
DWIDTH 19 0
BBX 15 24 2 0
BITMAP
3838
383C
3C78
1FF0
0FE0
07C0
0000
0000
0FE0
1FF0
3FFC
7FFC
F83E
F01E
FFFE
FFFE
FFFE
F000
F800
FC18
7FFC
7FFE
1FFC
07F0
ENDCHAR
STARTCHAR Edotaccent
ENCODING 278
SWIDTH 600 0
DWIDTH 19 0
BBX 13 28 3 0
BITMAP
0780
0F80
0F80
0F80
0780
0000
FFF8
FFF8
FFF8
FFF8
F000
F000
F000
F000
F000
FFF8
FFF8
FFF8
FFF8
F000
F000
F000
F000
F000
FFF8
FFF8
FFF8
FFF8
ENDCHAR
STARTCHAR edotaccent
ENCODING 279
SWIDTH 600 0
DWIDTH 19 0
BBX 15 23 2 0
BITMAP
03C0
07C0
07C0
07C0
0380
0000
0000
0FE0
1FF0
3FFC
7FFC
F83E
F01E
FFFE
FFFE
FFFE
F000
F800
FC18
7FFC
7FFE
1FFC
07F0
ENDCHAR
STARTCHAR Eogonek
ENCODING 280
SWIDTH 600 0
DWIDTH 19 0
BBX 15 28 3 -6
BITMAP
FFFC
FFFC
FFFC
FFFC
F000
F000
F000
F000
F000
FFF8
FFF8
FFF8
FFF8
F000
F000
F000
F000
F000
FFFC
FFFC
FFFC
FFFC
0038
00E0
01C0
01C8
01FC
00FA
ENDCHAR
STARTCHAR eogonek
ENCODING 281
SWIDTH 600 0
DWIDTH 19 0
BBX 15 22 2 -6
BITMAP
0FE0
1FF0
3FFC
7FFC
F83E
F01E
FFFE
FFFE
FFFE
F000
F800
FC18
7FFC
7FFE
1FFC
0FF0
00E0
01C0
0380
0390
03F8
01F0
ENDCHAR
STARTCHAR Ecaron
ENCODING 282
SWIDTH 600 0
DWIDTH 19 0
BBX 13 30 3 0
BITMAP
2020
7070
7CF8
3FE0
1FE0
1FC0
0F80
0000
FFF8
FFF8
FFF8
FFF8
F000
F000
F000
F000
F000
FFF8
FFF8
FFF8
FFF8
F000
F000
F000
F000
F000
FFF8
FFF8
FFF8
FFF8
ENDCHAR
STARTCHAR ecaron
ENCODING 283
SWIDTH 600 0
DWIDTH 19 0
BBX 15 25 2 0
BITMAP
1010
3838
3C7C
1EF0
0FE0
0FE0
07C0
0000
0000
0FE0
1FF0
3FFC
7FFC
F83E
F01E
FFFE
FFFE
FFFE
F000
F800
FC18
7FFC
7FFE
1FFC
07F0
ENDCHAR
STARTCHAR Gcircumflex
ENCODING 284
SWIDTH 600 0
DWIDTH 19 0
BBX 16 30 1 0
BITMAP
03E0
07F0
07F0
0F78
1E3C
1C1E
0808
0000
07F0
0FF8
1FFC
3FFE
7E3E
7C1F
7C1F
7810
F800
F800
F8FF
F8FF
F8FF
F8FF
F80F
7C0F
7C0F
7E1F
3FFF
3FEF
1FCF
0F8F
ENDCHAR
STARTCHAR gcircumflex
ENCODING 285
SWIDTH 600 0
DWIDTH 19 0
BBX 16 31 2 -6
BITMAP
07C0
0FC0
1FE0
1FF0
3CF8
7838
1010
0000
0000
0FFF
3FFF
7FFF
7C7F
F83C
F83C
F83C
7C7C
7FFC
3FF8
1FE0
7000
7FF8
FFFE
7FFF
1FFF
F00F
F00F
FFFF
FFFE
FFFC
3FF0
ENDCHAR
STARTCHAR Gbreve
ENCODING 286
SWIDTH 600 0
DWIDTH 19 0
BBX 16 29 1 0
BITMAP
1C1C
1C1E
1E3C
0FF8
07F0
03E0
0000
07F0
0FF8
1FFC
3FFE
7E3E
7C1F
7C1F
7810
F800
F800
F8FF
F8FF
F8FF
F8FF
F80F
7C0F
7C0F
7E1F
3FFF
3FEF
1FCF
0F8F
ENDCHAR
STARTCHAR gbreve
ENCODING 287
SWIDTH 600 0
DWIDTH 19 0
BBX 16 30 2 -6
BITMAP
3038
7838
3C78
1FF0
1FE0
07C0
0000
0000
0FFF
3FFF
7FFF
7C7F
F83C
F83C
F83C
7C7C
7FFC
3FF8
1FE0
7000
7FF8
FFFE
7FFF
1FFF
F00F
F00F
FFFF
FFFE
FFFC
3FF0
ENDCHAR
STARTCHAR Gdotaccent
ENCODING 288
SWIDTH 600 0
DWIDTH 19 0
BBX 16 28 1 0
BITMAP
01E0
03E0
03E0
03E0
01C0
0000
07F0
0FF8
1FFC
3FFE
7E3E
7C1F
7C1F
7810
F800
F800
F8FF
F8FF
F8FF
F8FF
F80F
7C0F
7C0F
7E1F
3FFF
3FEF
1FCF
0F8F
ENDCHAR
STARTCHAR gdotaccent
ENCODING 289
SWIDTH 600 0
DWIDTH 19 0
BBX 16 29 2 -6
BITMAP
0780
07C0
07C0
07DE
07BE
003E
003E
0FF0
3FF8
7FFC
7C7C
F83C
F83C
F83C
7C7C
7FF8
3FF0
1FC0
7000
7FF8
FFFE
7FFF
1FFF
F00F
F00F
FFFF
FFFE
FFFC
3FF0
ENDCHAR
STARTCHAR Gcommaaccent
ENCODING 290
SWIDTH 600 0
DWIDTH 19 0
BBX 16 31 1 -9
BITMAP
07F0
0FF8
1FFC
3FFE
7E3E
7C1F
7C1F
7810
F800
F800
F8FF
F8FF
F8FF
F8FF
F80F
7C0F
7C0F
7E1F
3FFF
3FEF
1FCF
0F8F
0000
0000
03E0
03C0
03C0
0380
0780
0700
0700
ENDCHAR
STARTCHAR gcommaaccent
ENCODING 291
SWIDTH 600 0
DWIDTH 19 0
BBX 16 31 2 -6
BITMAP
00C0
01C0
01C0
03C0
03C0
07DE
07FE
003E
003E
0FF0
3FF8
7FFC
7C7C
F83C
F83C
F83C
7C7C
7FF8
3FF0
1FC0
7000
7FF8
FFFE
7FFF
1FFF
F00F
F00F
FFFF
FFFE
FFFC
3FF0
ENDCHAR
STARTCHAR Hcircumflex
ENCODING 292
SWIDTH 600 0
DWIDTH 19 0
BBX 15 30 2 0
BITMAP
07C0
0FE0
0FE0
1EF0
3C78
783C
1010
0000
F83E
F83E
F83E
F83E
F83E
F83E
F83E
F83E
F83E
FFFE
FFFE
FFFE
FFFE
F83E
F83E
F83E
F83E
F83E
F83E
F83E
F83E
F83E
ENDCHAR
STARTCHAR hcircumflex
ENCODING 293
SWIDTH 600 0
DWIDTH 19 0
BBX 18 31 -1 0
BITMAP
1F0000
3F8000
3F8000
7BC000
F1E000
E0F000
404000
000000
1F0000
1F0000
1F0000
1F0000
1F0000
1F0000
1F0000
1F1E00
1F7F00
1F7F80
1FFFC0
1F8FC0
1F07C0
1F07C0
1F07C0
1F07C0
1F07C0
1F07C0
1F07C0
1F07C0
1F07C0
1F07C0
1F07C0
ENDCHAR
STARTCHAR Hbar
ENCODING 294
SWIDTH 600 0
DWIDTH 19 0
BBX 19 22 0 0
BITMAP
3E0F80
3E0F80
FFFFE0
FFFFE0
FFFFE0
FFFFE0
3E0F80
3E0F80
3E0F80
3FFF80
3FFF80
3FFF80
3FFF80
3E0F80
3E0F80
3E0F80
3E0F80
3E0F80
3E0F80
3E0F80
3E0F80
3E0F80
ENDCHAR
STARTCHAR hbar
ENCODING 295
SWIDTH 600 0
DWIDTH 19 0
BBX 17 23 0 0
BITMAP
3E0000
3E0000
FFE000
FFE000
FFE000
FFE000
3E0000
3E3C00
3EFE00
3EFF00
3FFF80
3F1F80
3E0F80
3E0F80
3E0F80
3E0F80
3E0F80
3E0F80
3E0F80
3E0F80
3E0F80
3E0F80
3E0F80
ENDCHAR
STARTCHAR Itilde
ENCODING 296
SWIDTH 600 0
DWIDTH 19 0
BBX 14 28 2 0
BITMAP
1F10
3FF8
3FF8
11F0
0000
0000
FFFC
FFFC
FFFC
FFFC
07C0
07C0
07C0
07C0
07C0
07C0
07C0
07C0
07C0
07C0
07C0
07C0
07C0
07C0
FFFC
FFFC
FFFC
FFFC
ENDCHAR
STARTCHAR itilde
ENCODING 297
SWIDTH 600 0
DWIDTH 19 0
BBX 14 22 3 0
BITMAP
1F10
3FF8
3FF8
11F0
0000
0000
FFC0
FFC0
FFC0
FFC0
07C0
07C0
07C0
07C0
07C0
07C0
07C0
07C0
FFFC
FFFC
FFFC
FFFC
ENDCHAR
STARTCHAR Imacron
ENCODING 298
SWIDTH 600 0
DWIDTH 19 0
BBX 14 27 2 0
BITMAP
1FF0
1FF0
1FF0
0000
0000
FFFC
FFFC
FFFC
FFFC
07C0
07C0
07C0
07C0
07C0
07C0
07C0
07C0
07C0
07C0
07C0
07C0
07C0
07C0
FFFC
FFFC
FFFC
FFFC
ENDCHAR
STARTCHAR imacron
ENCODING 299
SWIDTH 600 0
DWIDTH 19 0
BBX 14 22 3 0
BITMAP
1FF0
1FF0
1FF0
0000
0000
0000
FFC0
FFC0
FFC0
FFC0
07C0
07C0
07C0
07C0
07C0
07C0
07C0
07C0
FFFC
FFFC
FFFC
FFFC
ENDCHAR
STARTCHAR Ibreve
ENCODING 300
SWIDTH 600 0
DWIDTH 19 0
BBX 14 29 2 0
BITMAP
3838
783C
3C78
1FF0
0FE0
07C0
0000
FFFC
FFFC
FFFC
FFFC
07C0
07C0
07C0
07C0
07C0
07C0
07C0
07C0
07C0
07C0
07C0
07C0
07C0
07C0
FFFC
FFFC
FFFC
FFFC
ENDCHAR
STARTCHAR ibreve
ENCODING 301
SWIDTH 600 0
DWIDTH 19 0
BBX 14 24 3 0
BITMAP
3838
783C
3C78
1FF0
0FE0
07C0
0000
0000
FFC0
FFC0
FFC0
FFC0
07C0
07C0
07C0
07C0
07C0
07C0
07C0
07C0
FFFC
FFFC
FFFC
FFFC
ENDCHAR
STARTCHAR Iogonek
ENCODING 302
SWIDTH 600 0
DWIDTH 19 0
BBX 14 28 3 -6
BITMAP
FFF8
FFF8
FFF8
FFF8
0F80
0F80
0F80
0F80
0F80
0F80
0F80
0F80
0F80
0F80
0F80
0F80
0F80
0F80
FFF8
FFF8
FFF8
FFF8
0030
00E0
01C0
01C8
01FC
00F8
ENDCHAR
STARTCHAR iogonek
ENCODING 303
SWIDTH 600 0
DWIDTH 19 0
BBX 16 29 3 -6
BITMAP
0780
07C0
07C0
07C0
0380
0000
0000
FFC0
FFC0
FFC0
FFC0
07C0
07C0
07C0
07C0
07C0
07C0
07C0
07C0
FFFE
FFFE
FFFE
FFFE
001C
0070
00E0
00E4
00FE
007D
ENDCHAR
STARTCHAR Idotaccent
ENCODING 304
SWIDTH 600 0
DWIDTH 19 0
BBX 14 28 2 0
BITMAP
0780
07C0
07C0
07C0
03C0
0000
FFFC
FFFC
FFFC
FFFC
07C0
07C0
07C0
07C0
07C0
07C0
07C0
07C0
07C0
07C0
07C0
07C0
07C0
07C0
FFFC
FFFC
FFFC
FFFC
ENDCHAR
STARTCHAR dotlessi
ENCODING 305
SWIDTH 600 0
DWIDTH 19 0
BBX 14 16 3 0
BITMAP
FFC0
FFC0
FFC0
FFC0
07C0
07C0
07C0
07C0
07C0
07C0
07C0
07C0
FFFC
FFFC
FFFC
FFFC
ENDCHAR
STARTCHAR IJ
ENCODING 306
SWIDTH 600 0
DWIDTH 19 0
BBX 14 22 2 0
BITMAP
F83C
F83C
F83C
F83C
F83C
F83C
F83C
F83C
F83C
F83C
F83C
F83C
003C
003C
003C
703C
F83C
FC7C
7FFC
7FF8
3FF0
0FC0
ENDCHAR
STARTCHAR ij
ENCODING 307
SWIDTH 600 0
DWIDTH 19 0
BBX 15 29 2 -6
BITMAP
783C
F87E
FC7E
F87E
783C
0000
0000
F83C
F83C
F83C
F83C
F83C
F83C
F83C
F83C
F83C
F83C
F83C
F83C
F83C
F83C
F83C
F83C
003C
003C
07FC
07FC
07F8
07F0
ENDCHAR
STARTCHAR Jcircumflex
ENCODING 308
SWIDTH 600 0
DWIDTH 19 0
BBX 15 30 1 0
BITMAP
01E0
03F0
07F8
0FFC
0F3E
1E1E
0408
0000
1FFE
1FFE
1FFE
1FFE
003E
003E
003E
003E
003E
003E
003E
003E
003E
003E
003E
383E
F83E
7C7E
7FFC
3FFC
1FF8
07E0
ENDCHAR
STARTCHAR jcircumflex
ENCODING 309
SWIDTH 600 0
DWIDTH 19 0
BBX 15 31 3 -6
BITMAP
03E0
07F0
07F0
0F78
1E3C
3C1E
0808
0000
0000
FFE0
FFE0
FFE0
FFE0
03E0
03E0
03E0
03E0
03E0
03E0
03E0
03E0
03E0
03E0
03E0
03E0
03E0
03E0
FFE0
FFC0
FFC0
FF00
ENDCHAR
STARTCHAR Kcommaaccent
ENCODING 310
SWIDTH 600 0
DWIDTH 19 0
BBX 17 31 2 -9
BITMAP
F81F80
F83F00
F83E00
F87C00
F8F800
F8F800
F9F000
FBE000
FBE000
FFC000
FFE000
FFE000
FFF000
FDF000
FCF800
F8F800
F87C00
F87C00
F83E00
F83F00
F81F00
F81F80
000000
000000
03E000
03C000
07C000
078000
078000
070000
070000
ENDCHAR
STARTCHAR kcommaaccent
ENCODING 311
SWIDTH 600 0
DWIDTH 19 0
BBX 16 32 2 -9
BITMAP
F800
F800
F800
F800
F800
F800
F800
F83F
F87C
F8F8
F9F0
FBE0
FFC0
FFC0
FFC0
FFE0
FDF0
F9F8
F8F8
F87C
F87E
F83E
F81F
0000
0000
07C0
0780
0780
0780
0700
0700
0600
ENDCHAR
STARTCHAR kgreenlandic
ENCODING 312
SWIDTH 600 0
DWIDTH 19 0
BBX 16 16 2 0
BITMAP
F83F
F87C
F8F8
F9F0
FBE0
FBC0
FFC0
FFC0
FFE0
FDF0
F9F8
F8F8
F87C
F87E
F83E
F81F
ENDCHAR
STARTCHAR Lacute
ENCODING 313
SWIDTH 600 0
DWIDTH 19 0
BBX 14 30 3 0
BITMAP
1800
3E00
3C00
7C00
7800
F000
2000
0000
F800
F800
F800
F800
F800
F800
F800
F800
F800
F800
F800
F800
F800
F800
F800
F800
F800
F800
FFFC
FFFC
FFFC
FFFC
ENDCHAR
STARTCHAR lacute
ENCODING 314
SWIDTH 600 0
DWIDTH 19 0
BBX 15 31 2 0
BITMAP
00C0
01F0
01E0
03E0
03C0
0780
0100
0000
FFC0
FFC0
FFC0
FFC0
07C0
07C0
07C0
07C0
07C0
07C0
07C0
07C0
07C0
07C0
07C0
07C0
07C0
07C0
07C0
FFFE
FFFE
FFFE
FFFE
ENDCHAR
STARTCHAR Lcommaaccent
ENCODING 315
SWIDTH 600 0
DWIDTH 19 0
BBX 14 31 3 -9
BITMAP
F800
F800
F800
F800
F800
F800
F800
F800
F800
F800
F800
F800
F800
F800
F800
F800
F800
F800
FFFC
FFFC
FFFC
FFFC
0000
0000
0F80
0F80
0F00
0F00
0E00
0E00
0E00
ENDCHAR
STARTCHAR lcommaaccent
ENCODING 316
SWIDTH 600 0
DWIDTH 19 0
BBX 15 32 2 -9
BITMAP
FFC0
FFC0
FFC0
FFC0
07C0
07C0
07C0
07C0
07C0
07C0
07C0
07C0
07C0
07C0
07C0
07C0
07C0
07C0
07C0
FFFE
FFFE
FFFE
FFFE
0000
0000
07C0
0780
0780
0700
0F00
0F00
0E00
ENDCHAR
STARTCHAR Lcaron
ENCODING 317
SWIDTH 600 0
DWIDTH 19 0
BBX 14 23 3 0
BITMAP
01F0
F9F0
F9F0
F9E0
F9E0
F9E0
F9C0
F800
F800
F800
F800
F800
F800
F800
F800
F800
F800
F800
F800
FFFC
FFFC
FFFC
FFFC
ENDCHAR
STARTCHAR lcaron
ENCODING 318
SWIDTH 600 0
DWIDTH 19 0
BBX 17 23 2 0
BITMAP
FFCF80
FFCF00
FFCF00
FFCF00
07CF00
07CE00
07CE00
07C000
07C000
07C000
07C000
07C000
07C000
07C000
07C000
07C000
07C000
07C000
07C000
FFFE00
FFFE00
FFFE00
FFFE00
ENDCHAR
STARTCHAR Ldot
ENCODING 319
SWIDTH 600 0
DWIDTH 19 0
BBX 14 22 3 0
BITMAP
F800
F800
F800
F800
F800
F800
F800
F800
F800
F878
F8FC
F8FC
F8FC
F878
F800
F800
F800
F800
FFFC
FFFC
FFFC
FFFC
ENDCHAR
STARTCHAR ldot
ENCODING 320
SWIDTH 600 0
DWIDTH 19 0
BBX 17 23 2 0
BITMAP
FF8000
FF8000
FF8000
FF8000
078000
078000
078000
078000
078000
078000
078000
078F00
079F80
079F80
079F80
078F00
078000
078000
078000
FFFC00
FFFC00
FFFC00
FFFC00
ENDCHAR
STARTCHAR Lslash
ENCODING 321
SWIDTH 600 0
DWIDTH 19 0
BBX 16 22 1 0
BITMAP
3E00
3E00
3E00
3E00
3E00
3E00
3E00
3E18
3EF8
3FF8
3FF8
FFE0
FF00
FE00
FE00
3E00
3E00
3E00
3FFF
3FFF
3FFF
3FFF
ENDCHAR
STARTCHAR lslash
ENCODING 322
SWIDTH 600 0
DWIDTH 19 0
BBX 15 23 2 0
BITMAP
FFC0
FFC0
FFC0
FFC0
07C0
07C0
07C0
07C0
07C0
07CC
07FC
1FFC
7FFC
7FF0
7FC0
67C0
07C0
07C0
07C0
FFFE
FFFE
FFFE
FFFE
ENDCHAR
STARTCHAR Nacute
ENCODING 323
SWIDTH 600 0
DWIDTH 19 0
BBX 15 30 2 0
BITMAP
00C0
01F0
01E0
03E0
03C0
0780
0100
0000
FC1E
FC1E
FE1E
FE1E
FE1E
FF1E
FF1E
F71E
F79E
F79E
F39E
F3DE
F3DE
F1DE
F1FE
F1FE
F0FE
F0FE
F0FE
F07E
F07E
F07E
ENDCHAR
STARTCHAR nacute
ENCODING 324
SWIDTH 600 0
DWIDTH 19 0
BBX 15 25 2 0
BITMAP
00C0
01F0
01F0
03E0
03C0
0780
0100
0000
0000
F8F0
FBF8
FBFC
FFFE
FC7E
F83E
F83E
F83E
F83E
F83E
F83E
F83E
F83E
F83E
F83E
F83E
ENDCHAR
STARTCHAR Ncommaaccent
ENCODING 325
SWIDTH 600 0
DWIDTH 19 0
BBX 15 31 2 -9
BITMAP
FC1E
FC1E
FE1E
FE1E
FE1E
FF1E
FF1E
F71E
F79E
F79E
F39E
F3DE
F3DE
F1DE
F1FE
F1FE
F0FE
F0FE
F0FE
F07E
F07E
F07E
0000
0000
07C0
0780
0780
0700
0F00
0F00
0E00
ENDCHAR
STARTCHAR ncommaaccent
ENCODING 326
SWIDTH 600 0
DWIDTH 19 0
BBX 15 25 2 -9
BITMAP
F8F0
FBF8
FBFC
FFFE
FC7E
F83E
F83E
F83E
F83E
F83E
F83E
F83E
F83E
F83E
F83E
F83E
0000
0000
07C0
0780
0780
0700
0700
0F00
0E00
ENDCHAR
STARTCHAR Ncaron
ENCODING 327
SWIDTH 600 0
DWIDTH 19 0
BBX 15 30 2 0
BITMAP
1010
3838
7C7C
1EF0
0FE0
0FE0
07C0
0000
FC1E
FC1E
FE1E
FE1E
FE1E
FF1E
FF1E
F71E
F79E
F79E
F39E
F3DE
F3DE
F1DE
F1FE
F1FE
F0FE
F0FE
F0FE
F07E
F07E
F07E
ENDCHAR
STARTCHAR ncaron
ENCODING 328
SWIDTH 600 0
DWIDTH 19 0
BBX 15 25 2 0
BITMAP
1010
3838
3C7C
1EF0
0FE0
0FE0
07C0
0000
0000
F8F0
FBF8
FBFC
FFFE
FC7E
F83E
F83E
F83E
F83E
F83E
F83E
F83E
F83E
F83E
F83E
F83E
ENDCHAR
STARTCHAR napostrophe
ENCODING 329
SWIDTH 600 0
DWIDTH 19 0
BBX 17 23 0 0
BITMAP
F00000
F00000
F00000
E00000
E00000
E00000
C00000
0F1E00
0F7F00
0F7F80
0FFF80
0F8F80
0F0780
0F0780
0F0780
0F0780
0F0780
0F0780
0F0780
0F0780
0F0780
0F0780
0F0780
ENDCHAR
STARTCHAR Eng
ENCODING 330
SWIDTH 600 0
DWIDTH 19 0
BBX 15 28 2 -6
BITMAP
FC1E
FC1E
FE1E
FE1E
FE1E
FF1E
FF1E
F71E
F79E
F79E
F39E
F3DE
F3DE
F1DE
F1FE
F1FE
F0FE
F0FE
F0FE
F07E
F07E
F07E
001E
001E
0FFE
0FFE
0FFC
0FF8
ENDCHAR
STARTCHAR eng
ENCODING 331
SWIDTH 600 0
DWIDTH 19 0
BBX 15 22 2 -6
BITMAP
F8F0
FBF8
FBFC
FFFE
FC7E
F83E
F83E
F83E
F83E
F83E
F83E
F83E
F83E
F83E
F83E
F83E
003E
003E
07FE
07FE
07FC
07F8
ENDCHAR
STARTCHAR Omacron
ENCODING 332
SWIDTH 600 0
DWIDTH 19 0
BBX 17 27 1 0
BITMAP
0FF800
0FF800
0FF800
000000
000000
07F000
1FFC00
3FFE00
3FFE00
7E3F00
7C1F00
780F00
F80F80
F80F80
F80F80
F80F80
F80F80
F80F80
F80F80
F80F80
780F00
7C1F00
7E3F00
3FFE00
3FFE00
1FFC00
07F000
ENDCHAR
STARTCHAR omacron
ENCODING 333
SWIDTH 600 0
DWIDTH 19 0
BBX 17 22 1 0
BITMAP
0FF800
0FF800
0FF800
000000
000000
000000
07F000
1FFC00
3FFE00
3FFE00
7C3F00
7C1F00
780F00
F80F80
F80F80
780F00
7C1F00
7C1F00
3FFE00
3FFE00
1FFC00
07F000
ENDCHAR
STARTCHAR Obreve
ENCODING 334
SWIDTH 600 0
DWIDTH 19 0
BBX 17 29 1 0
BITMAP
1C1C00
3C1E00
1E3C00
0FF800
07F000
03E000
000000
07F000
1FFC00
3FFE00
3FFE00
7E3F00
7C1F00
780F00
F80F80
F80F80
F80F80
F80F80
F80F80
F80F80
F80F80
F80F80
780F00
7C1F00
7E3F00
3FFE00
3FFE00
1FFC00
07F000
ENDCHAR
STARTCHAR obreve
ENCODING 335
SWIDTH 600 0
DWIDTH 19 0
BBX 17 24 1 0
BITMAP
1C1C00
3C1E00
1E3C00
0FF800
07F000
03E000
000000
000000
07F000
1FFC00
3FFE00
3FFE00
7C3F00
7C1F00
780F00
F80F80
F80F80
780F00
7C1F00
7C1F00
3FFE00
3FFE00
1FFC00
07F000
ENDCHAR
STARTCHAR Ohungarumlaut
ENCODING 336
SWIDTH 600 0
DWIDTH 19 0
BBX 17 30 1 0
BITMAP
030C00
07CF00
079F00
0F1E00
0F3C00
1E3800
041000
000000
07F000
1FFC00
3FFE00
3FFE00
7E3F00
7C1F00
780F00
F80F80
F80F80
F80F80
F80F80
F80F80
F80F80
F80F80
F80F80
780F00
7C1F00
7E3F00
3FFE00
3FFE00
1FFC00
07F000
ENDCHAR
STARTCHAR ohungarumlaut
ENCODING 337
SWIDTH 600 0
DWIDTH 19 0
BBX 17 25 1 0
BITMAP
030C00
07CF00
079F00
0F1E00
0F3C00
1E3800
041000
000000
000000
07F000
1FFC00
3FFE00
3FFE00
7C3F00
7C1F00
780F00
F80F80
F80F80
780F00
7C1F00
7C1F00
3FFE00
3FFE00
1FFC00
07F000
ENDCHAR
STARTCHAR OE
ENCODING 338
SWIDTH 600 0
DWIDTH 19 0
BBX 18 22 0 0
BITMAP
03FFC0
0FFFC0
1FFFC0
3FFFC0
3E7C00
7C7C00
787C00
787C00
787C00
787FC0
F87FC0
F87FC0
787FC0
787C00
787C00
787C00
7C7C00
3E7C00
3FFFC0
1FFFC0
0FFFC0
03FFC0
ENDCHAR
STARTCHAR oe
ENCODING 339
SWIDTH 600 0
DWIDTH 19 0
BBX 17 16 1 0
BITMAP
3E3C00
7F7F00
7FFF00
F3E780
E3C380
E1C380
E1FF80
E1FF80
E1FF80
E1C000
E1C000
E3E380
F3E780
7FFF00
7F7F00
3E3C00
ENDCHAR
STARTCHAR Racute
ENCODING 340
SWIDTH 600 0
DWIDTH 19 0
BBX 15 30 3 0
BITMAP
0180
01E0
03E0
07C0
0780
0F00
0300
0000
FFE0
FFF0
FFF8
FFFC
F07C
F03C
F03E
F03E
F03C
F07C
FFFC
FFF8
FFF0
FFE0
F3E0
F1F0
F1F0
F0F8
F0F8
F07C
F07C
F03E
ENDCHAR
STARTCHAR racute
ENCODING 341
SWIDTH 600 0
DWIDTH 19 0
BBX 15 25 3 0
BITMAP
00C0
01F0
01E0
03C0
03C0
0780
0100
0000
0000
FF1E
FF3E
FF7E
FFFE
1F80
1F00
1F00
1F00
1F00
1F00
1F00
1F00
FFF8
FFF8
FFF8
FFF8
ENDCHAR
STARTCHAR Rcommaaccent
ENCODING 342
SWIDTH 600 0
DWIDTH 19 0
BBX 15 31 3 -9
BITMAP
FFE0
FFF0
FFF8
FFFC
F07C
F03C
F03E
F03E
F03C
F07C
FFFC
FFF8
FFF0
FFE0
F3E0
F1F0
F1F0
F0F8
F0F8
F07C
F07C
F03E
0000
0000
0F80
0F80
0F00
0F00
0E00
0E00
0E00
ENDCHAR
STARTCHAR rcommaaccent
ENCODING 343
SWIDTH 600 0
DWIDTH 19 0
BBX 15 25 3 -9
BITMAP
FF1E
FF3E
FF7E
FFFE
1F80
1F00
1F00
1F00
1F00
1F00
1F00
1F00
FFF8
FFF8
FFF8
FFF8
0000
0000
1F00
1E00
1E00
1C00
3C00
3C00
3800
ENDCHAR
STARTCHAR Rcaron
ENCODING 344
SWIDTH 600 0
DWIDTH 19 0
BBX 15 30 3 0
BITMAP
2020
7870
7CF8
3FE0
1FE0
1FC0
0F80
0000
FFE0
FFF0
FFF8
FFFC
F07C
F03C
F03E
F03E
F03C
F07C
FFFC
FFF8
FFF0
FFE0
F3E0
F1F0
F1F0
F0F8
F0F8
F07C
F07C
F03E
ENDCHAR
STARTCHAR rcaron
ENCODING 345
SWIDTH 600 0
DWIDTH 19 0
BBX 15 25 3 0
BITMAP
1010
3838
7C78
1EF0
1FE0
0FC0
07C0
0000
0000
FF1E
FF3E
FF7E
FFFE
1F80
1F00
1F00
1F00
1F00
1F00
1F00
1F00
FFF8
FFF8
FFF8
FFF8
ENDCHAR
STARTCHAR Sacute
ENCODING 346
SWIDTH 600 0
DWIDTH 19 0
BBX 16 30 1 0
BITMAP
0060
0078
00F8
00F0
01E0
01C0
02C0
0000
07F0
1FFC
3FFF
3FFF
7E1E
7C04
7C00
7C00
7F00
3FF8
3FFE
1FFE
03FF
003F
000F
200F
300F
7C1F
FFFF
7FFE
3FFC
07F0
ENDCHAR
STARTCHAR sacute
ENCODING 347
SWIDTH 600 0
DWIDTH 19 0
BBX 15 25 2 0
BITMAP
00C0
00F0
01F0
01E0
03C0
0380
0580
0000
0000
0FE0
3FF8
7FFE
7FFC
7818
7800
7FC0
7FF8
3FFC
0FFE
003E
703E
FFFC
FFFC
7FF8
0FE0
ENDCHAR
STARTCHAR Scircumflex
ENCODING 348
SWIDTH 600 0
DWIDTH 19 0
BBX 16 30 1 0
BITMAP
03E0
03F0
07F8
0F78
1E3C
1C1E
0808
0000
07F0
1FFC
3FFF
3FFF
7E1E
7C04
7C00
7C00
7F00
3FF8
3FFE
1FFE
03FF
003F
000F
200F
300F
7C1F
FFFF
7FFE
3FFC
07F0
ENDCHAR
STARTCHAR scircumflex
ENCODING 349
SWIDTH 600 0
DWIDTH 19 0
BBX 15 25 2 0
BITMAP
07C0
07E0
0FF0
1EF0
3C78
383C
1010
0000
0000
0FE0
3FF8
7FFE
7FFC
7818
7800
7FC0
7FF8
3FFC
0FFE
003E
703E
FFFC
FFFC
7FF8
0FE0
ENDCHAR
STARTCHAR Scedilla
ENCODING 350
SWIDTH 600 0
DWIDTH 19 0
BBX 16 28 1 -6
BITMAP
07F0
1FFE
3FFF
3FFF
7E1E
7C04
7C00
7C00
7F00
3FF8
3FFE
1FFE
07FF
003F
000F
200F
300F
7C1F
FFFF
7FFE
3FFC
07F0
0180
01F0
0078
0238
07F0
03E0
ENDCHAR
STARTCHAR scedilla
ENCODING 351
SWIDTH 600 0
DWIDTH 19 0
BBX 15 22 2 -6
BITMAP
0FE0
3FFC
7FFE
7FFC
7818
7E00
7FF0
7FF8
3FFC
0FFE
003E
703E
FFFC
FFFC
7FF8
1FE0
0300
03E0
00F0
0470
0FE0
07C0
ENDCHAR
STARTCHAR Scaron
ENCODING 352
SWIDTH 600 0
DWIDTH 19 0
BBX 16 30 1 0
BITMAP
0C08
1E1C
1F3E
0FF8
07F8
03F0
03E0
0000
07F0
1FFC
3FFF
3FFF
7E1E
7C04
7C00
7C00
7F00
3FF8
3FFE
1FFE
03FF
003F
000F
200F
300F
7C1F
FFFF
7FFE
3FFC
07F0
ENDCHAR
STARTCHAR scaron
ENCODING 353
SWIDTH 600 0
DWIDTH 19 0
BBX 15 25 2 0
BITMAP
1010
3838
3E7C
1FF0
0FF0
07E0
07C0
0000
0000
0FE0
3FF8
7FFE
7FFC
7818
7800
7FC0
7FF8
3FFC
0FFE
003E
703E
FFFC
FFFC
7FF8
0FE0
ENDCHAR
STARTCHAR uni0162
ENCODING 354
SWIDTH 600 0
DWIDTH 19 0
BBX 17 31 1 -9
BITMAP
FFFF80
FFFF80
FFFF80
FFFF80
03E000
03E000
03E000
03E000
03E000
03E000
03E000
03E000
03E000
03E000
03E000
03E000
03E000
03E000
03E000
03E000
03E000
03E000
000000
000000
03E000
03C000
03C000
038000
078000
078000
070000
ENDCHAR
STARTCHAR uni0163
ENCODING 355
SWIDTH 600 0
DWIDTH 19 0
BBX 15 31 2 -9
BITMAP
0F00
0F00
0F00
0F00
0F00
0F00
FFFE
FFFE
FFFE
FFFE
0F00
0F00
0F00
0F00
0F00
0F00
0F00
0F00
0FFE
0FFE
07FE
03FE
0000
0000
01F0
01E0
01E0
03C0
03C0
0380
0380
ENDCHAR
STARTCHAR Tcaron
ENCODING 356
SWIDTH 600 0
DWIDTH 19 0
BBX 17 30 1 0
BITMAP
080800
1C1C00
3E3E00
0F7800
07F000
07F000
03E000
000000
FFFF80
FFFF80
FFFF80
FFFF80
03E000
03E000
03E000
03E000
03E000
03E000
03E000
03E000
03E000
03E000
03E000
03E000
03E000
03E000
03E000
03E000
03E000
03E000
ENDCHAR
STARTCHAR tcaron
ENCODING 357
SWIDTH 600 0
DWIDTH 19 0
BBX 16 24 2 0
BITMAP
001F
001E
0F1E
0F1E
0F1C
0F1C
0F3C
0F00
FFFE
FFFE
FFFE
FFFE
0F00
0F00
0F00
0F00
0F00
0F00
0F00
0F00
0FFE
0FFE
07FE
03FE
ENDCHAR
STARTCHAR Tbar
ENCODING 358
SWIDTH 600 0
DWIDTH 19 0
BBX 17 22 1 0
BITMAP
FFFF80
FFFF80
FFFF80
FFFF80
03E000
03E000
03E000
03E000
03E000
3FFE00
3FFE00
3FFE00
3FFE00
03E000
03E000
03E000
03E000
03E000
03E000
03E000
03E000
03E000
ENDCHAR
STARTCHAR tbar
ENCODING 359
SWIDTH 600 0
DWIDTH 19 0
BBX 15 22 2 0
BITMAP
0F00
0F00
0F00
0F00
0F00
0F00
FFFE
FFFE
FFFE
FFFE
0F00
0F00
7FF8
7FF8
7FF8
0F00
0F00
0F00
0FFE
0FFE
07FE
03FE
ENDCHAR
STARTCHAR Utilde
ENCODING 360
SWIDTH 600 0
DWIDTH 19 0
BBX 15 28 2 0
BITMAP
1F10
3FF8
3FF8
11F0
0000
0000
F83E
F83E
F83E
F83E
F83E
F83E
F83E
F83E
F83E
F83E
F83E
F83E
F83E
F83E
F83E
F83E
F83E
FC7E
7FFC
7FFC
3FF8
0FE0
ENDCHAR
STARTCHAR utilde
ENCODING 361
SWIDTH 600 0
DWIDTH 19 0
BBX 15 22 2 0
BITMAP
1F10
3FF8
3FF8
11F0
0000
0000
F83E
F83E
F83E
F83E
F83E
F83E
F83E
F83E
F83E
F83E
F83E
FC7E
FFFE
7FBE
3FBE
1F3E
ENDCHAR
STARTCHAR Umacron
ENCODING 362
SWIDTH 600 0
DWIDTH 19 0
BBX 15 27 2 0
BITMAP
1FF0
1FF0
1FF0
0000
0000
F83E
F83E
F83E
F83E
F83E
F83E
F83E
F83E
F83E
F83E
F83E
F83E
F83E
F83E
F83E
F83E
F83E
FC7E
7FFC
7FFC
3FF8
0FE0
ENDCHAR
STARTCHAR umacron
ENCODING 363
SWIDTH 600 0
DWIDTH 19 0
BBX 15 22 2 0
BITMAP
1FF0
1FF0
1FF0
0000
0000
0000
F83E
F83E
F83E
F83E
F83E
F83E
F83E
F83E
F83E
F83E
F83E
FC7E
FFFE
7FBE
3FBE
1F3E
ENDCHAR
STARTCHAR Ubreve
ENCODING 364
SWIDTH 600 0
DWIDTH 19 0
BBX 15 29 2 0
BITMAP
3838
783C
3C78
1FF0
0FE0
07C0
0000
F83E
F83E
F83E
F83E
F83E
F83E
F83E
F83E
F83E
F83E
F83E
F83E
F83E
F83E
F83E
F83E
F83E
FC7E
7FFC
7FFC
3FF8
0FE0
ENDCHAR
STARTCHAR ubreve
ENCODING 365
SWIDTH 600 0
DWIDTH 19 0
BBX 15 24 2 0
BITMAP
3838
7838
3C78
1FF0
0FE0
07C0
0000
0000
F83E
F83E
F83E
F83E
F83E
F83E
F83E
F83E
F83E
F83E
F83E
FC7E
FFFE
7FBE
3FBE
1F3E
ENDCHAR
STARTCHAR Uring
ENCODING 366
SWIDTH 600 0
DWIDTH 19 0
BBX 15 32 2 0
BITMAP
07C0
0FE0
1C70
1C70
1C70
1C70
1C70
0FE0
07C0
0000
F83E
F83E
F83E
F83E
F83E
F83E
F83E
F83E
F83E
F83E
F83E
F83E
F83E
F83E
F83E
F83E
F83E
FC7E
7FFC
7FFC
3FF8
0FE0
ENDCHAR
STARTCHAR uring
ENCODING 367
SWIDTH 600 0
DWIDTH 19 0
BBX 15 26 2 0
BITMAP
07C0
0FE0
1C70
1C70
1C70
1C70
1C70
0FE0
07C0
0000
F83E
F83E
F83E
F83E
F83E
F83E
F83E
F83E
F83E
F83E
F83E
FC7E
FFFE
7FBE
3FBE
1F3E
ENDCHAR
STARTCHAR Uhungarumlaut
ENCODING 368
SWIDTH 600 0
DWIDTH 19 0
BBX 15 30 2 0
BITMAP
0618
0F9E
0F3E
1E3C
1E78
3C70
0820
0000
F83E
F83E
F83E
F83E
F83E
F83E
F83E
F83E
F83E
F83E
F83E
F83E
F83E
F83E
F83E
F83E
F83E
FC7E
7FFC
7FFC
3FF8
0FE0
ENDCHAR
STARTCHAR uhungarumlaut
ENCODING 369
SWIDTH 600 0
DWIDTH 19 0
BBX 15 25 2 0
BITMAP
0618
0F9E
0F3C
1E3C
1E78
3C70
0820
0000
0000
F83E
F83E
F83E
F83E
F83E
F83E
F83E
F83E
F83E
F83E
F83E
FC7E
FFFE
7FBE
3FBE
1F3E
ENDCHAR
STARTCHAR Uogonek
ENCODING 370
SWIDTH 600 0
DWIDTH 19 0
BBX 15 28 2 -6
BITMAP
F83E
F83E
F83E
F83E
F83E
F83E
F83E
F83E
F83E
F83E
F83E
F83E
F83E
F83E
F83E
F83E
F83E
FC7E
7FFC
7FFC
3FF8
0FF0
00C0
0380
0700
0720
07F0
03F8
ENDCHAR
STARTCHAR uogonek
ENCODING 371
SWIDTH 600 0
DWIDTH 19 0
BBX 16 22 2 -6
BITMAP
F83E
F83E
F83E
F83E
F83E
F83E
F83E
F83E
F83E
F83E
F83E
FC7E
FFFE
7FBE
3FBE
1F1E
003C
0070
00E0
00E2
00FF
003E
ENDCHAR
STARTCHAR Wcircumflex
ENCODING 372
SWIDTH 600 0
DWIDTH 19 0
BBX 17 30 1 0
BITMAP
03E000
07F000
07F000
0F7800
1E3C00
3C1E00
080800
000000
F00380
F00380
F00780
F00780
F00780
F3E780
F3E780
F3E780
F3E780
F3E780
F36780
F77780
F77780
F77780
F77780
F77780
773700
7E3F00
7E3F00
7E3F00
7E3F00
7E3F00
ENDCHAR
STARTCHAR wcircumflex
ENCODING 373
SWIDTH 600 0
DWIDTH 19 0
BBX 19 25 0 0
BITMAP
01F000
03F800
03F800
07BC00
0F1E00
1E0F00
040400
000000
000000
F1F1E0
71F1C0
71F1C0
79F1C0
79F1C0
79B3C0
79BBC0
7BBBC0
7BBBC0
3BBB80
3BBB80
3B1B80
3B1B80
3F1F80
3F1F80
3F1F80
ENDCHAR
STARTCHAR Ycircumflex
ENCODING 374
SWIDTH 600 0
DWIDTH 19 0
BBX 19 30 0 0
BITMAP
01F000
03F800
03F800
07BC00
0F1E00
1E0F00
040400
000000
FC07E0
7C07C0
3E0F80
3E0F80
1F0F00
1F1F00
0F1E00
0FBE00
07BC00
07FC00
03F800
03F800
01F000
01F000
01F000
01F000
01F000
01F000
01F000
01F000
01F000
01F000
ENDCHAR
STARTCHAR ycircumflex
ENCODING 375
SWIDTH 600 0
DWIDTH 19 0
BBX 17 31 1 -6
BITMAP
03E000
07F000
07F800
0F7800
1E3C00
1C1E00
080800
000000
000000
F80F80
F80F80
7C0F00
7C1F00
3C1E00
3E1E00
3E3E00
1E3C00
1F3C00
0F7800
0F7800
0FF800
07F000
07F000
03E000
03E000
03C000
07C000
7FC000
7F8000
7F0000
7E0000
ENDCHAR
STARTCHAR Ydieresis
ENCODING 376
SWIDTH 600 0
DWIDTH 19 0
BBX 19 29 0 0
BITMAP
0F1E00
0FBE00
0FBE00
0FBE00
0F1E00
000000
000000
FC07E0
7C07C0
3E0F80
3E0F80
1F0F00
1F1F00
0F1E00
0FBE00
07BC00
07FC00
03F800
03F800
01F000
01F000
01F000
01F000
01F000
01F000
01F000
01F000
01F000
01F000
ENDCHAR
STARTCHAR Zacute
ENCODING 377
SWIDTH 600 0
DWIDTH 19 0
BBX 15 30 2 0
BITMAP
00C0
01F0
01E0
03E0
03C0
0780
0100
0000
FFFE
FFFE
FFFE
FFFE
007E
007C
00F8
01F8
01F0
03E0
07C0
0FC0
0F80
1F00
3F00
7E00
7C00
F800
FFFE
FFFE
FFFE
FFFE
ENDCHAR
STARTCHAR zacute
ENCODING 378
SWIDTH 600 0
DWIDTH 19 0
BBX 15 25 2 0
BITMAP
00C0
01F0
01E0
03E0
03C0
0780
0100
0000
0000
7FFC
7FFC
7FFC
7FFC
007C
01F8
03F0
07E0
0FC0
1F00
3E00
7C00
FFFE
FFFE
FFFE
FFFE
ENDCHAR
STARTCHAR Zdotaccent
ENCODING 379
SWIDTH 600 0
DWIDTH 19 0
BBX 15 28 2 0
BITMAP
0780
07C0
07C0
07C0
03C0
0000
FFFE
FFFE
FFFE
FFFE
007E
007C
00F8
01F8
01F0
03E0
07C0
0FC0
0F80
1F00
3F00
7E00
7C00
F800
FFFE
FFFE
FFFE
FFFE
ENDCHAR
STARTCHAR zdotaccent
ENCODING 380
SWIDTH 600 0
DWIDTH 19 0
BBX 15 23 2 0
BITMAP
0780
07C0
07C0
07C0
03C0
0000
0000
7FFC
7FFC
7FFC
7FFC
007C
01F8
03F0
07E0
0FC0
1F00
3E00
7C00
FFFE
FFFE
FFFE
FFFE
ENDCHAR
STARTCHAR Zcaron
ENCODING 381
SWIDTH 600 0
DWIDTH 19 0
BBX 15 30 2 0
BITMAP
1010
3838
7C7C
1EF0
0FE0
0FE0
07C0
0000
FFFE
FFFE
FFFE
FFFE
007E
007C
00F8
01F8
01F0
03E0
07C0
0FC0
0F80
1F00
3F00
7E00
7C00
F800
FFFE
FFFE
FFFE
FFFE
ENDCHAR
STARTCHAR zcaron
ENCODING 382
SWIDTH 600 0
DWIDTH 19 0
BBX 15 25 2 0
BITMAP
1010
3838
7C7C
1EF0
0FE0
0FE0
07C0
0000
0000
7FFC
7FFC
7FFC
7FFC
007C
01F8
03F0
07E0
0FC0
1F00
3E00
7C00
FFFE
FFFE
FFFE
FFFE
ENDCHAR
STARTCHAR uni018F
ENCODING 399
SWIDTH 600 0
DWIDTH 19 0
BBX 17 22 1 0
BITMAP
07F000
1FFC00
3FFE00
3FFE00
7E3F00
7C1F00
780F00
080F80
000F80
FFFF80
FFFF80
FFFF80
FFFF80
F80F80
F80F80
780F00
781F00
7C1F00
3FFE00
3FFE00
1FFC00
07F000
ENDCHAR
STARTCHAR florin
ENCODING 402
SWIDTH 600 0
DWIDTH 19 0
BBX 20 28 -1 -6
BITMAP
000FF0
003FF0
003FF0
007FF0
007C00
007C00
007C00
007800
0FFFE0
1FFFC0
1FFFC0
1FFFC0
00F800
00F000
00F000
01F000
01F000
01F000
01F000
01E000
01E000
03E000
03E000
03E000
FFC000
FFC000
FF8000
FF0000
ENDCHAR
STARTCHAR Ohorn
ENCODING 416
SWIDTH 600 0
DWIDTH 19 0
BBX 18 25 1 0
BITMAP
0003C0
0003C0
0003C0
07FFC0
1FFF80
3FFF80
3FFE00
7E3F00
7C1F00
780F80
F80F80
F80F80
F80F80
F80F80
F80F80
F80F80
F80F80
F80F80
780F00
7C1F00
7E3F00
3FFE00
3FFE00
1FFC00
07F000
ENDCHAR
STARTCHAR ohorn
ENCODING 417
SWIDTH 600 0
DWIDTH 19 0
BBX 17 19 1 0
BITMAP
000780
000780
000780
07FF80
1FFF80
3FFF80
3FFF00
7C3E00
7C1F00
780F00
F80F00
F80F80
780F00
7C1F00
7C1F00
3FFF00
3FFE00
1FFC00
07F000
ENDCHAR
STARTCHAR Uhorn
ENCODING 431
SWIDTH 600 0
DWIDTH 19 0
BBX 17 26 2 0
BITMAP
000780
000780
000780
000780
F83F80
F83F80
F83F00
F83E00
F83E00
F83E00
F83E00
F83E00
F83E00
F83E00
F83E00
F83E00
F83E00
F83E00
F83E00
F83E00
F83E00
FC7E00
7FFC00
7FFC00
3FF800
0FE000
ENDCHAR
STARTCHAR uhorn
ENCODING 432
SWIDTH 600 0
DWIDTH 19 0
BBX 17 20 2 0
BITMAP
000780
000780
000780
000780
F83F80
F83F00
F83F00
F83E00
F83E00
F83E00
F83E00
F83E00
F83E00
F83E00
F83E00
FC7E00
FFFE00
7FBE00
3FBE00
1F3E00
ENDCHAR
STARTCHAR Aringacute
ENCODING 506
SWIDTH 600 0
DWIDTH 19 0
BBX 19 35 0 0
BITMAP
001000
003800
00FC00
00F000
004000
000000
01F000
03F800
071C00
071C00
071C00
03F800
01F000
03F800
03F800
03F800
07FC00
07FC00
07BC00
0FBE00
0FBE00
0F3E00
0F1E00
1F1F00
1F1F00
1E1F00
1FFF00
3FFF80
3FFF80
3FFF80
3C0F80
7C07C0
7C07C0
7807C0
F803E0
ENDCHAR
STARTCHAR aringacute
ENCODING 507
SWIDTH 600 0
DWIDTH 19 0
BBX 16 30 2 0
BITMAP
00C0
01E0
03F0
0780
0100
0000
07C0
1FE0
1C70
1C70
1C70
1FE0
07C0
0000
0FE0
3FF0
7FF8
FFFC
707C
207C
003C
1FFC
7FFC
FFFC
F03C
F07C
FFFF
FFBF
7F9F
3E0F
ENDCHAR
STARTCHAR AEacute
ENCODING 508
SWIDTH 600 0
DWIDTH 19 0
BBX 18 30 0 0
BITMAP
000C00
001F00
001E00
003E00
003C00
007800
001000
000000
07FFC0
07FFC0
0FFFC0
0FFFC0
0F7800
0F7800
0F7800
1E7800
1E7800
1E7FC0
1E7FC0
3E7FC0
3C7FC0
3FF800
3FF800
7FF800
7FF800
787800
787FC0
787FC0
F87FC0
F87FC0
ENDCHAR
STARTCHAR aeacute
ENCODING 509
SWIDTH 600 0
DWIDTH 19 0
BBX 18 25 0 0
BITMAP
003000
007C00
007800
00F800
00F000
01E000
004000
000000
000000
1F1E00
3FBF80
7FFF80
71F3C0
31E1C0
01E1C0
01FFC0
1FFFC0
7FFFC0
7FE000
F1E000
F1E1C0
F1F3C0
7F7F80
7E7F80
3C1E00
ENDCHAR
STARTCHAR Oslashacute
ENCODING 510
SWIDTH 600 0
DWIDTH 19 0
BBX 17 32 1 -2
BITMAP
006000
00F800
00F000
01F000
01E000
03C000
008200
000300
07F780
1FFF00
3FFF00
3FFE00
7E3F00
7C3F00
783F80
F87F80
F8FF80
F8EF80
F9EF80
FBCF80
FB8F80
FF8F80
FF0F80
FE0F00
7E1F00
7E3F00
3FFE00
7FFE00
7FFC00
F7F000
600000
200000
ENDCHAR
STARTCHAR oslashacute
ENCODING 511
SWIDTH 600 0
DWIDTH 19 0
BBX 17 27 1 -2
BITMAP
006000
00F800
00F000
01F000
01E000
03C000
008000
000200
000300
07F780
1FFF00
3FFE00
3FFE00
7C3F00
787F00
78FF00
F9EF80
FBCF80
7F8F00
7F1F00
7E1F00
3FFE00
3FFE00
7FFC00
F7F000
600000
400000
ENDCHAR
STARTCHAR Scommaaccent
ENCODING 536
SWIDTH 600 0
DWIDTH 19 0
BBX 16 31 1 -9
BITMAP
07F0
1FFC
3FFF
3FFF
7E1E
7C04
7C00
7C00
7F00
3FF8
3FFE
1FFE
03FF
003F
000F
200F
300F
7C1F
FFFF
7FFE
3FFC
07F0
0000
0000
03E0
07C0
07C0
0780
0780
0700
0700
ENDCHAR
STARTCHAR scommaaccent
ENCODING 537
SWIDTH 600 0
DWIDTH 19 0
BBX 15 25 2 -9
BITMAP
0FE0
3FF8
7FFE
7FFC
7818
7800
7FC0
7FF8
3FFC
0FFE
003E
703E
FFFC
FFFC
7FF8
0FE0
0000
0000
07C0
0780
0F80
0F00
0F00
0E00
0E00
ENDCHAR
STARTCHAR uni021A
ENCODING 538
SWIDTH 600 0
DWIDTH 19 0
BBX 17 31 1 -9
BITMAP
FFFF80
FFFF80
FFFF80
FFFF80
03E000
03E000
03E000
03E000
03E000
03E000
03E000
03E000
03E000
03E000
03E000
03E000
03E000
03E000
03E000
03E000
03E000
03E000
000000
000000
03E000
03C000
03C000
038000
078000
078000
070000
ENDCHAR
STARTCHAR uni021B
ENCODING 539
SWIDTH 600 0
DWIDTH 19 0
BBX 15 31 2 -9
BITMAP
0F00
0F00
0F00
0F00
0F00
0F00
FFFE
FFFE
FFFE
FFFE
0F00
0F00
0F00
0F00
0F00
0F00
0F00
0F00
0FFE
0FFE
07FE
03FE
0000
0000
01F0
01E0
01E0
03C0
03C0
0380
0380
ENDCHAR
STARTCHAR uni0237
ENCODING 567
SWIDTH 600 0
DWIDTH 19 0
BBX 11 22 3 -6
BITMAP
FFE0
FFE0
FFE0
FFE0
03E0
03E0
03E0
03E0
03E0
03E0
03E0
03E0
03E0
03E0
03E0
03E0
03E0
03E0
FFE0
FFC0
FFC0
FF00
ENDCHAR
STARTCHAR uni0259
ENCODING 601
SWIDTH 600 0
DWIDTH 19 0
BBX 15 16 2 0
BITMAP
0FC0
3FF0
FFF8
7FFC
307E
003E
001E
FFFE
FFFE
FFFE
F01E
F83E
7FFC
7FF8
3FF0
0FE0
ENDCHAR
STARTCHAR uni02BB
ENCODING 699
SWIDTH 600 0
DWIDTH 19 0
BBX 5 7 7 18
BITMAP
18
38
38
78
78
78
F8
ENDCHAR
STARTCHAR uni02BC
ENCODING 700
SWIDTH 600 0
DWIDTH 19 0
BBX 6 7 4 16
BITMAP
7C
78
78
78
70
F0
F0
ENDCHAR
STARTCHAR circumflex
ENCODING 710
SWIDTH 600 0
DWIDTH 19 0
BBX 13 7 3 18
BITMAP
0F80
1FC0
1FC0
3DE0
78F0
F078
2020
ENDCHAR
STARTCHAR caron
ENCODING 711
SWIDTH 600 0
DWIDTH 19 0
BBX 13 7 3 18
BITMAP
2020
7070
F8F8
3DE0
1FC0
1FC0
0F80
ENDCHAR
STARTCHAR breve
ENCODING 728
SWIDTH 600 0
DWIDTH 19 0
BBX 13 6 3 18
BITMAP
7070
F078
78F0
3FE0
1FC0
0F80
ENDCHAR
STARTCHAR dotaccent
ENCODING 729
SWIDTH 600 0
DWIDTH 19 0
BBX 5 5 7 18
BITMAP
F0
F8
F8
F8
78
ENDCHAR
STARTCHAR ring
ENCODING 730
SWIDTH 600 0
DWIDTH 19 0
BBX 9 9 5 17
BITMAP
3E00
7F00
E380
E380
E380
E380
E380
7F00
3E00
ENDCHAR
STARTCHAR ogonek
ENCODING 731
SWIDTH 600 0
DWIDTH 19 0
BBX 8 7 3 -6
BITMAP
1C
3A
70
E0
E4
FE
7D
ENDCHAR
STARTCHAR tilde
ENCODING 732
SWIDTH 600 0
DWIDTH 19 0
BBX 11 4 4 18
BITMAP
7C40
FFE0
FFE0
47C0
ENDCHAR
STARTCHAR hungarumlaut
ENCODING 733
SWIDTH 600 0
DWIDTH 19 0
BBX 13 7 4 18
BITMAP
1860
3E78
3CF8
78F0
79E0
F1C0
2080
ENDCHAR
STARTCHAR uni0300
ENCODING 768
SWIDTH 0 0
DWIDTH 0 0
BBX 6 7 -4 18
BITMAP
30
F0
F8
78
3C
1C
18
ENDCHAR
STARTCHAR uni0301
ENCODING 769
SWIDTH 0 0
DWIDTH 0 0
BBX 7 7 -2 18
BITMAP
18
3E
3C
78
78
F0
20
ENDCHAR
STARTCHAR uni0302
ENCODING 770
SWIDTH 0 0
DWIDTH 0 0
BBX 12 7 -6 18
BITMAP
0F80
1F80
3FC0
3FE0
79F0
F0F0
2060
ENDCHAR
STARTCHAR uni0303
ENCODING 771
SWIDTH 0 0
DWIDTH 0 0
BBX 12 4 -6 18
BITMAP
3C20
7FF0
FFF0
23E0
ENDCHAR
STARTCHAR uni0304
ENCODING 772
SWIDTH 0 0
DWIDTH 0 0
BBX 10 3 -5 19
BITMAP
FFC0
FFC0
FFC0
ENDCHAR
STARTCHAR uni0306
ENCODING 774
SWIDTH 0 0
DWIDTH 0 0
BBX 12 6 -6 18
BITMAP
6060
F0F0
78F0
7FE0
3FC0
0F80
ENDCHAR
STARTCHAR uni0307
ENCODING 775
SWIDTH 0 0
DWIDTH 0 0
BBX 6 5 -3 18
BITMAP
78
7C
FC
7C
78
ENDCHAR
STARTCHAR uni0308
ENCODING 776
SWIDTH 0 0
DWIDTH 0 0
BBX 12 5 -6 18
BITMAP
78E0
F9F0
F9F0
F9F0
78E0
ENDCHAR
STARTCHAR uni0309
ENCODING 777
SWIDTH 0 0
DWIDTH 0 0
BBX 8 7 -4 17
BITMAP
FE
FF
FF
0F
1E
1C
0C
ENDCHAR
STARTCHAR uni030A
ENCODING 778
SWIDTH 0 0
DWIDTH 0 0
BBX 9 9 -4 17
BITMAP
3C00
7F00
E700
E380
E380
E380
E700
7F00
3C00
ENDCHAR
STARTCHAR uni030B
ENCODING 779
SWIDTH 0 0
DWIDTH 0 0
BBX 13 7 -5 18
BITMAP
1860
3EF8
3CF0
79F0
71E0
F3C0
6080
ENDCHAR
STARTCHAR uni030C
ENCODING 780
SWIDTH 0 0
DWIDTH 0 0
BBX 12 7 -6 18
BITMAP
2020
7070
F9F0
3FE0
3FC0
1F80
0F80
ENDCHAR
STARTCHAR uni0312
ENCODING 786
SWIDTH 0 0
DWIDTH 0 0
BBX 5 7 -2 18
BITMAP
38
38
38
78
78
F8
F8
ENDCHAR
STARTCHAR uni0315
ENCODING 789
SWIDTH 0 0
DWIDTH 0 0
BBX 5 7 0 16
BITMAP
F8
F8
F8
F0
F0
F0
E0
ENDCHAR
STARTCHAR uni031B
ENCODING 795
SWIDTH 0 0
DWIDTH 0 0
BBX 8 7 -4 13
BITMAP
0F
0F
0F
0F
FF
FF
FE
ENDCHAR
STARTCHAR uni0323
ENCODING 803
SWIDTH 0 0
DWIDTH 0 0
BBX 6 5 -3 -7
BITMAP
78
78
FC
78
78
ENDCHAR
STARTCHAR uni0326
ENCODING 806
SWIDTH 0 0
DWIDTH 0 0
BBX 5 7 -3 -9
BITMAP
78
F8
F0
F0
F0
E0
E0
ENDCHAR
STARTCHAR uni0327
ENCODING 807
SWIDTH 0 0
DWIDTH 0 0
BBX 8 8 -3 -7
BITMAP
30
30
30
3E
0F
4F
FE
7C
ENDCHAR
STARTCHAR uni0328
ENCODING 808
SWIDTH 0 0
DWIDTH 0 0
BBX 7 7 -6 -6
BITMAP
1C
38
70
E0
E4
FE
7C
ENDCHAR
STARTCHAR pi
ENCODING 960
SWIDTH 600 0
DWIDTH 19 0
BBX 17 16 1 0
BITMAP
FFFF80
FFFF80
FFFF80
FFFF80
3C1E00
3C1E00
3C1E00
3C1E00
3C1E00
3C1E00
3C1E00
3C1E00
3C1F80
3C1F80
3C0F80
3C0780
ENDCHAR
STARTCHAR uni0400
ENCODING 1024
SWIDTH 600 0
DWIDTH 19 0
BBX 13 30 3 0
BITMAP
0C00
3E00
1E00
1F00
0F00
0780
0200
0000
FFF8
FFF8
FFF8
FFF8
F000
F000
F000
F000
F000
FFF8
FFF8
FFF8
FFF8
F000
F000
F000
F000
F000
FFF8
FFF8
FFF8
FFF8
ENDCHAR
STARTCHAR uni0401
ENCODING 1025
SWIDTH 600 0
DWIDTH 19 0
BBX 13 29 3 0
BITMAP
78F0
7CF0
7DF0
7CF0
78F0
0000
0000
FFF8
FFF8
FFF8
FFF8
F000
F000
F000
F000
F000
FFF8
FFF8
FFF8
FFF8
F000
F000
F000
F000
F000
FFF8
FFF8
FFF8
FFF8
ENDCHAR
STARTCHAR uni0402
ENCODING 1026
SWIDTH 600 0
DWIDTH 19 0
BBX 18 28 0 -6
BITMAP
FFF800
FFF800
FFF800
FFF800
0F8000
0F8000
0F8000
0F8000
0FBE00
0FFF80
0FFF80
0FFFC0
0F87C0
0F87C0
0F87C0
0F87C0
0F87C0
0F87C0
0F87C0
0F87C0
0F87C0
0F87C0
0007C0
0007C0
007FC0
007FC0
007F80
007F00
ENDCHAR
STARTCHAR uni0403
ENCODING 1027
SWIDTH 600 0
DWIDTH 19 0
BBX 14 30 3 0
BITMAP
01C0
01F0
03E0
03C0
0780
0780
0300
0000
FFFC
FFFC
FFFC
FFFC
F800
F800
F800
F800
F800
F800
F800
F800
F800
F800
F800
F800
F800
F800
F800
F800
F800
F800
ENDCHAR
STARTCHAR uni0404
ENCODING 1028
SWIDTH 600 0
DWIDTH 19 0
BBX 17 22 1 0
BITMAP
03F000
0FFC00
1FFE00
3FFF00
7E1F00
7C0F80
7C0E00
780000
F80000
FFE000
FFE000
FFE000
FFE000
F80000
780000
7C0F00
7C0F80
7E1F00
3FFF00
1FFE00
0FFC00
03F000
ENDCHAR
STARTCHAR uni0405
ENCODING 1029
SWIDTH 600 0
DWIDTH 19 0
BBX 16 22 1 0
BITMAP
07F0
1FFC
3FFF
3FFF
7E1E
7C04
7C00
7C00
7F00
3FF8
3FFE
1FFE
03FF
003F
000F
200F
300F
7C1F
FFFF
7FFE
3FFC
07F0
ENDCHAR
STARTCHAR uni0406
ENCODING 1030
SWIDTH 600 0
DWIDTH 19 0
BBX 14 22 2 0
BITMAP
FFFC
FFFC
FFFC
FFFC
07C0
07C0
07C0
07C0
07C0
07C0
07C0
07C0
07C0
07C0
07C0
07C0
07C0
07C0
FFFC
FFFC
FFFC
FFFC
ENDCHAR
STARTCHAR uni0407
ENCODING 1031
SWIDTH 600 0
DWIDTH 19 0
BBX 14 29 2 0
BITMAP
3C78
3EF8
3EF8
3EF8
3C78
0000
0000
FFFC
FFFC
FFFC
FFFC
07C0
07C0
07C0
07C0
07C0
07C0
07C0
07C0
07C0
07C0
07C0
07C0
07C0
07C0
FFFC
FFFC
FFFC
FFFC
ENDCHAR
STARTCHAR uni0408
ENCODING 1032
SWIDTH 600 0
DWIDTH 19 0
BBX 15 22 1 0
BITMAP
1FFE
1FFE
1FFE
1FFE
003E
003E
003E
003E
003E
003E
003E
003E
003E
003E
003E
383E
F83E
7C7E
7FFC
3FFC
1FF8
07E0
ENDCHAR
STARTCHAR uni0409
ENCODING 1033
SWIDTH 600 0
DWIDTH 19 0
BBX 19 22 0 0
BITMAP
1FF000
1FF000
1FF000
1FF000
1EF000
1EF000
1EF000
1CF000
1CFE00
1CFF80
1CFF80
1CFFC0
1CF3C0
1CF3E0
3CF1E0
3CF1E0
3CF3E0
3CF3C0
F8FFC0
F8FFC0
F0FF80
E0FE00
ENDCHAR
STARTCHAR uni040A
ENCODING 1034
SWIDTH 600 0
DWIDTH 19 0
BBX 18 22 1 0
BITMAP
F1E000
F1E000
F1E000
F1E000
F1E000
F1E000
F1E000
F1E000
F1FC00
FFFF00
FFFF00
FFFF80
FFE780
F1E7C0
F1E3C0
F1E3C0
F1E7C0
F1E780
F1FF80
F1FF00
F1FF00
F1FC00
ENDCHAR
STARTCHAR uni040B
ENCODING 1035
SWIDTH 600 0
DWIDTH 19 0
BBX 18 22 0 0
BITMAP
FFF800
FFF800
FFF800
FFF800
0F8000
0F8000
0F8000
0F8000
0FBE00
0FFF80
0FFF80
0FFFC0
0F87C0
0F87C0
0F87C0
0F87C0
0F87C0
0F87C0
0F87C0
0F87C0
0F87C0
0F87C0
ENDCHAR
STARTCHAR uni040C
ENCODING 1036
SWIDTH 600 0
DWIDTH 19 0
BBX 16 30 2 0
BITMAP
00C0
01F0
01F0
03E0
03C0
0780
0100
0000
F81F
F83E
F83E
F83C
F87C
F87C
F8F8
F8F8
F8F0
FFF0
FFE0
FFE0
FFF0
F8F8
F8F8
F8F8
F87C
F87C
F83F
F83F
F81F
F80F
ENDCHAR
STARTCHAR uni040D
ENCODING 1037
SWIDTH 600 0
DWIDTH 19 0
BBX 15 30 2 0
BITMAP
0600
1F00
0F00
0F80
0780
03C0
0100
0000
F03E
F03E
F07E
F07E
F07E
F0FE
F0FE
F1FE
F1DE
F3DE
F3DE
F79E
F79E
FF1E
FF1E
FE1E
FE1E
FC1E
FC1E
F81E
F81E
F01E
ENDCHAR
STARTCHAR uni040E
ENCODING 1038
SWIDTH 600 0
DWIDTH 19 0
BBX 17 30 1 0
BITMAP
042000
0E1C00
1E1E00
1E3C00
0FFC00
07F800
03E000
000000
F80780
F80F80
7C0F80
7C0F00
3C1F00
3E1E00
3E1E00
1F3E00
1F3C00
0F3C00
0F7C00
07F800
07F800
07F000
03F000
03F000
01E000
01E000
1FE000
1FC000
1F8000
1F0000
ENDCHAR
STARTCHAR uni040F
ENCODING 1039
SWIDTH 600 0
DWIDTH 19 0
BBX 15 26 2 -4
BITMAP
F83E
F83E
F83E
F83E
F83E
F83E
F83E
F83E
F83E
F83E
F83E
F83E
F83E
F83E
F83E
F83E
F83E
F83E
FFFE
FFFE
FFFE
FFFE
07C0
07C0
07C0
07C0
ENDCHAR
STARTCHAR uni0410
ENCODING 1040
SWIDTH 600 0
DWIDTH 19 0
BBX 19 22 0 0
BITMAP
03F800
03F800
03F800
07FC00
07FC00
07BC00
0FBE00
0FBE00
0F3E00
0F1E00
1F1F00
1F1F00
1E1F00
1FFF00
3FFF80
3FFF80
3FFF80
3C0F80
7C07C0
7C07C0
7807C0
F803E0
ENDCHAR
STARTCHAR uni0411
ENCODING 1041
SWIDTH 600 0
DWIDTH 19 0
BBX 16 22 2 0
BITMAP
FFFC
FFFC
FFFC
FFFC
F800
F800
F800
F800
FFF0
FFFC
FFFC
FFFE
F83E
F81F
F81F
F81F
F81F
F83E
FFFE
FFFC
FFF8
FFF0
ENDCHAR
STARTCHAR uni0412
ENCODING 1042
SWIDTH 600 0
DWIDTH 19 0
BBX 14 22 3 0
BITMAP
FFC0
FFF0
FFF8
FFF8
F0FC
F07C
F07C
F07C
F0F8
FFF0
FFC0
FFF0
FFF8
F07C
F03C
F03C
F03C
F07C
FFFC
FFF8
FFF8
FFE0
ENDCHAR
STARTCHAR uni0413
ENCODING 1043
SWIDTH 600 0
DWIDTH 19 0
BBX 14 22 3 0
BITMAP
FFFC
FFFC
FFFC
FFFC
F800
F800
F800
F800
F800
F800
F800
F800
F800
F800
F800
F800
F800
F800
F800
F800
F800
F800
ENDCHAR
STARTCHAR uni0414
ENCODING 1044
SWIDTH 600 0
DWIDTH 19 0
BBX 17 26 1 -4
BITMAP
0FFE00
0FFE00
0FFE00
0FFE00
0F1E00
0F1E00
0F1E00
0F1E00
1F1E00
1F1E00
1E1E00
1E1E00
1E1E00
1E1E00
1E1E00
3E1E00
3C1E00
7C1E00
FFFF80
FFFF80
FFFF80
FFFF80
F00780
F00780
F00780
F00780
ENDCHAR
STARTCHAR uni0415
ENCODING 1045
SWIDTH 600 0
DWIDTH 19 0
BBX 13 22 3 0
BITMAP
FFF8
FFF8
FFF8
FFF8
F000
F000
F000
F000
F000
FFF8
FFF8
FFF8
FFF8
F000
F000
F000
F000
F000
FFF8
FFF8
FFF8
FFF8
ENDCHAR
STARTCHAR uni0416
ENCODING 1046
SWIDTH 600 0
DWIDTH 19 0
BBX 19 22 0 0
BITMAP
79E3C0
79E3C0
79E3C0
79E3C0
79E3C0
39E780
3DE780
3DE780
3DE780
1FFF00
0FFE00
1FFF00
3FFF80
3DE780
3DE780
7DE780
79E7C0
79E3C0
79E3C0
79E3C0
F9E3C0
F9E3E0
ENDCHAR
STARTCHAR uni0417
ENCODING 1047
SWIDTH 600 0
DWIDTH 19 0
BBX 16 22 1 0
BITMAP
07F0
1FFC
3FFE
7FFE
3C3F
101F
001F
001E
003E
07FC
07F0
07FC
07FE
003F
001F
001F
301F
7C3F
7FFE
FFFE
3FF8
0FE0
ENDCHAR
STARTCHAR uni0418
ENCODING 1048
SWIDTH 600 0
DWIDTH 19 0
BBX 15 22 2 0
BITMAP
F03E
F03E
F07E
F07E
F07E
F0FE
F0FE
F1FE
F1DE
F3DE
F3DE
F79E
F79E
FF1E
FF1E
FE1E
FE1E
FC1E
FC1E
F81E
F81E
F01E
ENDCHAR
STARTCHAR uni0419
ENCODING 1049
SWIDTH 600 0
DWIDTH 19 0
BBX 15 30 2 0
BITMAP
0840
3838
3C78
3C78
1FF0
1FF0
07C0
0000
F03E
F03E
F07E
F07E
F07E
F0FE
F0FE
F1FE
F1DE
F3DE
F3DE
F79E
F79E
FF1E
FF1E
FE1E
FE1E
FC1E
FC1E
F81E
F81E
F01E
ENDCHAR
STARTCHAR uni041A
ENCODING 1050
SWIDTH 600 0
DWIDTH 19 0
BBX 16 22 2 0
BITMAP
F81F
F83E
F83E
F83C
F87C
F87C
F8F8
F8F8
F8F0
FFF0
FFE0
FFE0
FFF0
F8F8
F8F8
F8F8
F87C
F87C
F83F
F83F
F81F
F80F
ENDCHAR
STARTCHAR uni041B
ENCODING 1051
SWIDTH 600 0
DWIDTH 19 0
BBX 16 22 1 0
BITMAP
0FFF
0FFF
0FFF
0FFF
0F0F
0F0F
0F0F
0F0F
0F0F
0F0F
0F0F
0F0F
0F0F
1F0F
1F0F
1F0F
1E0F
3E0F
FC0F
FC0F
F80F
E00F
ENDCHAR
STARTCHAR uni041C
ENCODING 1052
SWIDTH 600 0
DWIDTH 19 0
BBX 17 22 1 0
BITMAP
FC1F80
FC1F80
FE1F80
FE3F80
FF3F80
FF7F80
F77780
F7F780
F7F780
F3E780
F3E780
F3E780
F1C780
F1C780
F08780
F08780
F08780
F00780
F00780
F00780
F00780
F00780
ENDCHAR
STARTCHAR uni041D
ENCODING 1053
SWIDTH 600 0
DWIDTH 19 0
BBX 15 22 2 0
BITMAP
F83E
F83E
F83E
F83E
F83E
F83E
F83E
F83E
F83E
FFFE
FFFE
FFFE
FFFE
F83E
F83E
F83E
F83E
F83E
F83E
F83E
F83E
F83E
ENDCHAR
STARTCHAR uni041E
ENCODING 1054
SWIDTH 600 0
DWIDTH 19 0
BBX 17 22 1 0
BITMAP
07F000
1FFC00
3FFE00
3FFE00
7E3F00
7C1F00
780F00
F80F80
F80F80
F80F80
F80F80
F80F80
F80F80
F80F80
F80F80
780F00
7C1F00
7E3F00
3FFE00
3FFE00
1FFC00
07F000
ENDCHAR
STARTCHAR uni041F
ENCODING 1055
SWIDTH 600 0
DWIDTH 19 0
BBX 15 22 2 0
BITMAP
FFFE
FFFE
FFFE
FFFE
F83E
F83E
F83E
F83E
F83E
F83E
F83E
F83E
F83E
F83E
F83E
F83E
F83E
F83E
F83E
F83E
F83E
F83E
ENDCHAR
STARTCHAR uni0420
ENCODING 1056
SWIDTH 600 0
DWIDTH 19 0
BBX 15 22 3 0
BITMAP
FFE0
FFF0
FFF8
FFFC
F07C
F03C
F03E
F03E
F03C
F07C
FFFC
FFF8
FFF0
FFE0
F000
F000
F000
F000
F000
F000
F000
F000
ENDCHAR
STARTCHAR uni0421
ENCODING 1057
SWIDTH 600 0
DWIDTH 19 0
BBX 17 22 1 0
BITMAP
03F000
0FFC00
1FFE00
3FFE00
3E1F00
7C0F00
7C0F80
7C0800
780000
F80000
F80000
F80000
780000
7C0000
7C1000
7C0F80
7C0F00
3E1F00
3FFF00
1FFE00
0FFC00
03F000
ENDCHAR
STARTCHAR uni0422
ENCODING 1058
SWIDTH 600 0
DWIDTH 19 0
BBX 17 22 1 0
BITMAP
FFFF80
FFFF80
FFFF80
FFFF80
03E000
03E000
03E000
03E000
03E000
03E000
03E000
03E000
03E000
03E000
03E000
03E000
03E000
03E000
03E000
03E000
03E000
03E000
ENDCHAR
STARTCHAR uni0423
ENCODING 1059
SWIDTH 600 0
DWIDTH 19 0
BBX 17 22 1 0
BITMAP
F80780
F80F80
7C0F80
7C0F00
3C1F00
3E1E00
3E1E00
1F3E00
1F3C00
0F3C00
0F7C00
07F800
07F800
07F000
03F000
03F000
01E000
01E000
1FE000
1FC000
1F8000
1F0000
ENDCHAR
STARTCHAR uni0424
ENCODING 1060
SWIDTH 600 0
DWIDTH 19 0
BBX 17 24 1 -1
BITMAP
03E000
03E000
03E000
0FF800
1FFC00
3FFE00
7FFF00
7BCF00
F3C780
F3C780
F3C780
F3C780
F3C780
F3C780
F3C780
F3C780
FBCF00
7FFF00
3FFE00
3FFC00
0FF800
03E000
03E000
03E000
ENDCHAR
STARTCHAR uni0425
ENCODING 1061
SWIDTH 600 0
DWIDTH 19 0
BBX 19 22 0 0
BITMAP
7C07C0
3E0F80
3E0F80
1F1F00
1F1F00
0FBE00
0FBE00
07FC00
07FC00
03F800
03F800
03F800
03F800
07FC00
0FBE00
0FBE00
1F1F00
1F1F00
3E1F80
3E0F80
7C0FC0
FC07E0
ENDCHAR
STARTCHAR uni0426
ENCODING 1062
SWIDTH 600 0
DWIDTH 19 0
BBX 16 26 2 -4
BITMAP
F07C
F07C
F07C
F07C
F07C
F07C
F07C
F07C
F07C
F07C
F07C
F07C
F07C
F07C
F07C
F07C
F07C
F07C
FFFF
FFFF
FFFF
FFFF
000F
000F
000F
000F
ENDCHAR
STARTCHAR uni0427
ENCODING 1063
SWIDTH 600 0
DWIDTH 19 0
BBX 16 22 1 0
BITMAP
F81F
F81F
F81F
F81F
F81F
F81F
F81F
F81F
F81F
F81F
7C1F
7FFF
7FFF
3FFF
0FDF
001F
001F
001F
001F
001F
001F
001F
ENDCHAR
STARTCHAR uni0428
ENCODING 1064
SWIDTH 600 0
DWIDTH 19 0
BBX 17 22 1 0
BITMAP
F3C780
F3C780
F3C780
F3C780
F3C780
F3C780
F3C780
F3C780
F3C780
F3C780
F3C780
F3C780
F3C780
F3C780
F3C780
F3C780
F3C780
F3C780
FFFF80
FFFF80
FFFF80
FFFF80
ENDCHAR
STARTCHAR uni0429
ENCODING 1065
SWIDTH 600 0
DWIDTH 19 0
BBX 18 26 1 -4
BITMAP
F3CF00
F3CF00
F3CF00
F3CF00
F3CF00
F3CF00
F3CF00
F3CF00
F3CF00
F3CF00
F3CF00
F3CF00
F3CF00
F3CF00
F3CF00
F3CF00
F3CF00
F3CF00
FFFFC0
FFFFC0
FFFFC0
FFFFC0
0003C0
0003C0
0003C0
0003C0
ENDCHAR
STARTCHAR uni042A
ENCODING 1066
SWIDTH 600 0
DWIDTH 19 0
BBX 18 22 0 0
BITMAP
FF8000
FF8000
FF8000
FF8000
0F8000
0F8000
0F8000
0F8000
0FFE00
0FFF00
0FFF80
0FFFC0
0F87C0
0F83C0
0F83C0
0F83C0
0F83C0
0F87C0
0FFFC0
0FFF80
0FFF00
0FFE00
ENDCHAR
STARTCHAR uni042B
ENCODING 1067
SWIDTH 600 0
DWIDTH 19 0
BBX 17 22 1 0
BITMAP
F00780
F00780
F00780
F00780
F00780
F00780
F00780
F00780
FF0780
FF8780
FFC780
FFE780
F1E780
F1E780
F1E780
F1E780
F1E780
F1E780
FFE780
FFC780
FF8780
FF0780
ENDCHAR
STARTCHAR uni042C
ENCODING 1068
SWIDTH 600 0
DWIDTH 19 0
BBX 16 22 2 0
BITMAP
F800
F800
F800
F800
F800
F800
F800
F800
FFF0
FFFC
FFFC
FFFE
F83E
F81F
F81F
F81F
F81F
F83E
FFFE
FFFC
FFF8
FFF0
ENDCHAR
STARTCHAR uni042D
ENCODING 1069
SWIDTH 600 0
DWIDTH 19 0
BBX 17 22 1 0
BITMAP
07E000
1FF800
3FFC00
7FFE00
7C3F00
F81F00
381F00
000F00
000F80
03FF80
03FF80
03FF80
03FF80
000F80
000F00
381F00
F81F00
7C3F00
7FFE00
3FFC00
1FF800
07E000
ENDCHAR
STARTCHAR uni042E
ENCODING 1070
SWIDTH 600 0
DWIDTH 19 0
BBX 17 22 1 0
BITMAP
F07C00
F0FE00
F1FF00
F3FF00
F3CF80
F3C780
F3C780
F3C780
F3C780
FFC780
FFC780
FFC780
FFC780
F3C780
F3C780
F3C780
F3C780
F3CF80
F3FF00
F1FF00
F0FE00
F07C00
ENDCHAR
STARTCHAR uni042F
ENCODING 1071
SWIDTH 600 0
DWIDTH 19 0
BBX 16 22 1 0
BITMAP
07FF
1FFF
3FFF
7FFF
7C1F
7C1F
7C1F
7C1F
7C1F
7C1F
7FFF
3FFF
1FFF
03FF
0F9F
1F9F
1F1F
3F1F
FE1F
FE1F
FC1F
F81F
ENDCHAR
STARTCHAR uni0430
ENCODING 1072
SWIDTH 600 0
DWIDTH 19 0
BBX 16 16 2 0
BITMAP
0FE0
3FF0
7FF8
FFFC
707C
207C
003C
1FFC
7FFC
FFFC
F03C
F07C
FFFF
FFBF
7F9F
3E0F
ENDCHAR
STARTCHAR uni0431
ENCODING 1073
SWIDTH 600 0
DWIDTH 19 0
BBX 15 23 2 0
BITMAP
01FC
0FFC
1FFC
3FFC
7F00
7C00
7800
F9F0
FBF8
FFFC
FFFE
FC7E
F83E
F81E
F01E
F01E
F81E
F83E
FC7E
7FFC
3FF8
1FF0
07E0
ENDCHAR
STARTCHAR uni0432
ENCODING 1074
SWIDTH 600 0
DWIDTH 19 0
BBX 14 16 3 0
BITMAP
FFE0
FFF8
FFF8
FFF8
F078
F078
FFF0
FFE0
FFF8
F07C
F07C
F07C
FFFC
FFFC
FFF8
FFE0
ENDCHAR
STARTCHAR uni0433
ENCODING 1075
SWIDTH 600 0
DWIDTH 19 0
BBX 12 16 4 0
BITMAP
FFF0
FFF0
FFF0
FFF0
F800
F800
F800
F800
F800
F800
F800
F800
F800
F800
F800
F800
ENDCHAR
STARTCHAR uni0434
ENCODING 1076
SWIDTH 600 0
DWIDTH 19 0
BBX 18 20 0 -4
BITMAP
0FFF00
0FFF00
0FFF00
0FFF00
0F1F00
0F1F00
0F1F00
0F1F00
0F1F00
1F1F00
1F1F00
1E1F00
FFFFC0
FFFFC0
FFFFC0
FFFFC0
F803C0
F803C0
F803C0
F803C0
ENDCHAR
STARTCHAR uni0435
ENCODING 1077
SWIDTH 600 0
DWIDTH 19 0
BBX 15 16 2 0
BITMAP
0FE0
1FF0
3FFC
7FFC
F83E
F01E
FFFE
FFFE
FFFE
F000
F800
FC18
7FFC
7FFE
1FFC
07F0
ENDCHAR
STARTCHAR uni0436
ENCODING 1078
SWIDTH 600 0
DWIDTH 19 0
BBX 17 16 1 0
BITMAP
F1C780
F1C780
F1C700
79CF00
79CF00
79CF00
3FFE00
1FFC00
3FFE00
7FFF00
79CF00
79CF00
F1CF00
F1C780
F1C780
F1C780
ENDCHAR
STARTCHAR uni0437
ENCODING 1079
SWIDTH 600 0
DWIDTH 19 0
BBX 15 16 2 0
BITMAP
0FE0
3FF8
7FFC
FFFC
783E
203C
07F8
07F0
07FC
003C
203E
703E
FFFE
7FFC
3FF8
0FE0
ENDCHAR
STARTCHAR uni0438
ENCODING 1080
SWIDTH 600 0
DWIDTH 19 0
BBX 15 16 2 0
BITMAP
F83E
F83E
F87E
F8FE
F8FE
F9FE
F9DE
FBDE
FFBE
F7BE
FF3E
FE3E
FE3E
FC3E
FC3E
F83E
ENDCHAR
STARTCHAR uni0439
ENCODING 1081
SWIDTH 600 0
DWIDTH 19 0
BBX 15 25 2 0
BITMAP
0840
3838
3C7C
3C78
1FF0
1FF0
07C0
0000
0000
F83E
F83E
F87E
F8FE
F8FE
F9FE
F9DE
FBDE
FFBE
F7BE
FF3E
FE3E
FE3E
FC3E
FC3E
F83E
ENDCHAR
STARTCHAR uni043A
ENCODING 1082
SWIDTH 600 0
DWIDTH 19 0
BBX 15 16 2 0
BITMAP
F83E
F83E
F87C
F87C
F8F8
F8F0
FFF0
FFC0
FFE0
FFF0
F8F8
F8F8
F87E
F87E
F83E
F81E
ENDCHAR
STARTCHAR uni043B
ENCODING 1083
SWIDTH 600 0
DWIDTH 19 0
BBX 16 16 1 0
BITMAP
1FFF
1FFF
1FFF
1FFF
1F1F
1F1F
1F1F
1F1F
1F1F
1E1F
1E1F
3E1F
FE1F
FC1F
FC1F
F01F
ENDCHAR
STARTCHAR uni043C
ENCODING 1084
SWIDTH 600 0
DWIDTH 19 0
BBX 15 16 2 0
BITMAP
F81E
F83E
FC3E
FC7E
FC7E
FEFE
EEEE
EFEE
E7CE
E7CE
E38E
E38E
E10E
E10E
E00E
E00E
ENDCHAR
STARTCHAR uni043D
ENCODING 1085
SWIDTH 600 0
DWIDTH 19 0
BBX 15 16 2 0
BITMAP
F83E
F83E
F83E
F83E
F83E
F83E
FFFE
FFFE
FFFE
FFFE
F83E
F83E
F83E
F83E
F83E
F83E
ENDCHAR
STARTCHAR uni043E
ENCODING 1086
SWIDTH 600 0
DWIDTH 19 0
BBX 17 16 1 0
BITMAP
07F000
1FFC00
3FFE00
3FFE00
7C3F00
7C1F00
780F00
F80F80
F80F80
780F00
7C1F00
7C1F00
3FFE00
3FFE00
1FFC00
07F000
ENDCHAR
STARTCHAR uni043F
ENCODING 1087
SWIDTH 600 0
DWIDTH 19 0
BBX 15 16 2 0
BITMAP
FFFE
FFFE
FFFE
FFFE
F83E
F83E
F83E
F83E
F83E
F83E
F83E
F83E
F83E
F83E
F83E
F83E
ENDCHAR
STARTCHAR uni0440
ENCODING 1088
SWIDTH 600 0
DWIDTH 19 0
BBX 16 22 2 -6
BITMAP
F9F0
FBF8
FFFC
FFFE
FC3E
F83E
F81F
F81F
F81F
F81F
F83E
F83E
FFFE
FFFC
FBFC
F9F0
F800
F800
F800
F800
F800
F800
ENDCHAR
STARTCHAR uni0441
ENCODING 1089
SWIDTH 600 0
DWIDTH 19 0
BBX 15 16 2 0
BITMAP
07E0
1FF8
3FFC
7FFC
7C3E
F810
F800
F800
F800
F800
F818
7C3E
7FFE
3FFC
1FF8
07E0
ENDCHAR
STARTCHAR uni0442
ENCODING 1090
SWIDTH 600 0
DWIDTH 19 0
BBX 15 16 2 0
BITMAP
FFFE
FFFE
FFFE
FFFE
07C0
07C0
07C0
07C0
07C0
07C0
07C0
07C0
07C0
07C0
07C0
07C0
ENDCHAR
STARTCHAR uni0443
ENCODING 1091
SWIDTH 600 0
DWIDTH 19 0
BBX 17 22 1 -6
BITMAP
F80F80
F80F80
7C0F00
7C1F00
3C1E00
3E1E00
3E3E00
1E3C00
1F3C00
0F7800
0F7800
0FF800
07F000
07F000
03E000
03E000
03C000
07C000
7FC000
7F8000
7F0000
7E0000
ENDCHAR
STARTCHAR uni0444
ENCODING 1092
SWIDTH 600 0
DWIDTH 19 0
BBX 17 28 1 -6
BITMAP
01C000
01C000
01C000
01C000
01C000
01C000
39CE00
7DDF00
7DDF00
FFFF80
F3C780
F1C780
F1C780
F1C780
F1C780
F1C780
F1C780
F3C780
FFFF80
7DDF00
7DDF00
39CE00
01C000
01C000
01C000
01C000
01C000
01C000
ENDCHAR
STARTCHAR uni0445
ENCODING 1093
SWIDTH 600 0
DWIDTH 19 0
BBX 17 16 1 0
BITMAP
FC0F80
7E1F00
3E3E00
1F3C00
0F7800
0FF800
07F000
03E000
07F000
07F000
0FF800
1F7C00
3E7E00
3C3E00
7C1F00
F81F80
ENDCHAR
STARTCHAR uni0446
ENCODING 1094
SWIDTH 600 0
DWIDTH 19 0
BBX 16 20 2 -4
BITMAP
F87C
F87C
F87C
F87C
F87C
F87C
F87C
F87C
F87C
F87C
F87C
F87C
FFFF
FFFF
FFFF
FFFF
000F
000F
000F
000F
ENDCHAR
STARTCHAR uni0447
ENCODING 1095
SWIDTH 600 0
DWIDTH 19 0
BBX 14 16 2 0
BITMAP
F83C
F83C
F83C
F83C
F83C
F83C
F83C
F87C
FFFC
7FFC
7FBC
3F3C
003C
003C
003C
003C
ENDCHAR
STARTCHAR uni0448
ENCODING 1096
SWIDTH 600 0
DWIDTH 19 0
BBX 17 16 1 0
BITMAP
F1C780
F1C780
F1C780
F1C780
F1C780
F1C780
F1C780
F1C780
F1C780
F1C780
F1C780
F1C780
FFFF80
FFFF80
FFFF80
FFFF80
ENDCHAR
STARTCHAR uni0449
ENCODING 1097
SWIDTH 600 0
DWIDTH 19 0
BBX 18 20 1 -4
BITMAP
F3CF00
F3CF00
F3CF00
F3CF00
F3CF00
F3CF00
F3CF00
F3CF00
F3CF00
F3CF00
F3CF00
F3CF00
FFFFC0
FFFFC0
FFFFC0
FFFFC0
0003C0
0003C0
0003C0
0003C0
ENDCHAR
STARTCHAR uni044A
ENCODING 1098
SWIDTH 600 0
DWIDTH 19 0
BBX 17 16 1 0
BITMAP
FF0000
FF0000
FF0000
FF0000
1FFC00
1FFE00
1FFF00
1FFF00
1F0F80
1F0F80
1F0F80
1F0F80
1FFF00
1FFF00
1FFE00
1FFC00
ENDCHAR
STARTCHAR uni044B
ENCODING 1099
SWIDTH 600 0
DWIDTH 19 0
BBX 17 16 1 0
BITMAP
F00780
F00780
F00780
F00780
FF0780
FFC780
FFC780
FFE780
F1E780
F1E780
F1E780
F1E780
FFE780
FFC780
FFC780
FF0780
ENDCHAR
STARTCHAR uni044C
ENCODING 1100
SWIDTH 600 0
DWIDTH 19 0
BBX 14 16 3 0
BITMAP
F000
F000
F000
F000
FFE0
FFF8
FFF8
FFFC
F07C
F03C
F03C
F07C
FFFC
FFF8
FFF8
FFE0
ENDCHAR
STARTCHAR uni044D
ENCODING 1101
SWIDTH 600 0
DWIDTH 19 0
BBX 15 16 2 0
BITMAP
0FC0
3FF0
7FF8
FFFC
F87C
303E
07FE
07FE
07FE
003E
303E
F87C
FFFC
7FF8
3FF0
0FC0
ENDCHAR
STARTCHAR uni044E
ENCODING 1102
SWIDTH 600 0
DWIDTH 19 0
BBX 17 16 1 0
BITMAP
F07C00
F1FE00
F1FF00
F3FF00
F3C780
FFC780
FFC780
FFC780
FFC780
F3C780
F3C780
F3C780
F1FF00
F1FF00
F0FE00
F07C00
ENDCHAR
STARTCHAR uni044F
ENCODING 1103
SWIDTH 600 0
DWIDTH 19 0
BBX 14 16 2 0
BITMAP
1FFC
3FFC
7FFC
FFFC
F83C
F83C
F83C
FFFC
7FFC
3FFC
1FFC
3F3C
FE3C
FC3C
FC3C
F03C
ENDCHAR
STARTCHAR uni0450
ENCODING 1104
SWIDTH 600 0
DWIDTH 19 0
BBX 15 25 2 0
BITMAP
0600
1F00
0F00
0F80
0780
03C0
0100
0000
0000
0FE0
1FF0
3FFC
7FFC
F83E
F01E
FFFE
FFFE
FFFE
F000
F800
FC18
7FFC
7FFE
1FFC
07F0
ENDCHAR
STARTCHAR uni0451
ENCODING 1105
SWIDTH 600 0
DWIDTH 19 0
BBX 15 23 2 0
BITMAP
3C78
3EF8
3EF8
3EF8
3C78
0000
0000
0FE0
1FF0
3FFC
7FFC
F83E
F01E
FFFE
FFFE
FFFE
F000
F800
FC18
7FFC
7FFE
1FFC
07F0
ENDCHAR
STARTCHAR uni0452
ENCODING 1106
SWIDTH 600 0
DWIDTH 19 0
BBX 17 29 0 -6
BITMAP
3E0000
3E0000
FFE000
FFE000
FFE000
FFE000
3E0000
3E3C00
3EFE00
3EFF00
3FFF80
3F1F80
3E0F80
3E0F80
3E0F80
3E0F80
3E0F80
3E0F80
3E0F80
3E0F80
3E0F80
3E0F80
3E0F80
000F80
000F80
01FF80
01FF80
01FF00
01FE00
ENDCHAR
STARTCHAR uni0453
ENCODING 1107
SWIDTH 600 0
DWIDTH 19 0
BBX 12 25 4 0
BITMAP
0380
03E0
07C0
0780
0F00
0F00
0600
0000
0000
FFF0
FFF0
FFF0
FFF0
F800
F800
F800
F800
F800
F800
F800
F800
F800
F800
F800
F800
ENDCHAR
STARTCHAR uni0454
ENCODING 1108
SWIDTH 600 0
DWIDTH 19 0
BBX 15 16 2 0
BITMAP
07E0
1FF8
3FFC
7FFC
7C3E
F818
FFC0
FFC0
FFC0
F800
F818
7C3E
7FFE
3FFC
1FF8
07E0
ENDCHAR
STARTCHAR uni0455
ENCODING 1109
SWIDTH 600 0
DWIDTH 19 0
BBX 15 16 2 0
BITMAP
0FE0
3FF8
7FFE
7FFC
7818
7800
7FC0
7FF8
3FFC
0FFE
003E
703E
FFFC
FFFC
7FF8
0FE0
ENDCHAR
STARTCHAR uni0456
ENCODING 1110
SWIDTH 600 0
DWIDTH 19 0
BBX 15 23 3 0
BITMAP
0780
07C0
07C0
07C0
0380
0000
0000
FFC0
FFC0
FFC0
FFC0
07C0
07C0
07C0
07C0
07C0
07C0
07C0
07C0
FFFE
FFFE
FFFE
FFFE
ENDCHAR
STARTCHAR uni0457
ENCODING 1111
SWIDTH 600 0
DWIDTH 19 0
BBX 14 23 3 0
BITMAP
3C78
3CF8
3EF8
3CF8
3C78
0000
0000
FFC0
FFC0
FFC0
FFC0
07C0
07C0
07C0
07C0
07C0
07C0
07C0
07C0
FFFC
FFFC
FFFC
FFFC
ENDCHAR
STARTCHAR uni0458
ENCODING 1112
SWIDTH 600 0
DWIDTH 19 0
BBX 11 29 3 -6
BITMAP
03C0
03E0
03E0
03E0
01C0
0000
0000
FFE0
FFE0
FFE0
FFE0
03E0
03E0
03E0
03E0
03E0
03E0
03E0
03E0
03E0
03E0
03E0
03E0
03E0
03E0
FFE0
FFC0
FFC0
FF00
ENDCHAR
STARTCHAR uni0459
ENCODING 1113
SWIDTH 600 0
DWIDTH 19 0
BBX 19 16 0 0
BITMAP
1FF000
1FF000
1FF000
1FF000
1CFE00
1CFF80
1CFFC0
1CFFC0
1CF1E0
1CF1E0
3CF1E0
3CF1E0
FCFFC0
F8FFC0
F8FF80
E0FE00
ENDCHAR
STARTCHAR uni045A
ENCODING 1114
SWIDTH 600 0
DWIDTH 19 0
BBX 18 16 1 0
BITMAP
F1E000
F1E000
F1E000
F1E000
F1FC00
F1FF00
FFFF80
FFFF80
FFE3C0
FFE3C0
F1E3C0
F1E3C0
F1FF80
F1FF80
F1FF00
F1FC00
ENDCHAR
STARTCHAR uni045B
ENCODING 1115
SWIDTH 600 0
DWIDTH 19 0
BBX 17 23 0 0
BITMAP
3E0000
3E0000
FFE000
FFE000
FFE000
FFE000
3E0000
3E3C00
3EFE00
3EFF00
3FFF80
3F1F80
3E0F80
3E0F80
3E0F80
3E0F80
3E0F80
3E0F80
3E0F80
3E0F80
3E0F80
3E0F80
3E0F80
ENDCHAR
STARTCHAR uni045C
ENCODING 1116
SWIDTH 600 0
DWIDTH 19 0
BBX 15 25 2 0
BITMAP
00C0
01F0
01E0
03E0
03C0
0780
0100
0000
0000
F83E
F83E
F87C
F87C
F8F8
F8F0
FFF0
FFC0
FFE0
FFF0
F8F8
F8F8
F87E
F87E
F83E
F81E
ENDCHAR
STARTCHAR uni045D
ENCODING 1117
SWIDTH 600 0
DWIDTH 19 0
BBX 15 25 2 0
BITMAP
0600
1F00
0F00
0F80
0780
03C0
0100
0000
0000
F83E
F83E
F87E
F8FE
F8FE
F9FE
F9DE
FBDE
FFBE
F7BE
FF3E
FE3E
FE3E
FC3E
FC3E
F83E
ENDCHAR
STARTCHAR uni045E
ENCODING 1118
SWIDTH 600 0
DWIDTH 19 0
BBX 17 31 1 -6
BITMAP
042000
1E1C00
1E3E00
1E3C00
0FF800
07F800
03E000
000000
000000
F80F80
F80F80
7C0F00
7C1F00
3C1E00
3E1E00
3E3E00
1E3C00
1F3C00
0F7800
0F7800
0FF800
07F000
07F000
03E000
03E000
03C000
07C000
7FC000
7F8000
7F0000
7E0000
ENDCHAR
STARTCHAR uni045F
ENCODING 1119
SWIDTH 600 0
DWIDTH 19 0
BBX 15 20 2 -4
BITMAP
F83E
F83E
F83E
F83E
F83E
F83E
F83E
F83E
F83E
F83E
F83E
F83E
FFFE
FFFE
FFFE
FFFE
07C0
07C0
07C0
07C0
ENDCHAR
STARTCHAR uni0472
ENCODING 1138
SWIDTH 600 0
DWIDTH 19 0
BBX 17 22 1 0
BITMAP
07F000
1FFC00
3FFE00
3FFE00
7C1F00
780F00
780F00
F80F80
F80F80
FFFF80
FFFF80
FFFF80
FFFF80
F80F80
F80F80
780F00
780F00
7C1F00
3FFE00
3FFE00
1FFC00
07F000
ENDCHAR
STARTCHAR uni0473
ENCODING 1139
SWIDTH 600 0
DWIDTH 19 0
BBX 17 16 1 0
BITMAP
07F000
1FFC00
3FFE00
3FFE00
7C1F00
780F00
7FFF00
FFFF80
FFFF80
780F00
780F00
7C1F00
3FFE00
3FFE00
1FFC00
07F000
ENDCHAR
STARTCHAR uni0490
ENCODING 1168
SWIDTH 600 0
DWIDTH 19 0
BBX 14 27 3 0
BITMAP
007C
007C
007C
007C
007C
FFFC
FFFC
FFFC
FFFC
F800
F800
F800
F800
F800
F800
F800
F800
F800
F800
F800
F800
F800
F800
F800
F800
F800
F800
ENDCHAR
STARTCHAR uni0491
ENCODING 1169
SWIDTH 600 0
DWIDTH 19 0
BBX 12 20 4 0
BITMAP
00F0
00F0
00F0
00F0
FFF0
FFF0
FFF0
FFF0
F800
F800
F800
F800
F800
F800
F800
F800
F800
F800
F800
F800
ENDCHAR
STARTCHAR uni0492
ENCODING 1170
SWIDTH 600 0
DWIDTH 19 0
BBX 16 22 1 0
BITMAP
1FFF
1FFF
1FFF
1FFF
1F00
1F00
1F00
1F00
1F00
FFF8
FFF8
FFF8
FFF8
1F00
1F00
1F00
1F00
1F00
1F00
1F00
1F00
1F00
ENDCHAR
STARTCHAR uni0493
ENCODING 1171
SWIDTH 600 0
DWIDTH 19 0
BBX 15 16 2 0
BITMAP
1FFE
1FFE
1FFE
1FFE
1E00
1E00
1E00
FFF0
FFF0
FFF0
FFF0
1E00
1E00
1E00
1E00
1E00
ENDCHAR
STARTCHAR uni0494
ENCODING 1172
SWIDTH 600 0
DWIDTH 19 0
BBX 16 28 2 -6
BITMAP
FFF8
FFF8
FFF8
FFF8
F800
F800
F800
F800
F800
F800
FFF0
FFFC
FFFE
FFFE
F83E
F81F
F81F
F81F
F81F
F81F
F81F
F81F
001F
003E
01FE
01FE
01FC
01F0
ENDCHAR
STARTCHAR uni0495
ENCODING 1173
SWIDTH 600 0
DWIDTH 19 0
BBX 15 22 2 -6
BITMAP
FFF8
FFF8
FFF8
FFF8
F800
F800
F800
F9F0
FBFC
FFFC
FFFE
FC3E
F83E
F83E
F83E
F83E
003E
003E
01FE
01FC
01FC
01F0
ENDCHAR
STARTCHAR uni0496
ENCODING 1174
SWIDTH 600 0
DWIDTH 19 0
BBX 20 26 0 -4
BITMAP
F1E3C0
79E3C0
79E3C0
79E780
79E780
79E780
79E780
3DE780
3DE700
3FFF00
0FFE00
1FFF00
3FFF00
3DE780
7DE780
79E780
79E780
79E7C0
79E7F0
F9E3F0
F1E3F0
F1E3F0
0000F0
0000F0
0000F0
0000F0
ENDCHAR
STARTCHAR uni0497
ENCODING 1175
SWIDTH 600 0
DWIDTH 19 0
BBX 19 20 0 -4
BITMAP
F1E3C0
79E380
79E780
79E780
39E780
3DEF00
3FFF00
0FFE00
1FFF00
3FFF00
3DE780
79E780
79E7E0
79E7E0
79E3E0
F1E3E0
0000E0
0000E0
0000E0
0000E0
ENDCHAR
STARTCHAR uni0498
ENCODING 1176
SWIDTH 600 0
DWIDTH 19 0
BBX 16 26 1 -4
BITMAP
07F0
1FFC
3FFE
7FFE
3C3F
101F
001F
001E
003E
07FC
07F0
07FC
07FE
003F
001F
001F
301F
7C3F
7FFE
FFFE
3FFC
0FF0
03C0
03C0
03C0
03C0
ENDCHAR
STARTCHAR uni0499
ENCODING 1177
SWIDTH 600 0
DWIDTH 19 0
BBX 15 20 2 -4
BITMAP
0FE0
3FF8
7FFC
FFFC
783E
203C
07F8
07F0
07FC
003C
203E
703E
FFFE
FFFC
3FF8
1FF0
0780
0780
0780
0780
ENDCHAR
STARTCHAR uni049A
ENCODING 1178
SWIDTH 600 0
DWIDTH 19 0
BBX 17 26 2 -4
BITMAP
F81E00
F83E00
F83C00
F87C00
F87C00
F87800
F8F800
F8F000
F9F000
FFF000
FFC000
FFE000
FFF000
F9F000
F8F800
F8F800
F87800
F87C00
F87F80
F83F80
F83F80
F81F80
000F80
000F80
000F80
000F80
ENDCHAR
STARTCHAR uni049B
ENCODING 1179
SWIDTH 600 0
DWIDTH 19 0
BBX 16 20 2 -4
BITMAP
F83E
F87C
F87C
F8F8
F8F8
F9F0
FFE0
FFC0
FFE0
FFF0
F9F8
F8F8
F8FF
F87F
F83F
F81F
000F
000F
000F
000F
ENDCHAR
STARTCHAR uni049C
ENCODING 1180
SWIDTH 600 0
DWIDTH 19 0
BBX 18 22 1 0
BITMAP
F00780
F00780
F00F80
F00F00
F01F00
F39E00
F39E00
F3BE00
F3BC00
FFFC00
FFF800
FFF800
FFFC00
F3BC00
F3BE00
F39E00
F39F00
F01F00
F00FC0
F00FC0
F007C0
F003C0
ENDCHAR
STARTCHAR uni049D
ENCODING 1181
SWIDTH 600 0
DWIDTH 19 0
BBX 17 16 1 0
BITMAP
F00F80
F00F00
F01F00
F39E00
F3BE00
F3BC00
FFFC00
FFF000
FFF800
FFFC00
F3BE00
F3BE00
F39F80
F01F80
F00F80
F00780
ENDCHAR
STARTCHAR uni04A0
ENCODING 1184
SWIDTH 600 0
DWIDTH 19 0
BBX 19 22 0 0
BITMAP
FF03C0
FF07C0
FF0780
FF0F80
0F0F80
0F0F00
0F1F00
0F1F00
0F1E00
0FFE00
0FFC00
0FFC00
0FFE00
0F1F00
0F1F00
0F1F00
0F0F80
0F0F80
0F0FE0
0F07E0
0F07E0
0F03E0
ENDCHAR
STARTCHAR uni04A1
ENCODING 1185
SWIDTH 600 0
DWIDTH 19 0
BBX 18 16 0 0
BITMAP
FF87C0
FF8780
FF8F80
FF8F00
0F9F00
0F9E00
0FFE00
0FF800
0FFC00
0FFE00
0F9F00
0F9F00
0F8FC0
0F8FC0
0F87C0
0F83C0
ENDCHAR
STARTCHAR uni04A2
ENCODING 1186
SWIDTH 600 0
DWIDTH 19 0
BBX 16 26 2 -4
BITMAP
F07C
F07C
F07C
F07C
F07C
F07C
F07C
F07C
F07C
FFFC
FFFC
FFFC
FFFC
F07C
F07C
F07C
F07C
F07C
F07F
F07F
F07F
F07F
000F
000F
000F
000F
ENDCHAR
STARTCHAR uni04A3
ENCODING 1187
SWIDTH 600 0
DWIDTH 19 0
BBX 16 20 2 -4
BITMAP
F87C
F87C
F87C
F87C
F87C
F87C
FFFC
FFFC
FFFC
FFFC
F87C
F87C
F87F
F87F
F87F
F87F
000F
000F
000F
000F
ENDCHAR
STARTCHAR uni04A4
ENCODING 1188
SWIDTH 600 0
DWIDTH 19 0
BBX 17 22 1 0
BITMAP
F0FF80
F0FF80
F0FF80
F0FF80
F0F800
F0F800
F0F800
F0F800
F0F800
FFF800
FFF800
FFF800
FFF800
F0F800
F0F800
F0F800
F0F800
F0F800
F0F800
F0F800
F0F800
F0F800
ENDCHAR
STARTCHAR uni04A5
ENCODING 1189
SWIDTH 600 0
DWIDTH 19 0
BBX 17 16 1 0
BITMAP
F0FF80
F0FF80
F0FF80
F0FF80
F0F000
F0F000
FFF000
FFF000
FFF000
FFF000
F0F000
F0F000
F0F000
F0F000
F0F000
F0F000
ENDCHAR
STARTCHAR uni04AA
ENCODING 1194
SWIDTH 600 0
DWIDTH 19 0
BBX 17 26 1 -4
BITMAP
03F000
0FFC00
1FFE00
3FFE00
3E1F00
7C0F00
7C0F80
7C0800
780000
780000
F80000
F80000
F80000
7C0000
7C1000
7C0F80
7C0F00
3E1F00
3FFF00
1FFE00
0FFC00
07F800
01E000
01E000
01E000
01E000
ENDCHAR
STARTCHAR uni04AB
ENCODING 1195
SWIDTH 600 0
DWIDTH 19 0
BBX 15 20 2 -4
BITMAP
07E0
1FF8
3FFC
7FFC
7C3E
F810
F800
F800
F800
F800
F818
7C3E
7FFE
3FFC
1FF8
0FF0
03C0
03C0
03C0
03C0
ENDCHAR
STARTCHAR uni04AE
ENCODING 1198
SWIDTH 600 0
DWIDTH 19 0
BBX 19 22 0 0
BITMAP
FC07E0
7C07C0
3E0F80
3E0F80
1F0F00
1F1F00
0F1E00
0FBE00
07BC00
07FC00
03F800
03F800
01F000
01F000
01F000
01F000
01F000
01F000
01F000
01F000
01F000
01F000
ENDCHAR
STARTCHAR uni04AF
ENCODING 1199
SWIDTH 600 0
DWIDTH 19 0
BBX 17 22 1 -6
BITMAP
F80F80
780F00
7C1F00
7C1F00
3C1E00
3E3E00
1E3C00
1E3C00
1F3C00
0F7800
0F7800
0FF800
07F000
07F000
03E000
03E000
03E000
03E000
03E000
03E000
03E000
03E000
ENDCHAR
STARTCHAR uni04B0
ENCODING 1200
SWIDTH 600 0
DWIDTH 19 0
BBX 19 22 0 0
BITMAP
FC07E0
7C07C0
3E0780
3E0F80
1F0F00
1F1F00
1F1F00
0FBE00
0FBE00
07FC00
07FC00
03F800
03F800
01F000
1FFF00
1FFF00
1FFF00
1FFF00
01F000
01F000
01F000
01F000
ENDCHAR
STARTCHAR uni04B1
ENCODING 1201
SWIDTH 600 0
DWIDTH 19 0
BBX 17 22 1 -6
BITMAP
F80F80
780F00
7C1F00
7C1F00
3C1E00
3E3E00
1E3C00
1E3C00
1F3C00
0F7800
0F7800
0FF800
07F000
07F000
03E000
03E000
3FFE00
3FFE00
3FFE00
3FFE00
03E000
03E000
ENDCHAR
STARTCHAR uni04B2
ENCODING 1202
SWIDTH 600 0
DWIDTH 19 0
BBX 19 26 0 -4
BITMAP
7C07C0
7E0F80
3E0F80
1F1F00
1F1F00
0FBE00
0FBE00
07FC00
07F800
03F800
03F000
03F800
07F800
07FC00
0FFC00
0F3E00
1F3E00
1F1F00
3E1FE0
3C0FE0
7C0FE0
7807E0
8003E0
0003E0
0003E0
0003E0
ENDCHAR
STARTCHAR uni04B3
ENCODING 1203
SWIDTH 600 0
DWIDTH 19 0
BBX 17 20 1 -4
BITMAP
FC0F80
7E1F00
3E3E00
1F3C00
0F7800
0FF800
07F000
03E000
07F000
07F800
0FF800
1F7C00
3E7F80
3C3F80
7C1F80
F81F80
000780
000780
000780
000780
ENDCHAR
STARTCHAR uni04B6
ENCODING 1206
SWIDTH 600 0
DWIDTH 19 0
BBX 17 26 1 -4
BITMAP
F83E00
F83E00
F83E00
F83E00
F83E00
F83E00
F83E00
F83E00
F83E00
F83E00
FC3E00
7FFE00
7FFE00
3FFE00
1FFE00
003E00
003E00
003E00
003F80
003F80
003F80
003F80
000780
000780
000780
000780
ENDCHAR
STARTCHAR uni04B7
ENCODING 1207
SWIDTH 600 0
DWIDTH 19 0
BBX 16 20 2 -4
BITMAP
F07C
F07C
F07C
F07C
F07C
F07C
F07C
F87C
FFFC
FFFC
7F7C
3E7C
007F
007F
007F
007F
000F
000F
000F
000F
ENDCHAR
STARTCHAR uni04B8
ENCODING 1208
SWIDTH 600 0
DWIDTH 19 0
BBX 16 22 1 0
BITMAP
F80F
F80F
F80F
F80F
F80F
F80F
F9CF
F9CF
F9CF
F9CF
FDCF
7FFF
7FFF
3FFF
0FEF
01CF
01CF
01CF
01CF
000F
000F
000F
ENDCHAR
STARTCHAR uni04B9
ENCODING 1209
SWIDTH 600 0
DWIDTH 19 0
BBX 15 16 2 0
BITMAP
F03E
F03E
F03E
F03E
F3BE
F3BE
F3BE
FBBE
FFFE
FFFE
7FFE
3FBE
03BE
03BE
003E
003E
ENDCHAR
STARTCHAR uni04BA
ENCODING 1210
SWIDTH 600 0
DWIDTH 19 0
BBX 16 22 2 0
BITMAP
F800
F800
F800
F800
F800
F800
F800
FBF0
FFFC
FFFE
FFFE
F83E
F81E
F81F
F81F
F81F
F81F
F81F
F81F
F81F
F81F
F81F
ENDCHAR
STARTCHAR uni04BB
ENCODING 1211
SWIDTH 600 0
DWIDTH 19 0
BBX 15 23 2 0
BITMAP
F800
F800
F800
F800
F800
F800
F800
F8F0
FBF8
FBFC
FFFE
FC7E
F83E
F83E
F83E
F83E
F83E
F83E
F83E
F83E
F83E
F83E
F83E
ENDCHAR
STARTCHAR uni04C0
ENCODING 1216
SWIDTH 600 0
DWIDTH 19 0
BBX 14 22 2 0
BITMAP
FFFC
FFFC
FFFC
FFFC
07C0
07C0
07C0
07C0
07C0
07C0
07C0
07C0
07C0
07C0
07C0
07C0
07C0
07C0
FFFC
FFFC
FFFC
FFFC
ENDCHAR
STARTCHAR uni04C1
ENCODING 1217
SWIDTH 600 0
DWIDTH 19 0
BBX 19 30 0 0
BITMAP
021000
0E0E00
0F1E00
0F1E00
07FC00
07FC00
01F000
000000
79E3C0
79E3C0
79E3C0
79E3C0
79E3C0
39E780
3DE780
3DE780
3DE780
1FFF00
0FFE00
1FFF00
3FFF80
3DE780
3DE780
7DE780
79E7C0
79E3C0
79E3C0
79E3C0
F9E3C0
F9E3E0
ENDCHAR
STARTCHAR uni04C2
ENCODING 1218
SWIDTH 600 0
DWIDTH 19 0
BBX 17 25 1 0
BITMAP
042000
1C1C00
1E3C00
1E3C00
0FF800
0FF800
03E000
000000
000000
F1C780
F1C780
F1C700
79CF00
79CF00
79CF00
3FFE00
1FFC00
3FFE00
7FFF00
79CF00
79CF00
F1CF00
F1C780
F1C780
F1C780
ENDCHAR
STARTCHAR uni04CF
ENCODING 1231
SWIDTH 600 0
DWIDTH 19 0
BBX 15 23 2 0
BITMAP
FFFE
FFFE
FFFE
FFFE
07C0
07C0
07C0
07C0
07C0
07C0
07C0
07C0
07C0
07C0
07C0
07C0
07C0
07C0
07C0
FFFE
FFFE
FFFE
FFFE
ENDCHAR
STARTCHAR uni04D0
ENCODING 1232
SWIDTH 600 0
DWIDTH 19 0
BBX 19 30 0 0
BITMAP
021000
0E0E00
0F1E00
0F1E00
07FC00
07FC00
01F000
000000
03F800
03F800
03F800
07FC00
07FC00
07BC00
0FBE00
0FBE00
0F3E00
0F1E00
1F1F00
1F1F00
1E1F00
1FFF00
3FFF80
3FFF80
3FFF80
3C0F80
7C07C0
7C07C0
7807C0
F803E0
ENDCHAR
STARTCHAR uni04D1
ENCODING 1233
SWIDTH 600 0
DWIDTH 19 0
BBX 16 25 2 0
BITMAP
0840
3870
7C78
3C78
3FF0
1FE0
07C0
0000
0000
0FE0
3FF0
7FF8
FFFC
707C
207C
003C
1FFC
7FFC
FFFC
F03C
F07C
FFFF
FFBF
7F9F
3E0F
ENDCHAR
STARTCHAR uni04D2
ENCODING 1234
SWIDTH 600 0
DWIDTH 19 0
BBX 19 29 0 0
BITMAP
0F1E00
0FBE00
0FBE00
0FBE00
0F1E00
000000
000000
03F800
03F800
03F800
07FC00
07FC00
07BC00
0FBE00
0FBE00
0F3E00
0F1E00
1F1F00
1F1F00
1E1F00
1FFF00
3FFF80
3FFF80
3FFF80
3C0F80
7C07C0
7C07C0
7807C0
F803E0
ENDCHAR
STARTCHAR uni04D3
ENCODING 1235
SWIDTH 600 0
DWIDTH 19 0
BBX 16 23 2 0
BITMAP
3C70
7CF8
7CF8
7CF8
3C70
0000
0000
0FE0
3FF0
7FF8
FFFC
707C
207C
003C
1FFC
7FFC
FFFC
F03C
F07C
FFFF
FFBF
7F9F
3E0F
ENDCHAR
STARTCHAR uni04D4
ENCODING 1236
SWIDTH 600 0
DWIDTH 19 0
BBX 18 22 0 0
BITMAP
07FFC0
07FFC0
0FFFC0
0FFFC0
0F7800
0F7800
0F7800
1E7800
1E7800
1E7FC0
1E7FC0
3E7FC0
3C7FC0
3FF800
3FF800
7FF800
7FF800
787800
787FC0
787FC0
F87FC0
F87FC0
ENDCHAR
STARTCHAR uni04D5
ENCODING 1237
SWIDTH 600 0
DWIDTH 19 0
BBX 18 16 0 0
BITMAP
1F1E00
3FBF80
7FFF80
71F3C0
31E1C0
01E1C0
01FFC0
1FFFC0
7FFFC0
7FE000
F1E000
F1E1C0
F1F3C0
7F7F80
7E7F80
3C1E00
ENDCHAR
STARTCHAR uni04D6
ENCODING 1238
SWIDTH 600 0
DWIDTH 19 0
BBX 13 30 3 0
BITMAP
1080
7870
78F8
78F0
3FE0
1FE0
0F80
0000
FFF8
FFF8
FFF8
FFF8
F000
F000
F000
F000
F000
FFF8
FFF8
FFF8
FFF8
F000
F000
F000
F000
F000
FFF8
FFF8
FFF8
FFF8
ENDCHAR
STARTCHAR uni04D7
ENCODING 1239
SWIDTH 600 0
DWIDTH 19 0
BBX 15 25 2 0
BITMAP
0840
3838
3C78
3C78
1FF0
1FF0
07C0
0000
0000
0FE0
1FF0
3FFC
7FFC
F83E
F01E
FFFE
FFFE
FFFE
F000
F800
FC18
7FFC
7FFE
1FFC
07F0
ENDCHAR
STARTCHAR uni04D8
ENCODING 1240
SWIDTH 600 0
DWIDTH 19 0
BBX 17 22 1 0
BITMAP
07F000
1FFC00
3FFE00
3FFE00
7E3F00
7C1F00
780F00
080F80
000F80
FFFF80
FFFF80
FFFF80
FFFF80
F80F80
F80F80
780F00
781F00
7C1F00
3FFE00
3FFE00
1FFC00
07F000
ENDCHAR
STARTCHAR uni04D9
ENCODING 1241
SWIDTH 600 0
DWIDTH 19 0
BBX 15 16 2 0
BITMAP
0FC0
3FF0
FFF8
7FFC
307E
003E
001E
FFFE
FFFE
FFFE
F01E
F83E
7FFC
7FF8
3FF0
0FE0
ENDCHAR
STARTCHAR uni04DC
ENCODING 1244
SWIDTH 600 0
DWIDTH 19 0
BBX 19 29 0 0
BITMAP
0F1E00
0FBE00
0FBE00
0FBE00
0F1E00
000000
000000
79E3C0
79E3C0
79E3C0
79E3C0
79E3C0
39E780
3DE780
3DE780
3DE780
1FFF00
0FFE00
1FFF00
3FFF80
3DE780
3DE780
7DE780
79E7C0
79E3C0
79E3C0
79E3C0
F9E3C0
F9E3E0
ENDCHAR
STARTCHAR uni04DD
ENCODING 1245
SWIDTH 600 0
DWIDTH 19 0
BBX 17 23 1 0
BITMAP
1E3C00
1F7C00
1F7C00
1F7C00
1E3C00
000000
000000
F1C780
F1C780
F1C700
79CF00
79CF00
79CF00
3FFE00
1FFC00
3FFE00
7FFF00
79CF00
79CF00
F1CF00
F1C780
F1C780
F1C780
ENDCHAR
STARTCHAR uni04DE
ENCODING 1246
SWIDTH 600 0
DWIDTH 19 0
BBX 16 29 1 0
BITMAP
1C38
3E7C
3E7C
3E7C
1E38
0000
0000
07F0
1FFC
3FFE
7FFE
3C3F
101F
001F
001E
003E
07FC
07F0
07FC
07FE
003F
001F
001F
301F
7C3F
7FFE
FFFE
3FF8
0FE0
ENDCHAR
STARTCHAR uni04DF
ENCODING 1247
SWIDTH 600 0
DWIDTH 19 0
BBX 15 23 2 0
BITMAP
3C78
3EF8
3EF8
3EF8
3C78
0000
0000
0FE0
3FF8
7FFC
FFFC
783E
203C
07F8
07F0
07FC
003C
203E
703E
FFFE
7FFC
3FF8
0FE0
ENDCHAR
STARTCHAR uni04E2
ENCODING 1250
SWIDTH 600 0
DWIDTH 19 0
BBX 15 27 2 0
BITMAP
1FF0
1FF0
1FF0
0000
0000
F03E
F03E
F07E
F07E
F07E
F0FE
F0FE
F1FE
F1DE
F3DE
F3DE
F79E
F79E
FF1E
FF1E
FE1E
FE1E
FC1E
FC1E
F81E
F81E
F01E
ENDCHAR
STARTCHAR uni04E3
ENCODING 1251
SWIDTH 600 0
DWIDTH 19 0
BBX 15 22 2 0
BITMAP
1FF0
1FF0
1FF0
0000
0000
0000
F83E
F83E
F87E
F8FE
F8FE
F9FE
F9DE
FBDE
FFBE
F7BE
FF3E
FE3E
FE3E
FC3E
FC3E
F83E
ENDCHAR
STARTCHAR uni04E4
ENCODING 1252
SWIDTH 600 0
DWIDTH 19 0
BBX 15 29 2 0
BITMAP
3C78
3EF8
3EF8
3EF8
3C78
0000
0000
F03E
F03E
F07E
F07E
F07E
F0FE
F0FE
F1FE
F1DE
F3DE
F3DE
F79E
F79E
FF1E
FF1E
FE1E
FE1E
FC1E
FC1E
F81E
F81E
F01E
ENDCHAR
STARTCHAR uni04E5
ENCODING 1253
SWIDTH 600 0
DWIDTH 19 0
BBX 15 23 2 0
BITMAP
3C78
3EF8
3EF8
3E78
3C78
0000
0000
F83E
F83E
F87E
F8FE
F8FE
F9FE
F9DE
FBDE
FFBE
F7BE
FF3E
FE3E
FE3E
FC3E
FC3E
F83E
ENDCHAR
STARTCHAR uni04E6
ENCODING 1254
SWIDTH 600 0
DWIDTH 19 0
BBX 17 29 1 0
BITMAP
1E3C00
1F7C00
1F7C00
1F7C00
1E3C00
000000
000000
07F000
1FFC00
3FFE00
3FFE00
7E3F00
7C1F00
780F00
F80F80
F80F80
F80F80
F80F80
F80F80
F80F80
F80F80
F80F80
780F00
7C1F00
7E3F00
3FFE00
3FFE00
1FFC00
07F000
ENDCHAR
STARTCHAR uni04E7
ENCODING 1255
SWIDTH 600 0
DWIDTH 19 0
BBX 17 23 1 0
BITMAP
1E3C00
1F7C00
1F7C00
1F7C00
1E3C00
000000
000000
07F000
1FFC00
3FFE00
3FFE00
7C3F00
7C1F00
780F00
F80F80
F80F80
780F00
7C1F00
7C1F00
3FFE00
3FFE00
1FFC00
07F000
ENDCHAR
STARTCHAR uni04E8
ENCODING 1256
SWIDTH 600 0
DWIDTH 19 0
BBX 17 22 1 0
BITMAP
07F000
1FFC00
3FFE00
3FFE00
7C1F00
780F00
780F00
F80F80
F80F80
FFFF80
FFFF80
FFFF80
FFFF80
F80F80
F80F80
780F00
780F00
7C1F00
3FFE00
3FFE00
1FFC00
07F000
ENDCHAR
STARTCHAR uni04E9
ENCODING 1257
SWIDTH 600 0
DWIDTH 19 0
BBX 17 16 1 0
BITMAP
07F000
1FFC00
3FFE00
3FFE00
7C1F00
780F00
7FFF00
FFFF80
FFFF80
780F00
780F00
7C1F00
3FFE00
3FFE00
1FFC00
07F000
ENDCHAR
STARTCHAR uni04EE
ENCODING 1262
SWIDTH 600 0
DWIDTH 19 0
BBX 17 27 1 0
BITMAP
0FF800
0FF800
0FF800
000000
000000
F80780
F80F80
7C0F80
7C0F00
3C1F00
3E1E00
3E1E00
1F3E00
1F3C00
0F3C00
0F7C00
07F800
07F800
07F000
03F000
03F000
01E000
01E000
1FE000
1FC000
1F8000
1F0000
ENDCHAR
STARTCHAR uni04EF
ENCODING 1263
SWIDTH 600 0
DWIDTH 19 0
BBX 17 28 1 -6
BITMAP
0FF800
0FF800
0FF800
000000
000000
000000
F80F80
F80F80
7C0F00
7C1F00
3C1E00
3E1E00
3E3E00
1E3C00
1F3C00
0F7800
0F7800
0FF800
07F000
07F000
03E000
03E000
03C000
07C000
7FC000
7F8000
7F0000
7E0000
ENDCHAR
STARTCHAR uni04F0
ENCODING 1264
SWIDTH 600 0
DWIDTH 19 0
BBX 17 29 1 0
BITMAP
1E3C00
1F3E00
1F3E00
1F3E00
1E3C00
000000
000000
F80780
F80F80
7C0F80
7C0F00
3C1F00
3E1E00
3E1E00
1F3E00
1F3C00
0F3C00
0F7C00
07F800
07F800
07F000
03F000
03F000
01E000
01E000
1FE000
1FC000
1F8000
1F0000
ENDCHAR
STARTCHAR uni04F1
ENCODING 1265
SWIDTH 600 0
DWIDTH 19 0
BBX 17 29 1 -6
BITMAP
1E3C00
1F3C00
1F7C00
1F3C00
1E3C00
000000
000000
F80F80
F80F80
7C0F00
7C1F00
3C1E00
3E1E00
3E3E00
1E3C00
1F3C00
0F7800
0F7800
0FF800
07F000
07F000
03E000
03E000
03C000
07C000
7FC000
7F8000
7F0000
7E0000
ENDCHAR
STARTCHAR uni04F2
ENCODING 1266
SWIDTH 600 0
DWIDTH 19 0
BBX 17 30 1 0
BITMAP
030400
03CF00
079F00
079E00
0F3C00
0E3800
141800
000000
F80780
F80F80
7C0F80
7C0F00
3C1F00
3E1E00
3E1E00
1F3E00
1F3C00
0F3C00
0F7C00
07F800
07F800
07F000
03F000
03F000
01E000
01E000
1FE000
1FC000
1F8000
1F0000
ENDCHAR
STARTCHAR uni04F3
ENCODING 1267
SWIDTH 600 0
DWIDTH 19 0
BBX 17 31 1 -6
BITMAP
030C00
03CF00
079F00
0F9E00
0F3C00
1E3800
041800
000000
000000
F80F80
F80F80
7C0F00
7C1F00
3C1E00
3E1E00
3E3E00
1E3C00
1F3C00
0F7800
0F7800
0FF800
07F000
07F000
03E000
03E000
03C000
07C000
7FC000
7F8000
7F0000
7E0000
ENDCHAR
STARTCHAR uni04F4
ENCODING 1268
SWIDTH 600 0
DWIDTH 19 0
BBX 16 29 1 0
BITMAP
1E38
3E7C
3E7C
3E7C
1C38
0000
0000
F81F
F81F
F81F
F81F
F81F
F81F
F81F
F81F
F81F
F81F
7C1F
7FFF
7FFF
3FFF
0FDF
001F
001F
001F
001F
001F
001F
001F
ENDCHAR
STARTCHAR uni04F5
ENCODING 1269
SWIDTH 600 0
DWIDTH 19 0
BBX 14 23 2 0
BITMAP
3C70
7CF8
7CF8
7CF8
3C70
0000
0000
F83C
F83C
F83C
F83C
F83C
F83C
F83C
F87C
FFFC
7FFC
7FBC
3F3C
003C
003C
003C
003C
ENDCHAR
STARTCHAR uni04F8
ENCODING 1272
SWIDTH 600 0
DWIDTH 19 0
BBX 17 29 1 0
BITMAP
1E3C00
1F7C00
1F7C00
1F7C00
1E3C00
000000
000000
F00780
F00780
F00780
F00780
F00780
F00780
F00780
F00780
FF0780
FF8780
FFC780
FFE780
F1E780
F1E780
F1E780
F1E780
F1E780
F1E780
FFE780
FFC780
FF8780
FF0780
ENDCHAR
STARTCHAR uni04F9
ENCODING 1273
SWIDTH 600 0
DWIDTH 19 0
BBX 17 23 1 0
BITMAP
1E3C00
1F7C00
1F7C00
1F7C00
1E3C00
000000
000000
F00780
F00780
F00780
F00780
FF0780
FFC780
FFC780
FFE780
F1E780
F1E780
F1E780
F1E780
FFE780
FFC780
FFC780
FF0780
ENDCHAR
STARTCHAR uni0E3F
ENCODING 3647
SWIDTH 600 0
DWIDTH 19 0
BBX 16 30 2 -4
BITMAP
0380
0380
0380
0380
FFF0
FFF8
FFFC
FFFE
F3BE
F39E
F39E
F39E
F3BC
FFFC
FFF0
FFFC
FFFE
F39E
F39F
F39F
F39F
F39F
FFFE
FFFE
FFFC
FFF0
0380
0380
0380
0380
ENDCHAR
STARTCHAR Wgrave
ENCODING 7808
SWIDTH 600 0
DWIDTH 19 0
BBX 17 30 1 0
BITMAP
030000
0F8000
078000
07C000
03C000
01E000
008000
000000
F00380
F00380
F00780
F00780
F00780
F3E780
F3E780
F3E780
F3E780
F3E780
F36780
F77780
F77780
F77780
F77780
F77780
773700
7E3F00
7E3F00
7E3F00
7E3F00
7E3F00
ENDCHAR
STARTCHAR wgrave
ENCODING 7809
SWIDTH 600 0
DWIDTH 19 0
BBX 19 25 0 0
BITMAP
018000
07C000
03C000
03E000
01E000
00F000
004000
000000
000000
F1F1E0
71F1C0
71F1C0
79F1C0
79F1C0
79B3C0
79BBC0
7BBBC0
7BBBC0
3BBB80
3BBB80
3B1B80
3B1B80
3F1F80
3F1F80
3F1F80
ENDCHAR
STARTCHAR Wacute
ENCODING 7810
SWIDTH 600 0
DWIDTH 19 0
BBX 17 30 1 0
BITMAP
006000
00F800
00F000
01F000
01E000
03C000
008000
000000
F00380
F00380
F00780
F00780
F00780
F3E780
F3E780
F3E780
F3E780
F3E780
F36780
F77780
F77780
F77780
F77780
F77780
773700
7E3F00
7E3F00
7E3F00
7E3F00
7E3F00
ENDCHAR
STARTCHAR wacute
ENCODING 7811
SWIDTH 600 0
DWIDTH 19 0
BBX 19 25 0 0
BITMAP
003000
007C00
007800
00F800
00F000
01E000
004000
000000
000000
F1F1E0
71F1C0
71F1C0
79F1C0
79F1C0
79B3C0
79BBC0
7BBBC0
7BBBC0
3BBB80
3BBB80
3B1B80
3B1B80
3F1F80
3F1F80
3F1F80
ENDCHAR
STARTCHAR Wdieresis
ENCODING 7812
SWIDTH 600 0
DWIDTH 19 0
BBX 17 29 1 0
BITMAP
1E3C00
1F7C00
1F7C00
1F7C00
1E3C00
000000
000000
F00380
F00380
F00780
F00780
F00780
F3E780
F3E780
F3E780
F3E780
F3E780
F36780
F77780
F77780
F77780
F77780
F77780
773700
7E3F00
7E3F00
7E3F00
7E3F00
7E3F00
ENDCHAR
STARTCHAR wdieresis
ENCODING 7813
SWIDTH 600 0
DWIDTH 19 0
BBX 19 23 0 0
BITMAP
0F1E00
0FBE00
0FBE00
0FBE00
0F1E00
000000
000000
F1F1E0
71F1C0
71F1C0
79F1C0
79F1C0
79B3C0
79BBC0
7BBBC0
7BBBC0
3BBB80
3BBB80
3B1B80
3B1B80
3F1F80
3F1F80
3F1F80
ENDCHAR
STARTCHAR uni1E9E
ENCODING 7838
SWIDTH 600 0
DWIDTH 19 0
BBX 17 22 2 0
BITMAP
FFFE00
FFFE00
FFFE00
FFFE00
F03E00
F07C00
F07800
F0F000
F1F000
F1FE00
F1FF00
F1FF00
F01F80
F00F80
F00F80
F00F80
F00F80
F11F00
F3FF00
F3FE00
F7FE00
F1F800
ENDCHAR
STARTCHAR uni1EA0
ENCODING 7840
SWIDTH 600 0
DWIDTH 19 0
BBX 19 29 0 -7
BITMAP
03F800
03F800
03F800
07FC00
07FC00
07BC00
0FBE00
0FBE00
0F3E00
0F1E00
1F1F00
1F1F00
1E1F00
1FFF00
3FFF80
3FFF80
3FFF80
3C0F80
7C07C0
7C07C0
7807C0
F803E0
000000
000000
01E000
01F000
01F000
01F000
00E000
ENDCHAR
STARTCHAR uni1EA1
ENCODING 7841
SWIDTH 600 0
DWIDTH 19 0
BBX 16 23 2 -7
BITMAP
0FE0
3FF0
7FF8
FFFC
707C
207C
003C
1FFC
7FFC
FFFC
F03C
F07C
FFFF
FFBF
7F9F
3E0F
0000
0000
0780
0780
07C0
0780
0780
ENDCHAR
STARTCHAR uni1EA2
ENCODING 7842
SWIDTH 600 0
DWIDTH 19 0
BBX 19 30 0 0
BITMAP
03F000
03F800
03F800
007800
007000
00F000
006000
000000
03F800
03F800
03F800
07FC00
07FC00
07BC00
0FBE00
0FBE00
0F3E00
0F1E00
1F1F00
1F1F00
1E1F00
1FFF00
3FFF80
3FFF80
3FFF80
3C0F80
7C07C0
7C07C0
7807C0
F803E0
ENDCHAR
STARTCHAR uni1EA3
ENCODING 7843
SWIDTH 600 0
DWIDTH 19 0
BBX 16 24 2 0
BITMAP
1FC0
1FE0
1FE0
01E0
03C0
0380
0180
0000
0FE0
3FF0
7FF8
FFFC
707C
207C
003C
1FFC
7FFC
FFFC
F03C
F07C
FFFF
FFBF
7F9F
3E0F
ENDCHAR
STARTCHAR uni1EA4
ENCODING 7844
SWIDTH 600 0
DWIDTH 19 0
BBX 19 35 0 0
BITMAP
000180
0003E0
0003C0
000780
000780
01EF00
03F200
03F800
07FC00
0F3E00
1E1E00
040400
000000
03F800
03F800
03F800
07FC00
07FC00
07BC00
0FBE00
0FBE00
0F3E00
0F1E00
1F1F00
1F1F00
1E1F00
1FFF00
3FFF80
3FFF80
3FFF80
3C0F80
7C07C0
7C07C0
7807C0
F803E0
ENDCHAR
STARTCHAR uni1EA5
ENCODING 7845
SWIDTH 600 0
DWIDTH 19 0
BBX 17 29 2 0
BITMAP
000600
000F80
000F00
001E00
001C00
07BC00
0FD800
1FE000
3FF000
7CF800
387000
102000
000000
0FE000
3FF000
7FF800
FFFC00
707C00
207C00
003C00
1FFC00
7FFC00
FFFC00
F03C00
F07C00
FFFF00
FFBF00
7F9F00
3E0F00
ENDCHAR
STARTCHAR uni1EA6
ENCODING 7846
SWIDTH 600 0
DWIDTH 19 0
BBX 19 35 0 0
BITMAP
300000
F00000
F80000
780000
3C0000
1DE000
0BF000
03F800
07FC00
0F3E00
1E1E00
040400
000000
03F800
03F800
03F800
07FC00
07FC00
07BC00
0FBE00
0FBE00
0F3E00
0F1E00
1F1F00
1F1F00
1E1F00
1FFF00
3FFF80
3FFF80
3FFF80
3C0F80
7C07C0
7C07C0
7807C0
F803E0
ENDCHAR
STARTCHAR uni1EA7
ENCODING 7847
SWIDTH 600 0
DWIDTH 19 0
BBX 18 29 0 0
BITMAP
200000
F00000
F00000
780000
380000
1DE000
1BF000
07F800
0FFC00
1F3E00
0E1C00
040800
000000
03F800
0FFC00
1FFE00
3FFF00
1C1F00
081F00
000F00
07FF00
1FFF00
3FFF00
3C0F00
3C1F00
3FFFC0
3FEFC0
1FE7C0
0F83C0
ENDCHAR
STARTCHAR uni1EA8
ENCODING 7848
SWIDTH 600 0
DWIDTH 19 0
BBX 19 35 0 0
BITMAP
003F80
003FC0
003FC0
000380
000780
01E700
03F200
03F800
07FC00
0F3E00
1E1E00
040400
000000
03F800
03F800
03F800
07FC00
07FC00
07BC00
0FBE00
0FBE00
0F3E00
0F1E00
1F1F00
1F1F00
1E1F00
1FFF00
3FFF80
3FFF80
3FFF80
3C0F80
7C07C0
7C07C0
7807C0
F803E0
ENDCHAR
STARTCHAR uni1EA9
ENCODING 7849
SWIDTH 600 0
DWIDTH 19 0
BBX 16 29 2 0
BITMAP
00FE
00FE
00FE
000E
001E
079C
0FC8
1FE0
3FF0
7CF8
3870
1020
0000
0FE0
3FF0
7FF8
FFFC
707C
207C
003C
1FFC
7FFC
FFFC
F03C
F07C
FFFF
FFBF
7F9F
3E0F
ENDCHAR
STARTCHAR uni1EAA
ENCODING 7850
SWIDTH 600 0
DWIDTH 19 0
BBX 19 34 0 0
BITMAP
078400
0FFE00
1FFE00
047C00
000000
01E000
03F000
07FC00
0FBE00
1E1E00
040C00
000000
03F800
03F800
03F800
07FC00
07FC00
07BC00
0FBE00
0FBE00
0F3E00
0F1E00
1F1F00
1F1F00
1E1F00
1FFF00
3FFF80
3FFF80
3FFF80
3C0F80
7C07C0
7C07C0
7807C0
F803E0
ENDCHAR
STARTCHAR uni1EAB
ENCODING 7851
SWIDTH 600 0
DWIDTH 19 0
BBX 16 28 2 0
BITMAP
1E10
3FF8
7FF8
21E0
0000
0780
0FC0
1FE0
3CF0
7878
1020
0000
0FE0
3FF0
7FF8
FFFC
707C
207C
003C
1FFC
7FFC
FFFC
F03C
F07C
FFFF
FFBF
7F9F
3E0F
ENDCHAR
STARTCHAR uni1EAC
ENCODING 7852
SWIDTH 600 0
DWIDTH 19 0
BBX 19 37 0 -7
BITMAP
01F000
03F800
03F800
07BC00
0F1E00
1E0F00
040400
000000
03F800
03F800
03F800
07FC00
07FC00
07BC00
0FBE00
0FBE00
0F3E00
0F1E00
1F1F00
1F1F00
1E1F00
1FFF00
3FFF80
3FFF80
3FFF80
3C0F80
7C07C0
7C07C0
7807C0
F803E0
000000
000000
01E000
01F000
01F000
01F000
00E000
ENDCHAR
STARTCHAR uni1EAD
ENCODING 7853
SWIDTH 600 0
DWIDTH 19 0
BBX 16 32 2 -7
BITMAP
07C0
0FC0
1FE0
1FF0
3CF8
7878
1030
0000
0000
0FE0
3FF0
7FF8
FFFC
707C
207C
003C
1FFC
7FFC
FFFC
F03C
F07C
FFFF
FFBF
7F9F
3E0F
0000
0000
0780
0780
07C0
0780
0780
ENDCHAR
STARTCHAR uni1EAE
ENCODING 7854
SWIDTH 600 0
DWIDTH 19 0
BBX 19 35 0 0
BITMAP
003000
003C00
007800
007800
00F000
00E000
054400
1C0F00
1F1E00
0FFE00
07FC00
01F000
000000
03F800
03F800
03F800
07FC00
07FC00
07BC00
0FBE00
0FBE00
0F3E00
0F1E00
1F1F00
1F1F00
1E1F00
1FFF00
3FFF80
3FFF80
3FFF80
3C0F80
7C07C0
7C07C0
7807C0
F803E0
ENDCHAR
STARTCHAR uni1EAF
ENCODING 7855
SWIDTH 600 0
DWIDTH 19 0
BBX 16 29 2 0
BITMAP
00C0
01F0
01E0
03C0
03C0
0780
2110
7038
7878
3FF0
1FE0
0FC0
0000
0FE0
3FF0
7FF8
FFFC
707C
207C
003C
1FFC
7FFC
FFFC
F03C
F07C
FFFF
FFBF
7F9F
3E0F
ENDCHAR
STARTCHAR uni1EB0
ENCODING 7856
SWIDTH 600 0
DWIDTH 19 0
BBX 19 35 0 0
BITMAP
010000
078000
078000
03C000
01E000
00E000
04C400
1C0F00
1F1E00
0FFE00
07FC00
01F000
000000
03F800
03F800
03F800
07FC00
07FC00
07BC00
0FBE00
0FBE00
0F3E00
0F1E00
1F1F00
1F1F00
1E1F00
1FFF00
3FFF80
3FFF80
3FFF80
3C0F80
7C07C0
7C07C0
7807C0
F803E0
ENDCHAR
STARTCHAR uni1EB1
ENCODING 7857
SWIDTH 600 0
DWIDTH 19 0
BBX 16 29 2 0
BITMAP
0C00
3E00
1E00
0F00
0700
0780
2210
7038
7878
3FF0
1FE0
0FC0
0000
0FE0
3FF0
7FF8
FFFC
707C
207C
003C
1FFC
7FFC
FFFC
F03C
F07C
FFFF
FFBF
7F9F
3E0F
ENDCHAR
STARTCHAR uni1EB2
ENCODING 7858
SWIDTH 600 0
DWIDTH 19 0
BBX 19 34 0 0
BITMAP
07F000
07F000
07F800
007000
00F000
04E400
1C4F00
1F1E00
0FFE00
07FC00
01F000
000000
03F800
03F800
03F800
07FC00
07FC00
07BC00
0FBE00
0FBE00
0F3E00
0F1E00
1F1F00
1F1F00
1E1F00
1FFF00
3FFF80
3FFF80
3FFF80
3C0F80
7C07C0
7C07C0
7807C0
F803E0
ENDCHAR
STARTCHAR uni1EB3
ENCODING 7859
SWIDTH 600 0
DWIDTH 19 0
BBX 16 28 2 0
BITMAP
1F80
1FC0
1FC0
01C0
0380
2390
7738
7878
3FF0
1FE0
0FC0
0000
0FE0
3FF0
7FF8
FFFC
707C
207C
003C
1FFC
7FFC
FFFC
F03C
F07C
FFFF
FFBF
7F9F
3E0F
ENDCHAR
STARTCHAR uni1EB4
ENCODING 7860
SWIDTH 600 0
DWIDTH 19 0
BBX 19 34 0 0
BITMAP
078400
0FFE00
1FFE00
047C00
000000
040400
1C0F00
0F1E00
0FFC00
07FC00
01F000
000000
03F800
03F800
03F800
07FC00
07FC00
07BC00
0FBE00
0FBE00
0F3E00
0F1E00
1F1F00
1F1F00
1E1F00
1FFF00
3FFF80
3FFF80
3FFF80
3C0F80
7C07C0
7C07C0
7807C0
F803E0
ENDCHAR
STARTCHAR uni1EB5
ENCODING 7861
SWIDTH 600 0
DWIDTH 19 0
BBX 16 28 2 0
BITMAP
1E10
7FF0
3FF8
21E0
0000
2010
7038
7878
3FF0
1FE0
0FC0
0000
0FE0
3FF0
7FF8
FFFC
707C
207C
003C
1FFC
7FFC
FFFC
F03C
F07C
FFFF
FFBF
7F9F
3E0F
ENDCHAR
STARTCHAR uni1EB6
ENCODING 7862
SWIDTH 600 0
DWIDTH 19 0
BBX 19 36 0 -7
BITMAP
0E0E00
1E0F00
0F1E00
07FC00
03F800
01F000
000000
03F800
03F800
03F800
07FC00
07FC00
07BC00
0FBE00
0FBE00
0F3E00
0F1E00
1F1F00
1F1F00
1E1F00
1FFF00
3FFF80
3FFF80
3FFF80
3C0F80
7C07C0
7C07C0
7807C0
F803E0
000000
000000
01E000
01F000
01F000
01F000
00E000
ENDCHAR
STARTCHAR uni1EB7
ENCODING 7863
SWIDTH 600 0
DWIDTH 19 0
BBX 16 31 2 -7
BITMAP
3030
7878
3C78
3FF0
1FE0
07C0
0000
0000
0FE0
3FF0
7FF8
FFFC
707C
207C
003C
1FFC
7FFC
FFFC
F03C
F07C
FFFF
FFBF
7F9F
3E0F
0000
0000
0780
0780
07C0
0780
0780
ENDCHAR
STARTCHAR uni1EB8
ENCODING 7864
SWIDTH 600 0
DWIDTH 19 0
BBX 13 29 3 -7
BITMAP
FFF8
FFF8
FFF8
FFF8
F000
F000
F000
F000
F000
FFF8
FFF8
FFF8
FFF8
F000
F000
F000
F000
F000
FFF8
FFF8
FFF8
FFF8
0000
0000
0700
0F80
0F80
0F80
0700
ENDCHAR
STARTCHAR uni1EB9
ENCODING 7865
SWIDTH 600 0
DWIDTH 19 0
BBX 15 23 2 -7
BITMAP
0FE0
1FF0
3FFC
7FFC
F83E
F01E
FFFE
FFFE
FFFE
F000
F800
FC18
7FFC
7FFE
1FFC
07F0
0000
0000
0380
07C0
07C0
07C0
0380
ENDCHAR
STARTCHAR uni1EBA
ENCODING 7866
SWIDTH 600 0
DWIDTH 19 0
BBX 13 30 3 0
BITMAP
1F80
1FC0
1FC0
03C0
0380
0780
0300
0000
FFF8
FFF8
FFF8
FFF8
F000
F000
F000
F000
F000
FFF8
FFF8
FFF8
FFF8
F000
F000
F000
F000
F000
FFF8
FFF8
FFF8
FFF8
ENDCHAR
STARTCHAR uni1EBB
ENCODING 7867
SWIDTH 600 0
DWIDTH 19 0
BBX 15 24 2 0
BITMAP
0FC0
0FE0
0FE0
01E0
01C0
03C0
0180
0000
0FE0
1FF0
3FFC
7FFC
F83E
F01E
FFFE
FFFE
FFFE
F000
F800
FC18
7FFC
7FFE
1FFC
07F0
ENDCHAR
STARTCHAR uni1EBC
ENCODING 7868
SWIDTH 600 0
DWIDTH 19 0
BBX 13 28 3 0
BITMAP
3E20
7FF0
7FF0
23E0
0000
0000
FFF8
FFF8
FFF8
FFF8
F000
F000
F000
F000
F000
FFF8
FFF8
FFF8
FFF8
F000
F000
F000
F000
F000
FFF8
FFF8
FFF8
FFF8
ENDCHAR
STARTCHAR uni1EBD
ENCODING 7869
SWIDTH 600 0
DWIDTH 19 0
BBX 15 22 2 0
BITMAP
1F10
3FF8
3FF8
11F0
0000
0000
0FE0
1FF0
3FFC
7FFC
F83E
F01E
FFFE
FFFE
FFFE
F000
F800
FC18
7FFC
7FFE
1FFC
07F0
ENDCHAR
STARTCHAR uni1EBE
ENCODING 7870
SWIDTH 600 0
DWIDTH 19 0
BBX 16 35 3 0
BITMAP
000C
001F
001E
003C
003C
0F78
0F90
1FC0
3FE0
79F0
F0F0
2020
0000
FFF8
FFF8
FFF8
FFF8
F000
F000
F000
F000
F000
FFF8
FFF8
FFF8
FFF8
F000
F000
F000
F000
F000
FFF8
FFF8
FFF8
FFF8
ENDCHAR
STARTCHAR uni1EBF
ENCODING 7871
SWIDTH 600 0
DWIDTH 19 0
BBX 17 29 2 0
BITMAP
000600
000F80
000F00
001E00
001E00
07BC00
0FC800
0FE000
1FF000
3CF800
787800
101000
000000
0FE000
1FF000
3FFC00
7FFC00
F83E00
F01E00
FFFE00
FFFE00
FFFE00
F00000
F80000
FC1800
7FFC00
7FFE00
1FFC00
07F000
ENDCHAR
STARTCHAR uni1EC0
ENCODING 7872
SWIDTH 600 0
DWIDTH 19 0
BBX 16 35 0 0
BITMAP
3000
F000
7800
7800
3C00
1DE0
09F0
03F8
07FC
0F3E
1E1E
0404
0000
1FFF
1FFF
1FFF
1FFF
1E00
1E00
1E00
1E00
1E00
1FFF
1FFF
1FFF
1FFF
1E00
1E00
1E00
1E00
1E00
1FFF
1FFF
1FFF
1FFF
ENDCHAR
STARTCHAR uni1EC1
ENCODING 7873
SWIDTH 600 0
DWIDTH 19 0
BBX 17 29 0 0
BITMAP
300000
F00000
780000
780000
3C0000
1DE000
0BF000
03F800
07FC00
0F3E00
1E1E00
040400
000000
03F800
07FC00
0FFF00
1FFF00
3E0F80
3C0780
3FFF80
3FFF80
3FFF80
3C0000
3E0000
3F0600
1FFF00
1FFF80
07FF00
01FC00
ENDCHAR
STARTCHAR uni1EC2
ENCODING 7874
SWIDTH 600 0
DWIDTH 19 0
BBX 15 35 3 0
BITMAP
00FC
00FE
00FE
001C
001C
0F38
0F90
1FC0
3FE0
79F0
F0F0
2020
0000
FFF8
FFF8
FFF8
FFF8
F000
F000
F000
F000
F000
FFF8
FFF8
FFF8
FFF8
F000
F000
F000
F000
F000
FFF8
FFF8
FFF8
FFF8
ENDCHAR
STARTCHAR uni1EC3
ENCODING 7875
SWIDTH 600 0
DWIDTH 19 0
BBX 16 29 2 0
BITMAP
00FE
00FF
00FF
000E
001E
079C
0FC8
0FE0
1FF0
3CF8
7878
1010
0000
0FE0
1FF0
3FFC
7FFC
F83E
F01E
FFFE
FFFE
FFFE
F000
F800
FC18
7FFC
7FFE
1FFC
07F0
ENDCHAR
STARTCHAR uni1EC4
ENCODING 7876
SWIDTH 600 0
DWIDTH 19 0
BBX 13 34 3 0
BITMAP
3E20
7FF0
7FF0
23E0
0000
0F00
1FC0
3FE0
7DF0
F8F0
2060
0000
FFF8
FFF8
FFF8
FFF8
F000
F000
F000
F000
F000
FFF8
FFF8
FFF8
FFF8
F000
F000
F000
F000
F000
FFF8
FFF8
FFF8
FFF8
ENDCHAR
STARTCHAR uni1EC5
ENCODING 7877
SWIDTH 600 0
DWIDTH 19 0
BBX 15 28 2 0
BITMAP
1F10
3FF8
7FF8
11F0
0000
0780
0FC0
1FF0
3EF8
7878
1030
0000
0FE0
1FF0
3FFC
7FFC
F83E
F01E
FFFE
FFFE
FFFE
F000
F800
FC18
7FFC
7FFE
1FFC
07F0
ENDCHAR
STARTCHAR uni1EC6
ENCODING 7878
SWIDTH 600 0
DWIDTH 19 0
BBX 13 37 3 -7
BITMAP
0F80
1FC0
1FE0
3DE0
78F0
7078
2020
0000
FFF8
FFF8
FFF8
FFF8
F000
F000
F000
F000
F000
FFF8
FFF8
FFF8
FFF8
F000
F000
F000
F000
F000
FFF8
FFF8
FFF8
FFF8
0000
0000
0700
0F80
0F80
0F80
0700
ENDCHAR
STARTCHAR uni1EC7
ENCODING 7879
SWIDTH 600 0
DWIDTH 19 0
BBX 15 32 2 -7
BITMAP
07C0
0FE0
0FE0
1EF0
3C78
383C
1010
0000
0000
0FE0
1FF0
3FFC
7FFC
F83E
F01E
FFFE
FFFE
FFFE
F000
F800
FC18
7FFC
7FFE
1FFC
07F0
0000
0000
0380
07C0
07C0
07C0
0380
ENDCHAR
STARTCHAR uni1EC8
ENCODING 7880
SWIDTH 600 0
DWIDTH 19 0
BBX 14 30 2 0
BITMAP
0FC0
0FE0
0FE0
01E0
01C0
03C0
0180
0000
FFFC
FFFC
FFFC
FFFC
07C0
07C0
07C0
07C0
07C0
07C0
07C0
07C0
07C0
07C0
07C0
07C0
07C0
07C0
FFFC
FFFC
FFFC
FFFC
ENDCHAR
STARTCHAR uni1EC9
ENCODING 7881
SWIDTH 600 0
DWIDTH 19 0
BBX 14 24 3 0
BITMAP
0FC0
0FE0
0FE0
01E0
01C0
03C0
0180
0000
FFC0
FFC0
FFC0
FFC0
07C0
07C0
07C0
07C0
07C0
07C0
07C0
07C0
FFFC
FFFC
FFFC
FFFC
ENDCHAR
STARTCHAR uni1ECA
ENCODING 7882
SWIDTH 600 0
DWIDTH 19 0
BBX 14 29 2 -7
BITMAP
FFFC
FFFC
FFFC
FFFC
07C0
07C0
07C0
07C0
07C0
07C0
07C0
07C0
07C0
07C0
07C0
07C0
07C0
07C0
FFFC
FFFC
FFFC
FFFC
0000
0000
0780
07C0
07C0
07C0
0380
ENDCHAR
STARTCHAR uni1ECB
ENCODING 7883
SWIDTH 600 0
DWIDTH 19 0
BBX 15 30 3 -7
BITMAP
0780
07C0
07C0
07C0
0380
0000
0000
FFC0
FFC0
FFC0
FFC0
07C0
07C0
07C0
07C0
07C0
07C0
07C0
07C0
FFFE
FFFE
FFFE
FFFE
0000
0000
0780
07C0
07C0
07C0
0380
ENDCHAR
STARTCHAR uni1ECC
ENCODING 7884
SWIDTH 600 0
DWIDTH 19 0
BBX 17 29 1 -7
BITMAP
07F000
1FFC00
3FFE00
3FFE00
7E3F00
7C1F00
780F00
F80F80
F80F80
F80F80
F80F80
F80F80
F80F80
F80F80
F80F80
780F00
7C1F00
7E3F00
3FFE00
3FFE00
1FFC00
07F000
000000
000000
03C000
03E000
03E000
03E000
01C000
ENDCHAR
STARTCHAR uni1ECD
ENCODING 7885
SWIDTH 600 0
DWIDTH 19 0
BBX 17 23 1 -7
BITMAP
07F000
1FFC00
3FFE00
3FFE00
7C3F00
7C1F00
780F00
F80F80
F80F80
780F00
7C1F00
7C1F00
3FFE00
3FFE00
1FFC00
07F000
000000
000000
03C000
03E000
03E000
03E000
01C000
ENDCHAR
STARTCHAR uni1ECE
ENCODING 7886
SWIDTH 600 0
DWIDTH 19 0
BBX 17 30 1 0
BITMAP
07E000
07F000
07F000
00F000
00E000
01E000
00C000
000000
07F000
1FFC00
3FFE00
3FFE00
7E3F00
7C1F00
780F00
F80F80
F80F80
F80F80
F80F80
F80F80
F80F80
F80F80
F80F80
780F00
7C1F00
7E3F00
3FFE00
3FFE00
1FFC00
07F000
ENDCHAR
STARTCHAR uni1ECF
ENCODING 7887
SWIDTH 600 0
DWIDTH 19 0
BBX 17 24 1 0
BITMAP
07E000
07F000
07F000
00F000
00E000
01E000
00C000
000000
07F000
1FFC00
3FFE00
3FFE00
7C3F00
7C1F00
780F00
F80F80
F80F80
780F00
7C1F00
7C1F00
3FFE00
3FFE00
1FFC00
07F000
ENDCHAR
STARTCHAR uni1ED0
ENCODING 7888
SWIDTH 600 0
DWIDTH 19 0
BBX 18 35 1 0
BITMAP
000300
0007C0
000780
000F00
000F00
03DE00
07E400
07F000
0FF800
1E7C00
3C3C00
080800
000000
07F000
1FFC00
3FFE00
3FFE00
7E3F00
7C1F00
780F00
F80F80
F80F80
F80F80
F80F80
F80F80
F80F80
F80F80
F80F80
780F00
7C1F00
7E3F00
3FFE00
3FFE00
1FFC00
07F000
ENDCHAR
STARTCHAR uni1ED1
ENCODING 7889
SWIDTH 600 0
DWIDTH 19 0
BBX 18 29 1 0
BITMAP
000300
0007C0
000780
000F00
000F00
03DE00
07E400
07F000
0FF800
1E7C00
3C3C00
080800
000000
07F000
1FFC00
3FFE00
3FFE00
7C3F00
7C1F00
780F00
F80F80
F80F80
780F00
7C1F00
7C1F00
3FFE00
3FFE00
1FFC00
07F000
ENDCHAR
STARTCHAR uni1ED2
ENCODING 7890
SWIDTH 600 0
DWIDTH 19 0
BBX 18 35 0 0
BITMAP
300000
F00000
F80000
780000
3C0000
1DE000
0BF000
03F800
07FC00
0F3E00
1E1E00
040400
000000
03F800
0FFE00
1FFF00
1FFF00
3F1F80
3E0F80
3C0780
7C07C0
7C07C0
7C07C0
7C07C0
7C07C0
7C07C0
7C07C0
7C07C0
3C0780
3E0F80
3F1F80
1FFF00
1FFF00
0FFE00
03F800
ENDCHAR
STARTCHAR uni1ED3
ENCODING 7891
SWIDTH 600 0
DWIDTH 19 0
BBX 18 29 0 0
BITMAP
300000
F00000
780000
780000
3C0000
1DE000
0BF000
03F800
07FC00
0F3E00
1E1E00
040400
000000
03F800
0FFE00
1FFF00
1FFF00
3E1F80
3E0F80
3C0780
7C07C0
7C07C0
3C0780
3E0F80
3E0F80
1FFF00
1FFF00
0FFE00
03F800
ENDCHAR
STARTCHAR uni1ED4
ENCODING 7892
SWIDTH 600 0
DWIDTH 19 0
BBX 17 35 1 0
BITMAP
007F00
007F80
007F80
000700
000F00
03CE00
07E400
07F000
0FF800
1E7C00
3C3C00
080800
000000
07F000
1FFC00
3FFE00
3FFE00
7E3F00
7C1F00
780F00
F80F80
F80F80
F80F80
F80F80
F80F80
F80F80
F80F80
F80F80
780F00
7C1F00
7E3F00
3FFE00
3FFE00
1FFC00
07F000
ENDCHAR
STARTCHAR uni1ED5
ENCODING 7893
SWIDTH 600 0
DWIDTH 19 0
BBX 17 29 1 0
BITMAP
007F00
007F80
007F80
000700
000F00
03CE00
07E400
07F000
0FF800
1E7C00
3C3C00
080800
000000
07F000
1FFC00
3FFE00
3FFE00
7C3F00
7C1F00
780F00
F80F80
F80F80
780F00
7C1F00
7C1F00
3FFE00
3FFE00
1FFC00
07F000
ENDCHAR
STARTCHAR uni1ED6
ENCODING 7894
SWIDTH 600 0
DWIDTH 19 0
BBX 17 34 1 0
BITMAP
0F0800
1FFC00
3FFC00
08F800
000000
03C000
07E000
0FF800
1F7C00
3C3C00
081800
000000
07F000
1FFC00
3FFE00
3FFE00
7E3F00
7C1F00
780F00
F80F80
F80F80
F80F80
F80F80
F80F80
F80F80
F80F80
F80F80
780F00
7C1F00
7E3F00
3FFE00
3FFE00
1FFC00
07F000
ENDCHAR
STARTCHAR uni1ED7
ENCODING 7895
SWIDTH 600 0
DWIDTH 19 0
BBX 17 28 1 0
BITMAP
0F0800
1FFC00
3FFC00
08F800
000000
03C000
07E000
0FF800
1F7C00
3C3C00
081800
000000
07F000
1FFC00
3FFE00
3FFE00
7C3F00
7C1F00
780F00
F80F80
F80F80
780F00
7C1F00
7C1F00
3FFE00
3FFE00
1FFC00
07F000
ENDCHAR
STARTCHAR uni1ED8
ENCODING 7896
SWIDTH 600 0
DWIDTH 19 0
BBX 17 37 1 -7
BITMAP
03E000
07F000
07F000
0F7800
1E3C00
3C1E00
080800
000000
07F000
1FFC00
3FFE00
3FFE00
7E3F00
7C1F00
780F00
F80F80
F80F80
F80F80
F80F80
F80F80
F80F80
F80F80
F80F80
780F00
7C1F00
7E3F00
3FFE00
3FFE00
1FFC00
07F000
000000
000000
03C000
03E000
03E000
03E000
01C000
ENDCHAR
STARTCHAR uni1ED9
ENCODING 7897
SWIDTH 600 0
DWIDTH 19 0
BBX 17 32 1 -7
BITMAP
03E000
07F000
07F000
0F7800
1E3C00
3C1E00
080800
000000
000000
07F000
1FFC00
3FFE00
3FFE00
7C3F00
7C1F00
780F00
F80F80
F80F80
780F00
7C1F00
7C1F00
3FFE00
3FFE00
1FFC00
07F000
000000
000000
03C000
03E000
03E000
03E000
01C000
ENDCHAR
STARTCHAR uni1EDA
ENCODING 7898
SWIDTH 600 0
DWIDTH 19 0
BBX 18 30 1 0
BITMAP
006000
00F800
00F000
01F000
01E000
03C3C0
0083C0
0003C0
07FFC0
1FFF80
3FFF80
3FFE00
7E3F00
7C1F00
780F80
F80F80
F80F80
F80F80
F80F80
F80F80
F80F80
F80F80
F80F80
780F00
7C1F00
7E3F00
3FFE00
3FFE00
1FFC00
07F000
ENDCHAR
STARTCHAR uni1EDB
ENCODING 7899
SWIDTH 600 0
DWIDTH 19 0
BBX 17 25 1 0
BITMAP
006000
00F800
00F000
01F000
01E000
03C000
008780
000780
000780
07FF80
1FFF80
3FFF80
3FFF00
7C3E00
7C1F00
780F00
F80F00
F80F80
780F00
7C1F00
7C1F00
3FFF00
3FFE00
1FFC00
07F000
ENDCHAR
STARTCHAR uni1EDC
ENCODING 7900
SWIDTH 600 0
DWIDTH 19 0
BBX 18 30 1 0
BITMAP
030000
0F8000
078000
07C000
03C000
01E3C0
0083C0
0003C0
07FFC0
1FFF80
3FFF80
3FFE00
7E3F00
7C1F00
780F80
F80F80
F80F80
F80F80
F80F80
F80F80
F80F80
F80F80
F80F80
780F00
7C1F00
7E3F00
3FFE00
3FFE00
1FFC00
07F000
ENDCHAR
STARTCHAR uni1EDD
ENCODING 7901
SWIDTH 600 0
DWIDTH 19 0
BBX 17 25 1 0
BITMAP
030000
0F8000
078000
07C000
03C000
01E000
008780
000780
000780
07FF80
1FFF80
3FFF80
3FFF00
7C3E00
7C1F00
780F00
F80F00
F80F80
780F00
7C1F00
7C1F00
3FFF00
3FFE00
1FFC00
07F000
ENDCHAR
STARTCHAR uni1EDE
ENCODING 7902
SWIDTH 600 0
DWIDTH 19 0
BBX 18 30 1 0
BITMAP
07E000
07F000
07F000
00F000
00E000
01E3C0
00C3C0
0003C0
07FFC0
1FFF80
3FFF80
3FFE00
7E3F00
7C1F00
780F80
F80F80
F80F80
F80F80
F80F80
F80F80
F80F80
F80F80
F80F80
780F00
7C1F00
7E3F00
3FFE00
3FFE00
1FFC00
07F000
ENDCHAR
STARTCHAR uni1EDF
ENCODING 7903
SWIDTH 600 0
DWIDTH 19 0
BBX 17 24 1 0
BITMAP
07E000
07F000
07F000
00F000
00E000
01E780
00C780
000780
07FF80
1FFF80
3FFF80
3FFF00
7C3E00
7C1F00
780F00
F80F00
F80F80
780F00
7C1F00
7C1F00
3FFF00
3FFE00
1FFC00
07F000
ENDCHAR
STARTCHAR uni1EE0
ENCODING 7904
SWIDTH 600 0
DWIDTH 19 0
BBX 18 28 1 0
BITMAP
0F1000
1FF800
0FF800
00F3C0
0003C0
0003C0
07FFC0
1FFF80
3FFF80
3FFE00
7E3F00
7C1F00
780F80
F80F80
F80F80
F80F80
F80F80
F80F80
F80F80
F80F80
F80F80
780F00
7C1F00
7E3F00
3FFE00
3FFE00
1FFC00
07F000
ENDCHAR
STARTCHAR uni1EE1
ENCODING 7905
SWIDTH 600 0
DWIDTH 19 0
BBX 17 22 1 0
BITMAP
0F1000
1FF800
0FF800
00F780
000780
000780
07FF80
1FFF80
3FFF80
3FFF00
7C3E00
7C1F00
780F00
F80F00
F80F80
780F00
7C1F00
7C1F00
3FFF00
3FFE00
1FFC00
07F000
ENDCHAR
STARTCHAR uni1EE2
ENCODING 7906
SWIDTH 600 0
DWIDTH 19 0
BBX 18 32 1 -7
BITMAP
0003C0
0003C0
0003C0
07FFC0
1FFF80
3FFF80
3FFE00
7E3F00
7C1F00
780F80
F80F80
F80F80
F80F80
F80F80
F80F80
F80F80
F80F80
F80F80
780F00
7C1F00
7E3F00
3FFE00
3FFE00
1FFC00
07F000
000000
000000
03C000
03E000
03E000
03E000
01C000
ENDCHAR
STARTCHAR uni1EE3
ENCODING 7907
SWIDTH 600 0
DWIDTH 19 0
BBX 17 26 1 -7
BITMAP
000780
000780
000780
07FF80
1FFF80
3FFF80
3FFF00
7C3E00
7C1F00
780F00
F80F00
F80F80
780F00
7C1F00
7C1F00
3FFF00
3FFE00
1FFC00
07F000
000000
000000
03C000
03E000
03E000
03E000
01C000
ENDCHAR
STARTCHAR uni1EE4
ENCODING 7908
SWIDTH 600 0
DWIDTH 19 0
BBX 15 29 2 -7
BITMAP
F83E
F83E
F83E
F83E
F83E
F83E
F83E
F83E
F83E
F83E
F83E
F83E
F83E
F83E
F83E
F83E
F83E
FC7E
7FFC
7FFC
3FF8
0FE0
0000
0000
0780
07C0
07C0
07C0
0380
ENDCHAR
STARTCHAR uni1EE5
ENCODING 7909
SWIDTH 600 0
DWIDTH 19 0
BBX 15 23 2 -7
BITMAP
F83E
F83E
F83E
F83E
F83E
F83E
F83E
F83E
F83E
F83E
F83E
FC7E
FFFE
7FBE
3FBE
1F3E
0000
0000
0780
07C0
07C0
07C0
0780
ENDCHAR
STARTCHAR uni1EE6
ENCODING 7910
SWIDTH 600 0
DWIDTH 19 0
BBX 15 30 2 0
BITMAP
0FC0
0FE0
0FE0
01E0
01C0
03C0
0180
0000
F83E
F83E
F83E
F83E
F83E
F83E
F83E
F83E
F83E
F83E
F83E
F83E
F83E
F83E
F83E
F83E
F83E
FC7E
7FFC
7FFC
3FF8
0FE0
ENDCHAR
STARTCHAR uni1EE7
ENCODING 7911
SWIDTH 600 0
DWIDTH 19 0
BBX 15 24 2 0
BITMAP
0FC0
0FE0
0FE0
01E0
01C0
03C0
0180
0000
F83E
F83E
F83E
F83E
F83E
F83E
F83E
F83E
F83E
F83E
F83E
FC7E
FFFE
7FBE
3FBE
1F3E
ENDCHAR
STARTCHAR uni1EE8
ENCODING 7912
SWIDTH 600 0
DWIDTH 19 0
BBX 17 30 2 0
BITMAP
00C000
01F000
01E000
03E000
03C780
078780
010780
000780
F83F80
F83F80
F83F00
F83E00
F83E00
F83E00
F83E00
F83E00
F83E00
F83E00
F83E00
F83E00
F83E00
F83E00
F83E00
F83E00
F83E00
FC7E00
7FFC00
7FFC00
3FF800
0FE000
ENDCHAR
STARTCHAR uni1EE9
ENCODING 7913
SWIDTH 600 0
DWIDTH 19 0
BBX 17 25 2 0
BITMAP
00C000
01F000
01E000
03E000
03C000
078780
010780
000780
000780
F83F80
F83F00
F83F00
F83E00
F83E00
F83E00
F83E00
F83E00
F83E00
F83E00
F83E00
FC7E00
FFFE00
7FBE00
3FBE00
1F3E00
ENDCHAR
STARTCHAR uni1EEA
ENCODING 7914
SWIDTH 600 0
DWIDTH 19 0
BBX 17 30 2 0
BITMAP
060000
1F0000
0F0000
0F8000
078780
03C780
010780
000780
F83F80
F83F80
F83F00
F83E00
F83E00
F83E00
F83E00
F83E00
F83E00
F83E00
F83E00
F83E00
F83E00
F83E00
F83E00
F83E00
F83E00
FC7E00
7FFC00
7FFC00
3FF800
0FE000
ENDCHAR
STARTCHAR uni1EEB
ENCODING 7915
SWIDTH 600 0
DWIDTH 19 0
BBX 17 25 2 0
BITMAP
060000
1F0000
0F0000
0F8000
078000
03C780
010780
000780
000780
F83F80
F83F00
F83F00
F83E00
F83E00
F83E00
F83E00
F83E00
F83E00
F83E00
F83E00
FC7E00
FFFE00
7FBE00
3FBE00
1F3E00
ENDCHAR
STARTCHAR uni1EEC
ENCODING 7916
SWIDTH 600 0
DWIDTH 19 0
BBX 17 30 2 0
BITMAP
0FC000
0FE000
0FE000
01E000
01C780
03C780
018780
000780
F83F80
F83F80
F83F00
F83E00
F83E00
F83E00
F83E00
F83E00
F83E00
F83E00
F83E00
F83E00
F83E00
F83E00
F83E00
F83E00
F83E00
FC7E00
7FFC00
7FFC00
3FF800
0FE000
ENDCHAR
STARTCHAR uni1EED
ENCODING 7917
SWIDTH 600 0
DWIDTH 19 0
BBX 17 24 2 0
BITMAP
0FC000
0FE000
0FE000
01E000
01C780
03C780
018780
000780
F83F80
F83F00
F83F00
F83E00
F83E00
F83E00
F83E00
F83E00
F83E00
F83E00
F83E00
FC7E00
FFFE00
7FBE00
3FBE00
1F3E00
ENDCHAR
STARTCHAR uni1EEE
ENCODING 7918
SWIDTH 600 0
DWIDTH 19 0
BBX 17 28 2 0
BITMAP
1E2000
3FF000
1FF780
01E780
000780
000780
F83F80
F83F80
F83F00
F83E00
F83E00
F83E00
F83E00
F83E00
F83E00
F83E00
F83E00
F83E00
F83E00
F83E00
F83E00
F83E00
F83E00
FC7E00
7FFC00
7FFC00
3FF800
0FE000
ENDCHAR
STARTCHAR uni1EEF
ENCODING 7919
SWIDTH 600 0
DWIDTH 19 0
BBX 17 22 2 0
BITMAP
1E2000
3FF000
1FF780
01E780
000780
000780
F83F80
F83F00
F83F00
F83E00
F83E00
F83E00
F83E00
F83E00
F83E00
F83E00
F83E00
FC7E00
FFFE00
7FBE00
3FBE00
1F3E00
ENDCHAR
STARTCHAR uni1EF0
ENCODING 7920
SWIDTH 600 0
DWIDTH 19 0
BBX 17 33 2 -7
BITMAP
000780
000780
000780
000780
F83F80
F83F80
F83F00
F83E00
F83E00
F83E00
F83E00
F83E00
F83E00
F83E00
F83E00
F83E00
F83E00
F83E00
F83E00
F83E00
F83E00
FC7E00
7FFC00
7FFC00
3FF800
0FE000
000000
000000
078000
07C000
07C000
07C000
038000
ENDCHAR
STARTCHAR uni1EF1
ENCODING 7921
SWIDTH 600 0
DWIDTH 19 0
BBX 17 27 2 -7
BITMAP
000780
000780
000780
000780
F83F80
F83F00
F83F00
F83E00
F83E00
F83E00
F83E00
F83E00
F83E00
F83E00
F83E00
FC7E00
FFFE00
7FBE00
3FBE00
1F3E00
000000
000000
078000
07C000
07C000
07C000
078000
ENDCHAR
STARTCHAR Ygrave
ENCODING 7922
SWIDTH 600 0
DWIDTH 19 0
BBX 19 30 0 0
BITMAP
018000
07C000
03C000
03E000
01E000
00F000
004000
000000
FC07E0
7C07C0
3E0F80
3E0F80
1F0F00
1F1F00
0F1E00
0FBE00
07BC00
07FC00
03F800
03F800
01F000
01F000
01F000
01F000
01F000
01F000
01F000
01F000
01F000
01F000
ENDCHAR
STARTCHAR ygrave
ENCODING 7923
SWIDTH 600 0
DWIDTH 19 0
BBX 17 31 1 -6
BITMAP
030000
0F8000
078000
07C000
03C000
01E000
008000
000000
000000
F80F80
F80F80
7C0F00
7C1F00
3C1E00
3E1E00
3E3E00
1E3C00
1F3C00
0F7800
0F7800
0FF800
07F000
07F000
03E000
03E000
03C000
07C000
7FC000
7F8000
7F0000
7E0000
ENDCHAR
STARTCHAR uni1EF4
ENCODING 7924
SWIDTH 600 0
DWIDTH 19 0
BBX 19 29 0 -7
BITMAP
FC07E0
7C07C0
3E0F80
3E0F80
1F0F00
1F1F00
0F1E00
0FBE00
07BC00
07FC00
03F800
03F800
01F000
01F000
01F000
01F000
01F000
01F000
01F000
01F000
01F000
01F000
000000
000000
01E000
01F000
01F000
01F000
00E000
ENDCHAR
STARTCHAR uni1EF5
ENCODING 7925
SWIDTH 600 0
DWIDTH 19 0
BBX 17 23 1 -7
BITMAP
F80F80
F80F80
7C0F00
7C1F00
3C1E00
3E1E00
3E3E00
1E3C00
1F3C00
0F7800
0F7800
0FF800
07F000
07F000
03E000
03E000
03C000
07C000
7FCF00
7F9F00
7F1F00
7E1F00
000F00
ENDCHAR
STARTCHAR uni1EF6
ENCODING 7926
SWIDTH 600 0
DWIDTH 19 0
BBX 19 30 0 0
BITMAP
03F000
03F800
03F800
007800
007000
00F000
006000
000000
FC07E0
7C07C0
3E0F80
3E0F80
1F0F00
1F1F00
0F1E00
0FBE00
07BC00
07FC00
03F800
03F800
01F000
01F000
01F000
01F000
01F000
01F000
01F000
01F000
01F000
01F000
ENDCHAR
STARTCHAR uni1EF7
ENCODING 7927
SWIDTH 600 0
DWIDTH 19 0
BBX 17 30 1 -6
BITMAP
07E000
07F000
07F000
00F000
00E000
01E000
00C000
000000
F80F80
F80F80
7C0F00
7C1F00
3C1E00
3E1E00
3E3E00
1E3C00
1F3C00
0F7800
0F7800
0FF800
07F000
07F000
03E000
03E000
03C000
07C000
7FC000
7F8000
7F0000
7E0000
ENDCHAR
STARTCHAR uni1EF8
ENCODING 7928
SWIDTH 600 0
DWIDTH 19 0
BBX 19 28 0 0
BITMAP
07C400
0FFE00
0FFE00
047C00
000000
000000
FC07E0
7C07C0
3E0F80
3E0F80
1F0F00
1F1F00
0F1E00
0FBE00
07BC00
07FC00
03F800
03F800
01F000
01F000
01F000
01F000
01F000
01F000
01F000
01F000
01F000
01F000
ENDCHAR
STARTCHAR uni1EF9
ENCODING 7929
SWIDTH 600 0
DWIDTH 19 0
BBX 17 28 1 -6
BITMAP
0F8800
1FFC00
1FFC00
08F800
000000
000000
F80F80
F80F80
7C0F00
7C1F00
3C1E00
3E1E00
3E3E00
1E3C00
1F3C00
0F7800
0F7800
0FF800
07F000
07F000
03E000
03E000
03C000
07C000
7FC000
7F8000
7F0000
7E0000
ENDCHAR
STARTCHAR endash
ENCODING 8211
SWIDTH 600 0
DWIDTH 19 0
BBX 15 4 2 7
BITMAP
FFFE
FFFE
FFFE
FFFE
ENDCHAR
STARTCHAR emdash
ENCODING 8212
SWIDTH 600 0
DWIDTH 19 0
BBX 19 4 0 7
BITMAP
FFFFE0
FFFFE0
FFFFE0
FFFFE0
ENDCHAR
STARTCHAR quoteleft
ENCODING 8216
SWIDTH 600 0
DWIDTH 19 0
BBX 8 10 5 13
BITMAP
0F
0F
1E
1E
1E
3E
3E
7E
7C
FC
ENDCHAR
STARTCHAR quoteright
ENCODING 8217
SWIDTH 600 0
DWIDTH 19 0
BBX 8 10 6 13
BITMAP
3F
3E
7E
7C
7C
78
78
78
F0
F0
ENDCHAR
STARTCHAR quotesinglbase
ENCODING 8218
SWIDTH 600 0
DWIDTH 19 0
BBX 8 10 5 -5
BITMAP
3F
3E
3E
3E
7C
7C
78
78
78
F0
ENDCHAR
STARTCHAR quotedblleft
ENCODING 8220
SWIDTH 600 0
DWIDTH 19 0
BBX 16 10 1 13
BITMAP
0F0F
0F0F
1E1E
1E1E
1E1E
3E3E
3E3E
7E7E
7C7C
FCFC
ENDCHAR
STARTCHAR quotedblright
ENCODING 8221
SWIDTH 600 0
DWIDTH 19 0
BBX 16 10 2 13
BITMAP
3F3F
3E3E
7E7E
7C7C
7C7C
7878
7878
7878
F0F0
F0F0
ENDCHAR
STARTCHAR quotedblbase
ENCODING 8222
SWIDTH 600 0
DWIDTH 19 0
BBX 15 10 2 -5
BITMAP
7E7E
7E7E
7C7C
7C7C
7878
F8F8
F0F0
F0F0
F0F0
E0E0
ENDCHAR
STARTCHAR dagger
ENCODING 8224
SWIDTH 600 0
DWIDTH 19 0
BBX 15 29 2 -6
BITMAP
0780
0780
0780
0780
0780
0780
0780
FFFE
FFFE
FFFE
FFFE
0780
0780
0780
0780
0780
0780
0780
0780
0780
0780
0780
0780
0780
0780
0780
0780
0780
0780
ENDCHAR
STARTCHAR daggerdbl
ENCODING 8225
SWIDTH 600 0
DWIDTH 19 0
BBX 15 29 2 -6
BITMAP
0780
0780
0780
0780
0780
0780
0780
FFFE
FFFE
FFFE
FFFE
0780
0780
0780
0780
0780
0780
0780
0780
FFFE
FFFE
FFFE
FFFE
0780
0780
0780
0780
0780
0780
ENDCHAR
STARTCHAR bullet
ENCODING 8226
SWIDTH 600 0
DWIDTH 19 0
BBX 9 9 5 5
BITMAP
3E00
FF80
FF80
FF80
FF80
FF80
FF80
FF80
3E00
ENDCHAR
STARTCHAR ellipsis
ENCODING 8230
SWIDTH 600 0
DWIDTH 19 0
BBX 17 5 1 0
BITMAP
71C700
FBEF80
FBEF80
FBEF80
71C700
ENDCHAR
STARTCHAR perthousand
ENCODING 8240
SWIDTH 600 0
DWIDTH 19 0
BBX 19 22 0 0
BITMAP
3E0000
7F0000
738000
E38000
E38000
E38000
738000
7F0180
3E1F80
01FE00
0FF000
3F0000
300000
03CF80
0FFFC0
0E79C0
0E38E0
1E38E0
0E38E0
0E79C0
0FFFC0
03CF80
ENDCHAR
STARTCHAR guilsinglleft
ENCODING 8249
SWIDTH 600 0
DWIDTH 19 0
BBX 7 15 6 1
BITMAP
04
0C
1E
3E
7C
F8
F0
E0
F0
F8
7C
3E
1E
0C
04
ENDCHAR
STARTCHAR guilsinglright
ENCODING 8250
SWIDTH 600 0
DWIDTH 19 0
BBX 7 15 6 1
BITMAP
40
60
F0
F8
7C
3E
1E
0E
1E
3E
7C
F8
F0
60
40
ENDCHAR
STARTCHAR fraction
ENCODING 8260
SWIDTH 600 0
DWIDTH 19 0
BBX 19 22 0 0
BITMAP
0001E0
0001C0
000380
000780
000700
000E00
000E00
001C00
003C00
000000
000000
000000
000000
078000
070000
0E0000
1E0000
1C0000
380000
380000
700000
F00000
ENDCHAR
STARTCHAR uni2070
ENCODING 8304
SWIDTH 600 0
DWIDTH 19 0
BBX 9 12 5 10
BITMAP
3E00
7F00
E380
E380
E380
EB80
EB80
E380
E380
E380
7F00
3E00
ENDCHAR
STARTCHAR uni2074
ENCODING 8308
SWIDTH 600 0
DWIDTH 19 0
BBX 9 12 5 10
BITMAP
0F00
1F00
1F00
3700
7700
6700
E700
C700
FF80
FF80
0700
0700
ENDCHAR
STARTCHAR uni2075
ENCODING 8309
SWIDTH 600 0
DWIDTH 19 0
BBX 9 12 5 10
BITMAP
7F80
FF80
E000
E000
EF00
FF80
E380
0380
4380
E780
FF00
3E00
ENDCHAR
STARTCHAR uni2076
ENCODING 8310
SWIDTH 600 0
DWIDTH 19 0
BBX 9 12 5 10
BITMAP
1F80
3E00
7800
7000
FF00
EF80
F380
E380
E380
E380
7F00
3E00
ENDCHAR
STARTCHAR uni2077
ENCODING 8311
SWIDTH 600 0
DWIDTH 19 0
BBX 9 12 5 10
BITMAP
FF80
FF80
E380
E380
0780
0700
0F00
0E00
0E00
1E00
1C00
3C00
ENDCHAR
STARTCHAR uni2078
ENCODING 8312
SWIDTH 600 0
DWIDTH 19 0
BBX 9 12 5 10
BITMAP
3E00
7F00
E380
E380
E300
3E00
7F00
E380
E380
E380
FF80
3E00
ENDCHAR
STARTCHAR uni2079
ENCODING 8313
SWIDTH 600 0
DWIDTH 19 0
BBX 9 12 5 10
BITMAP
3E00
7F00
E380
E380
E380
E380
FF80
7F80
0700
0F00
3E00
FC00
ENDCHAR
STARTCHAR uni2080
ENCODING 8320
SWIDTH 600 0
DWIDTH 19 0
BBX 9 12 5 0
BITMAP
3E00
7F00
E380
E380
E380
EB80
EB80
E380
E380
E380
7F00
3E00
ENDCHAR
STARTCHAR uni2081
ENCODING 8321
SWIDTH 600 0
DWIDTH 19 0
BBX 10 12 5 0
BITMAP
3E00
FE00
6E00
0E00
0E00
0E00
0E00
0E00
0E00
0E00
7FC0
7FC0
ENDCHAR
STARTCHAR uni2082
ENCODING 8322
SWIDTH 600 0
DWIDTH 19 0
BBX 9 12 5 0
BITMAP
3E00
FF00
E780
0380
0780
0700
0F00
1C00
3800
7000
FF80
FF80
ENDCHAR
STARTCHAR uni2083
ENCODING 8323
SWIDTH 600 0
DWIDTH 19 0
BBX 10 12 4 0
BITMAP
3F00
7F80
33C0
01C0
03C0
0F00
0F80
03C0
21C0
73C0
FF80
3F00
ENDCHAR
STARTCHAR uni2084
ENCODING 8324
SWIDTH 600 0
DWIDTH 19 0
BBX 9 12 5 0
BITMAP
0F00
1F00
1F00
3700
7700
6700
E700
C700
FF80
FF80
0700
0700
ENDCHAR
STARTCHAR uni2085
ENCODING 8325
SWIDTH 600 0
DWIDTH 19 0
BBX 9 12 5 0
BITMAP
7F80
FF80
E000
E000
EF00
FF80
E380
0380
4380
E780
FF00
3E00
ENDCHAR
STARTCHAR uni2086
ENCODING 8326
SWIDTH 600 0
DWIDTH 19 0
BBX 9 12 5 0
BITMAP
1F80
3E00
7800
7000
FF00
EF80
F380
E380
E380
E380
7F00
3E00
ENDCHAR
STARTCHAR uni2087
ENCODING 8327
SWIDTH 600 0
DWIDTH 19 0
BBX 9 12 5 0
BITMAP
FF80
FF80
E380
E380
0780
0700
0F00
0E00
0E00
1E00
1C00
3C00
ENDCHAR
STARTCHAR uni2088
ENCODING 8328
SWIDTH 600 0
DWIDTH 19 0
BBX 9 12 5 0
BITMAP
3E00
FF00
E380
E380
7F00
7F00
E380
E380
E380
E380
7F00
3E00
ENDCHAR
STARTCHAR uni2089
ENCODING 8329
SWIDTH 600 0
DWIDTH 19 0
BBX 9 12 5 0
BITMAP
3E00
7F00
E380
E380
E380
E380
FF80
7F80
0700
0F00
3E00
FC00
ENDCHAR
STARTCHAR uni20A1
ENCODING 8353
SWIDTH 600 0
DWIDTH 19 0
BBX 17 28 1 -3
BITMAP
019800
019800
019800
03F800
0FFC00
1FFE00
3FFF00
3FBF00
7DBF80
7BB600
7BB000
7B3000
FB3000
FB3000
FB3000
7B3000
7B3000
7B3000
7B3600
7F7F80
3F7F00
3FFF00
1FFE00
0FFC00
07F000
066000
066000
066000
ENDCHAR
STARTCHAR uni20A4
ENCODING 8356
SWIDTH 600 0
DWIDTH 19 0
BBX 16 22 2 0
BITMAP
07F0
1FFC
3FFE
3FFF
7E1C
7C08
7C00
7C00
FFE0
FFE0
FFE0
3E00
1E00
FFE0
FFE0
FFE0
3E00
7C00
FFFE
FFFE
FFFE
FFFE
ENDCHAR
STARTCHAR uni20A6
ENCODING 8358
SWIDTH 600 0
DWIDTH 19 0
BBX 17 22 1 0
BITMAP
7E0F00
7E0F00
7F0F00
7F0F00
7F0F00
7F0F00
7B8F00
7B8F00
FBFF80
FBFF80
F9FF80
79CF00
FFCF80
FFEF80
FFEF80
78EF00
78FF00
787F00
787F00
787F00
787F00
783F00
ENDCHAR
STARTCHAR uni20A8
ENCODING 8360
SWIDTH 600 0
DWIDTH 19 0
BBX 18 22 1 0
BITMAP
FF0000
FF8000
FFC000
FFC000
F1C000
F1E000
F1E000
F1EF80
F3DFC0
FFDF80
FFBF80
FFBC80
FF3E00
F79F00
F79F80
F7CF80
F3C780
F3E3C0
F3FF80
F1FF80
F0FF00
F07E00
ENDCHAR
STARTCHAR uni20A9
ENCODING 8361
SWIDTH 600 0
DWIDTH 19 0
BBX 19 22 0 0
BITMAP
3C0780
3C0780
3C0780
3C0780
3C0780
3C0780
FFFFE0
FFFFE0
FFFFE0
3DB380
3DB380
FDB3E0
FDB3E0
FDB3E0
3DB380
3DB380
3DBB80
3F9B80
3F1B80
1F1B80
1F1F00
1F1F00
ENDCHAR
STARTCHAR uni20AA
ENCODING 8362
SWIDTH 600 0
DWIDTH 19 0
BBX 17 22 1 0
BITMAP
FF8380
FFC380
FFE380
E0F380
E07380
E77380
E77380
E77380
E77380
E77380
E77380
E77380
E77380
E77380
E77380
E77380
E77380
E70780
E70F00
E7FF00
E7FE00
E7FC00
ENDCHAR
STARTCHAR uni20AB
ENCODING 8363
SWIDTH 600 0
DWIDTH 19 0
BBX 16 23 2 0
BITMAP
003C
003C
03FF
03FF
03FF
003C
1F3C
3FBC
7FFC
7FFC
F87C
F83C
F83C
F87C
7FFC
7FFC
3FBC
1F3C
0000
0000
7FFE
7FFE
7FFE
ENDCHAR
STARTCHAR Euro
ENCODING 8364
SWIDTH 600 0
DWIDTH 19 0
BBX 16 22 2 0
BITMAP
07F0
1FFC
3FFE
3FFF
7E1E
F80C
F800
FFF0
FFF0
FFF0
F000
F000
FFF0
FFF0
FFF0
F800
F80C
7E1E
3FFF
3FFE
1FFC
07F0
ENDCHAR
STARTCHAR uni20AD
ENCODING 8365
SWIDTH 600 0
DWIDTH 19 0
BBX 18 22 1 0
BITMAP
7C0F80
7C1F00
7C1F00
7C3E00
7C3E00
7C7C00
7C7800
7CF800
7DF000
FFFF00
FFFF00
FFFF00
FFFF00
7DF800
7CF800
7C7C00
7C7C00
7C3E00
7C3F00
7C1F00
7C0F80
7C0FC0
ENDCHAR
STARTCHAR uni20AE
ENCODING 8366
SWIDTH 600 0
DWIDTH 19 0
BBX 17 22 1 0
BITMAP
FFFF80
FFFF80
FFFF80
FFFF80
03E000
03E000
03E600
03FE00
03FE00
03F800
1FE000
3FE000
3FE600
33FE00
03FE00
03F800
1FE000
3FE000
3FE000
33E000
03E000
03E000
ENDCHAR
STARTCHAR uni20B1
ENCODING 8369
SWIDTH 600 0
DWIDTH 19 0
BBX 17 22 1 0
BITMAP
3FF000
3FF800
3FFC00
3C3E00
3C1E00
FFFF80
FFFF80
FFFF80
3C1F00
FFFF80
FFFF80
FFFF80
3C1E00
3C3E00
3FFC00
3FF800
3FF000
3C0000
3C0000
3C0000
3C0000
3C0000
ENDCHAR
STARTCHAR uni20B2
ENCODING 8370
SWIDTH 600 0
DWIDTH 19 0
BBX 16 28 1 -3
BITMAP
0070
0070
00F0
07F0
0FF8
1FFC
3FFE
7EFE
7CEF
78EC
78C0
F9C0
F9FF
F9FF
F9FF
F9FF
F9CF
79CF
7B8F
7F8F
7F9E
3FFE
1FFC
0FF8
07E0
0780
0780
0700
ENDCHAR
STARTCHAR uni20B4
ENCODING 8372
SWIDTH 600 0
DWIDTH 19 0
BBX 17 22 1 0
BITMAP
07E000
1FF800
3FFC00
1FFC00
0C3E00
081E00
001E00
FFFF80
FFFF80
FFFF80
01F000
07C000
FFFF80
FFFF80
FFFF80
3C0000
3C0800
3E1C00
3FFE00
1FFF00
0FFC00
03F000
ENDCHAR
STARTCHAR uni20B5
ENCODING 8373
SWIDTH 600 0
DWIDTH 19 0
BBX 17 28 1 -3
BITMAP
007800
007000
007000
03F000
0FFC00
1FFE00
3FFE00
3EFF00
7CEF00
78E600
78E000
78E000
F9C000
F9C000
F9C000
F9C000
79C000
79CC00
79CF80
7F8F00
3F9F00
3FFE00
1FFE00
0FFC00
07F000
078000
078000
078000
ENDCHAR
STARTCHAR uni20B8
ENCODING 8376
SWIDTH 600 0
DWIDTH 19 0
BBX 15 22 2 0
BITMAP
FFFE
FFFE
FFFE
0000
0000
FFFE
FFFE
FFFE
07C0
07C0
07C0
07C0
07C0
07C0
07C0
07C0
07C0
07C0
07C0
07C0
07C0
07C0
ENDCHAR
STARTCHAR uni20B9
ENCODING 8377
SWIDTH 600 0
DWIDTH 19 0
BBX 16 22 2 0
BITMAP
FFFF
FFFF
FFFF
FFFF
03C0
01E0
FFFF
FFFF
FFFF
01F0
03E0
FFE0
FFC0
FF80
FF00
0F80
07C0
07E0
03F0
01F8
00F8
007E
ENDCHAR
STARTCHAR uni20BA
ENCODING 8378
SWIDTH 600 0
DWIDTH 19 0
BBX 17 22 1 0
BITMAP
1E0000
1E0000
1E0000
1E1000
1E7000
1EF000
1FE000
1F9000
1F7000
7EF000
FFE000
FF8000
9F0780
7E0780
FE0780
FE0F80
9E0F00
1E1F00
1FFF00
1FFE00
1FFC00
1FF000
ENDCHAR
STARTCHAR uni20BD
ENCODING 8381
SWIDTH 600 0
DWIDTH 19 0
BBX 17 22 1 0
BITMAP
3FF800
3FFE00
3FFF00
3FFF00
3E1F00
3E0F80
3E0F80
3E0F80
3E1F00
FFFF00
FFFF00
FFFE00
FFF800
3E0000
FFF800
FFF800
FFF800
3E0000
3E0000
3E0000
3E0000
3E0000
ENDCHAR
STARTCHAR uni20BF
ENCODING 8383
SWIDTH 600 0
DWIDTH 19 0
BBX 14 30 3 -4
BITMAP
39C0
39C0
39C0
3FC0
FFE0
FFF0
FFF8
FFF8
F0FC
F07C
F07C
F07C
F0F8
FFF0
FFC0
FFF0
FFF8
F07C
F03C
F03C
F03C
F07C
FFFC
FFFC
FFF8
FFF0
3FC0
39C0
39C0
39C0
ENDCHAR
STARTCHAR uni2113
ENCODING 8467
SWIDTH 600 0
DWIDTH 19 0
BBX 16 23 1 0
BITMAP
03F0
07F8
0FFC
0FFC
1F3E
1F3E
1F3E
1F3C
1F3C
1F7C
1FF8
1FF0
1FF0
1FC0
3F80
FF00
7F0C
7F0F
4F1F
0FFF
0FFE
07FC
01F0
ENDCHAR
STARTCHAR uni2116
ENCODING 8470
SWIDTH 600 0
DWIDTH 19 0
BBX 18 22 1 0
BITMAP
F9CF00
F9DF80
F9D980
D9D9C0
DDF9C0
DDF9C0
DDF9C0
DDF9C0
DDD9C0
DDD980
DDDF80
DDCF00
DDC000
CDDF80
CDDF80
CDC000
CDC000
CDC000
CDC000
CFC000
CFC000
CFC000
ENDCHAR
STARTCHAR trademark
ENCODING 8482
SWIDTH 600 0
DWIDTH 19 0
BBX 16 9 1 13
BITMAP
FFC7
31E7
31EF
31BF
31BB
319B
3193
3193
3183
ENDCHAR
STARTCHAR Omega
ENCODING 8486
SWIDTH 600 0
DWIDTH 19 0
BBX 17 22 1 0
BITMAP
07F000
1FFC00
3FFE00
7FFF00
7E3F00
7C1F00
F80F80
F80F80
F80F80
F80F80
F80F80
F80F80
780F00
780F00
7C1F00
3C1E00
1E3C00
0F7800
FF7F80
FF7F80
FF7F80
FF7F80
ENDCHAR
STARTCHAR uni212E
ENCODING 8494
SWIDTH 600 0
DWIDTH 19 0
BBX 17 22 1 0
BITMAP
03E000
0C1800
180C00
380E00
780E00
780F00
780F00
F80F80
F80F80
F80F80
FFFF80
F80000
F80000
F80000
F80000
780000
780000
780300
380200
180600
0C1800
03E000
ENDCHAR
STARTCHAR uni2150
ENCODING 8528
SWIDTH 600 0
DWIDTH 19 0
BBX 19 22 0 0
BITMAP
1E01E0
7E01C0
6E0380
0E0780
0E0700
0E0E00
0E0E00
0E1C00
0E3C00
7F8000
7F8000
003FC0
003FC0
07B1C0
0731C0
0E0180
1E0380
1C0380
380700
380700
700700
F00E00
ENDCHAR
STARTCHAR uni2151
ENCODING 8529
SWIDTH 600 0
DWIDTH 19 0
BBX 19 22 0 0
BITMAP
1E01E0
7E01C0
6E0380
0E0780
0E0700
0E0E00
0E0E00
0E1C00
0E3C00
7F8000
7F8000
000F00
003FC0
07B9C0
0739C0
0E39C0
1E3EC0
1C1FC0
3801C0
380380
700700
F01E00
ENDCHAR
STARTCHAR uni2153
ENCODING 8531
SWIDTH 600 0
DWIDTH 19 0
BBX 19 22 0 0
BITMAP
1E01E0
7E01C0
6E0380
0E0780
0E0700
0E0E00
0E0E00
0E1C00
0E3C00
7F8000
7F8000
000F80
003FC0
0791C0
0701C0
0E0780
1E0780
1C01C0
3800C0
3811C0
703FC0
F01F80
ENDCHAR
STARTCHAR uni2154
ENCODING 8532
SWIDTH 600 0
DWIDTH 19 0
BBX 19 22 0 0
BITMAP
3E01E0
7F01C0
638380
038780
038700
070E00
0E0E00
3C1C00
703C00
7F8000
7F8000
000F80
003FC0
0791C0
0701C0
0E0780
1E0780
1C01C0
3800C0
3811C0
703FC0
F01F80
ENDCHAR
STARTCHAR uni2155
ENCODING 8533
SWIDTH 600 0
DWIDTH 19 0
BBX 19 22 0 0
BITMAP
1E01E0
7E01C0
6E0380
0E0780
0E0700
0E0E00
0E0E00
0E1C00
0E3C00
7F8000
7F8000
001FC0
001FC0
079800
073000
0E3780
1E37C0
1C19E0
3800E0
3819C0
703FC0
F00F80
ENDCHAR
STARTCHAR uni2156
ENCODING 8534
SWIDTH 600 0
DWIDTH 19 0
BBX 19 22 0 0
BITMAP
3E01E0
7F01C0
638380
038780
038700
070E00
0E0E00
3C1C00
703C00
7F8000
7F8000
001FC0
001FC0
079800
073000
0E3780
1E37C0
1C19E0
3800E0
3819C0
703FC0
F00F80
ENDCHAR
STARTCHAR uni2157
ENCODING 8535
SWIDTH 600 0
DWIDTH 19 0
BBX 19 22 0 0
BITMAP
3E01E0
7F81C0
238380
038780
0F0700
0F0E00
038E00
039C00
63BC00
7F8000
3E0000
001FC0
001FC0
079800
073000
0E3780
1E37C0
1C19E0
3800E0
3819C0
703FC0
F00F80
ENDCHAR
STARTCHAR uni2158
ENCODING 8536
SWIDTH 600 0
DWIDTH 19 0
BBX 19 22 0 0
BITMAP
0F01E0
0F01C0
1F0380
3F0780
370700
670E00
670E00
7F9C00
7FBC00
070000
070000
001FC0
001FC0
079800
073000
0E3780
1E37C0
1C19E0
3800E0
3819C0
703FC0
F00F80
ENDCHAR
STARTCHAR uni2159
ENCODING 8537
SWIDTH 600 0
DWIDTH 19 0
BBX 19 22 0 0
BITMAP
1E01E0
7E01C0
6E0380
0E0780
0E0700
0E0E00
0E0E00
0E1C00
0E3C00
7F8000
7F8000
0007C0
000F00
079E00
071C00
0E3B80
1E3FC0
1C39C0
3838E0
3839C0
701FC0
F00F80
ENDCHAR
STARTCHAR uni215A
ENCODING 8538
SWIDTH 600 0
DWIDTH 19 0
BBX 19 22 0 0
BITMAP
7F81E0
7F81C0
600380
600780
6F0700
7F8E00
738E00
039C00
63BC00
7F8000
3E0000
0007C0
000F00
079E00
071C00
0E3B80
1E3FC0
1C39C0
3838E0
3839C0
701FC0
F00F80
ENDCHAR
STARTCHAR uni215B
ENCODING 8539
SWIDTH 600 0
DWIDTH 19 0
BBX 19 22 0 0
BITMAP
1E01E0
7E01C0
6E0380
0E0780
0E0700
0E0E00
0E0E00
0E1C00
0E3C00
7F8000
7F8000
000F80
001FC0
07B9C0
0739C0
0E1F80
1E1F80
1C39C0
3838C0
3839C0
703FC0
F00F80
ENDCHAR
STARTCHAR uni215C
ENCODING 8540
SWIDTH 600 0
DWIDTH 19 0
BBX 19 22 0 0
BITMAP
3E01E0
7F81C0
238380
038780
0F0700
0F0E00
038E00
039C00
63BC00
7F8000
3E0000
000F80
001FC0
07B9C0
0739C0
0E1F80
1E1F80
1C39C0
3838C0
3839C0
703FC0
F00F80
ENDCHAR
STARTCHAR uni215D
ENCODING 8541
SWIDTH 600 0
DWIDTH 19 0
BBX 19 22 0 0
BITMAP
7F81E0
7F81C0
600380
600780
6F0700
7F8E00
738E00
039C00
63BC00
7F8000
3E0000
000F80
001FC0
07B9C0
0739C0
0E1F80
1E1F80
1C39C0
3838C0
3839C0
703FC0
F00F80
ENDCHAR
STARTCHAR uni215E
ENCODING 8542
SWIDTH 600 0
DWIDTH 19 0
BBX 19 22 0 0
BITMAP
7F81E0
7F81C0
638380
638780
070700
070E00
0E0E00
0E1C00
0E3C00
1C0000
1C0000
000F80
001FC0
07B9C0
0739C0
0E1F80
1E1F80
1C39C0
3838C0
3839C0
703FC0
F00F80
ENDCHAR
STARTCHAR uni2190
ENCODING 8592
SWIDTH 600 0
DWIDTH 19 0
BBX 18 16 0 3
BITMAP
010000
018000
03C000
07C000
0F8000
1F0000
3FFFC0
7FFFC0
FFFFC0
3FFFC0
1F0000
0F8000
07C000
03C000
018000
010000
ENDCHAR
STARTCHAR uni2191
ENCODING 8593
SWIDTH 600 0
DWIDTH 19 0
BBX 15 22 2 0
BITMAP
0100
0380
07C0
0FE0
1FF0
3FF8
7FFC
FBBE
739C
2388
0380
0380
0380
0380
0380
0380
0380
0380
0380
0380
0380
0380
ENDCHAR
STARTCHAR uni2192
ENCODING 8594
SWIDTH 600 0
DWIDTH 19 0
BBX 18 16 1 3
BITMAP
004000
006000
00F000
00F800
007C00
003E00
FFFF00
FFFF80
FFFFC0
FFFF00
003E00
007C00
00F800
00F000
006000
004000
ENDCHAR
STARTCHAR uni2193
ENCODING 8595
SWIDTH 600 0
DWIDTH 19 0
BBX 15 22 2 0
BITMAP
0380
0380
0380
0380
0380
0380
0380
0380
0380
0380
0380
0380
2388
739C
FBBE
7FFC
3FF8
1FF0
0FE0
07C0
0380
0100
ENDCHAR
STARTCHAR uni2194
ENCODING 8596
SWIDTH 600 0
DWIDTH 19 0
BBX 19 14 0 4
BITMAP
021000
031800
07BC00
0FBE00
1E0F00
3FFF80
7FFFC0
FFFFE0
3FFF80
1E0F00
0FBE00
07BC00
031800
021000
ENDCHAR
STARTCHAR uni2195
ENCODING 8597
SWIDTH 600 0
DWIDTH 19 0
BBX 15 22 2 0
BITMAP
0100
0380
07C0
0FE0
1FF0
3FF8
7FFC
FBBE
739C
2388
0380
0380
2388
739C
FBBE
7FFC
3FF8
1FF0
0FE0
07C0
0380
0100
ENDCHAR
STARTCHAR uni2196
ENCODING 8598
SWIDTH 600 0
DWIDTH 19 0
BBX 17 17 1 3
BITMAP
FFE000
FFE000
FFE000
FFE000
FE0000
FF0000
FF8000
F7C000
F3E000
F1F000
F0F800
007C00
003E00
001F00
000F80
000700
000200
ENDCHAR
STARTCHAR uni2197
ENCODING 8599
SWIDTH 600 0
DWIDTH 19 0
BBX 17 17 1 3
BITMAP
03FF80
03FF80
03FF80
03FF80
003F80
007F80
00FF80
01F780
03E780
07C780
0F8780
1F0000
3E0000
7C0000
F80000
700000
200000
ENDCHAR
STARTCHAR uni2198
ENCODING 8600
SWIDTH 600 0
DWIDTH 19 0
BBX 17 17 1 2
BITMAP
200000
700000
F80000
7C0000
3E0000
1F0000
0F8780
07C780
03E780
01F780
00FF80
007F80
003F80
03FF80
03FF80
03FF80
03FF80
ENDCHAR
STARTCHAR uni2199
ENCODING 8601
SWIDTH 600 0
DWIDTH 19 0
BBX 17 17 1 2
BITMAP
000200
000700
000F80
001F00
003E00
007C00
F0F800
F1F000
F3E000
F7C000
FF8000
FF0000
FE0000
FFE000
FFE000
FFE000
FFE000
ENDCHAR
STARTCHAR uni21A9
ENCODING 8617
SWIDTH 600 0
DWIDTH 19 0
BBX 19 19 0 1
BITMAP
000800
000F00
000F80
010FC0
0183C0
03C3E0
07C3E0
0F83E0
1E07E0
3FFFC0
7FFF80
FFFF00
3FFE00
1E0000
0F8000
07C000
03C000
018000
010000
ENDCHAR
STARTCHAR uni21AA
ENCODING 8618
SWIDTH 600 0
DWIDTH 19 0
BBX 19 19 0 1
BITMAP
020000
1E0000
3E0000
7E2000
F83000
F87800
F87C00
F83E00
FC0F00
7FFF80
3FFFC0
3FFFE0
0FFF80
000F00
003E00
007C00
007800
003000
002000
ENDCHAR
STARTCHAR uni21B0
ENCODING 8624
SWIDTH 600 0
DWIDTH 19 0
BBX 16 22 1 0
BITMAP
0200
0300
0780
0FC0
1F00
3E00
7FFF
FFFF
FFFF
7FFF
3E0F
1F0F
0F8F
07CF
030F
020F
000F
000F
000F
000F
000F
000F
ENDCHAR
STARTCHAR uni21B1
ENCODING 8625
SWIDTH 600 0
DWIDTH 19 0
BBX 16 22 2 0
BITMAP
0080
00C0
01E0
03F0
00F8
007C
FFFE
FFFF
FFFF
FFFE
F07C
F0F8
F1F0
F3E0
F0C0
F080
F000
F000
F000
F000
F000
F000
ENDCHAR
STARTCHAR uni21B2
ENCODING 8626
SWIDTH 600 0
DWIDTH 19 0
BBX 16 23 1 -1
BITMAP
000F
000F
000F
000F
000F
000F
000F
020F
030F
078F
0FCF
1F0F
3E0F
7FFF
FFFF
FFFF
7FFF
3E00
1F00
0F80
07C0
0300
0200
ENDCHAR
STARTCHAR uni21B3
ENCODING 8627
SWIDTH 600 0
DWIDTH 19 0
BBX 16 23 2 -1
BITMAP
F000
F000
F000
F000
F000
F000
F000
F080
F0C0
F1E0
F3F0
F0F8
F07C
FFFE
FFFF
FFFF
FFFE
007C
00F8
01F0
03E0
00C0
0080
ENDCHAR
STARTCHAR uni21B6
ENCODING 8630
SWIDTH 600 0
DWIDTH 19 0
BBX 18 20 0 1
BITMAP
003E00
00FF00
01FF80
01FFC0
03E3C0
03C3C0
03C1C0
03C1C0
03C000
03C000
23C800
33DC00
7BFE00
FFFC00
3FF800
1FF000
0FE000
07C000
038000
010000
ENDCHAR
STARTCHAR uni21B7
ENCODING 8631
SWIDTH 600 0
DWIDTH 19 0
BBX 18 20 1 1
BITMAP
1F0000
3FC000
7FE000
FFE000
F1F000
F0F000
E0F000
E0F000
00F000
00F000
04F200
0EF300
1FF780
0FFFC0
07FF00
03FE00
01FC00
00F800
007000
002000
ENDCHAR
STARTCHAR uni21BA
ENCODING 8634
SWIDTH 600 0
DWIDTH 19 0
BBX 17 22 1 0
BITMAP
01FF80
01FF80
01FF80
01FF80
19FC00
3DFE00
7DDE00
79CF00
F1C700
F1C780
F00780
F00780
F00780
F00780
F00780
F00780
780F00
7C1F00
3FFF00
1FFE00
0FFC00
03F000
ENDCHAR
STARTCHAR uni21BB
ENCODING 8635
SWIDTH 600 0
DWIDTH 19 0
BBX 17 22 1 0
BITMAP
FFC000
FFC000
FFC000
FFC000
1FCC00
3FDE00
3DDF00
79CF00
71C780
F1C780
F00780
F00780
F00780
F00780
F00780
F00F80
780F00
7C3F00
7FFE00
3FFC00
1FF800
07E000
ENDCHAR
STARTCHAR uni21C4
ENCODING 8644
SWIDTH 600 0
DWIDTH 19 0
BBX 19 29 0 -3
BITMAP
002000
003000
007800
007C00
003E00
001F00
7FFF80
7FFFC0
7FFFE0
7FFF80
001F00
003E00
007C00
017800
01B000
03E000
07C000
0F8000
1F0000
3FFFC0
7FFFC0
FFFFC0
3FFFC0
1F0000
0F8000
07C000
03C000
018000
010000
ENDCHAR
STARTCHAR uni21C6
ENCODING 8646
SWIDTH 600 0
DWIDTH 19 0
BBX 19 29 0 -3
BITMAP
010000
018000
03C000
07C000
0F8000
1F0000
3FFFC0
7FFFC0
FFFFC0
3FFFC0
1F0000
0F8000
07C000
03E000
01B000
017800
007C00
003E00
001F00
7FFF80
7FFFC0
7FFFE0
7FFF80
001F00
003E00
007C00
007800
003000
002000
ENDCHAR
STARTCHAR partialdiff
ENCODING 8706
SWIDTH 600 0
DWIDTH 19 0
BBX 17 22 1 0
BITMAP
3FC000
0FE000
03F000
01F800
00FC00
007C00
0FBE00
1FDE00
3FFF00
7FEF00
7E3F00
7C1F00
F80F80
F80F80
F80F00
780F00
7C1F00
7E3F00
3FFE00
3FFE00
1FFC00
07F000
ENDCHAR
STARTCHAR Delta
ENCODING 8710
SWIDTH 600 0
DWIDTH 19 0
BBX 17 22 1 0
BITMAP
07F000
07F000
07F000
0FF800
0F7800
0F7800
1F7C00
1F7C00
1E3C00
1E3C00
3E3E00
3E3E00
3C1E00
3C1E00
7C1F00
7C1F00
7C1F00
F80F80
FFFF80
FFFF80
FFFF80
FFFF80
ENDCHAR
STARTCHAR product
ENCODING 8719
SWIDTH 600 0
DWIDTH 19 0
BBX 15 22 2 0
BITMAP
FFFE
FFFE
FFFE
FFFE
F83E
F83E
F83E
F83E
F83E
F83E
F83E
F83E
F83E
F83E
F83E
F83E
F83E
F83E
F83E
F83E
F83E
F83E
ENDCHAR
STARTCHAR summation
ENCODING 8721
SWIDTH 600 0
DWIDTH 19 0
BBX 15 28 2 -6
BITMAP
FFFE
FFFE
FFFE
FFFE
F800
7C00
3E00
3F00
1F00
0F80
0FC0
07C0
03E0
03E0
01E0
03E0
03E0
07C0
0F80
1F80
1F00
3E00
7C00
FC00
FFFE
FFFE
FFFE
FFFE
ENDCHAR
STARTCHAR minus
ENCODING 8722
SWIDTH 600 0
DWIDTH 19 0
BBX 15 4 2 7
BITMAP
FFFE
FFFE
FFFE
FFFE
ENDCHAR
STARTCHAR radical
ENCODING 8730
SWIDTH 600 0
DWIDTH 19 0
BBX 18 22 1 0
BITMAP
0003C0
000780
000780
000780
000700
000F00
F80F00
FC0F00
FC1E00
FC1E00
3C1E00
1E1C00
1E3C00
1E3C00
0E3800
0F3800
0F7800
0F7800
077000
07F000
07F000
03E000
ENDCHAR
STARTCHAR infinity
ENCODING 8734
SWIDTH 600 0
DWIDTH 19 0
BBX 17 12 1 3
BITMAP
3C1E00
7E3F00
FF3F80
FFFF80
F3E780
E1C380
E1C380
F3E780
FFFF80
FE7F80
7E3F00
3C1E00
ENDCHAR
STARTCHAR integral
ENCODING 8747
SWIDTH 600 0
DWIDTH 19 0
BBX 16 29 1 -6
BITMAP
00FF
01FF
03FF
03FF
03C0
03C0
03C0
03C0
03C0
03C0
03C0
03C0
03C0
03C0
03C0
03C0
03C0
03C0
03C0
03C0
03C0
03C0
03C0
03C0
03C0
FFC0
FFC0
FF80
FF00
ENDCHAR
STARTCHAR approxequal
ENCODING 8776
SWIDTH 600 0
DWIDTH 19 0
BBX 17 14 1 3
BITMAP
1E0600
3FC780
7FFF00
7FFF00
F1FE00
307C00
000000
000000
1E0600
3FC780
7FFF00
7FFF00
F1FE00
307C00
ENDCHAR
STARTCHAR notequal
ENCODING 8800
SWIDTH 600 0
DWIDTH 19 0
BBX 15 17 2 1
BITMAP
003C
0078
0078
FFFE
FFFE
FFFE
FFFE
03C0
0380
0780
FFFE
FFFE
FFFE
FFFE
3C00
3C00
7800
ENDCHAR
STARTCHAR lessequal
ENCODING 8804
SWIDTH 600 0
DWIDTH 19 0
BBX 13 18 3 0
BITMAP
0018
00F8
07F8
3FF8
FFC0
FE00
F000
FE00
FFC0
3FF8
07F8
00F8
0038
0008
FFF8
FFF8
FFF8
FFF8
ENDCHAR
STARTCHAR greaterequal
ENCODING 8805
SWIDTH 600 0
DWIDTH 19 0
BBX 13 18 3 0
BITMAP
E000
F800
FF00
FFE0
1FF8
03F8
0078
03F8
1FF8
FFE0
FF00
F800
E000
8000
FFF8
FFF8
FFF8
FFF8
ENDCHAR
STARTCHAR lozenge
ENCODING 9674
SWIDTH 600 0
DWIDTH 19 0
BBX 17 22 1 0
BITMAP
01C000
03E000
07F000
07F000
0F7800
1E3C00
1E3C00
3C1E00
3C1E00
780F00
F00780
F00780
780F00
3C1E00
3C1E00
1E3C00
1E3C00
0F7800
07F000
07F000
03E000
01C000
ENDCHAR
STARTCHAR uni2713
ENCODING 10003
SWIDTH 600 0
DWIDTH 19 0
BBX 19 23 0 0
BITMAP
000100
0003E0
0003C0
0007C0
0007C0
000780
000F80
180F00
F81F00
781F00
7C1E00
7C3E00
3C3E00
3E3C00
3E7C00
1E7800
1E7800
1FF800
0FF000
0FF000
07E000
07E000
07E000
ENDCHAR
STARTCHAR uni274C
ENCODING 10060
SWIDTH 600 0
DWIDTH 19 0
BBX 18 23 1 -1
BITMAP
300600
F00780
F80FC0
7C1F00
7C1F00
3E3E00
1F7C00
1F7C00
0FF800
07F000
03F000
03E000
07F000
0FF800
0FF800
1F7C00
3E3E00
3E3E00
7C1F00
F80F80
F00780
700740
200400
ENDCHAR
STARTCHAR uni2B0E
ENCODING 11022
SWIDTH 600 0
DWIDTH 19 0
BBX 18 17 1 2
BITMAP
FFF000
FFF000
FFF000
FFF000
00F000
00F000
00F000
04F300
0EF780
1FF7C0
0FFF00
07FE00
03FC00
01F800
00F000
006000
004000
ENDCHAR
STARTCHAR uni2B0F
ENCODING 11023
SWIDTH 600 0
DWIDTH 19 0
BBX 18 17 1 3
BITMAP
004000
006000
00F000
01F800
03FC00
07FE00
0FFF00
1FF780
0EF7C0
04F300
00F000
00F000
00F000
FFF000
FFF000
FFF000
FFF000
ENDCHAR
STARTCHAR uni2B10
ENCODING 11024
SWIDTH 600 0
DWIDTH 19 0
BBX 18 17 0 2
BITMAP
03FFC0
03FFC0
03FFC0
03FFC0
03C000
03C000
03C000
33C800
7BDC00
FBFE00
3FFC00
1FF800
0FF000
07E000
03C000
018000
010000
ENDCHAR
STARTCHAR uni2B11
ENCODING 11025
SWIDTH 600 0
DWIDTH 19 0
BBX 18 17 0 3
BITMAP
010000
018000
03C000
07E000
0FF000
1FF800
3FFC00
7BFE00
FBDC00
33C800
03C000
03C000
03C000
03FFC0
03FFC0
03FFC0
03FFC0
ENDCHAR
STARTCHAR dieresisacute
ENCODING 63191
SWIDTH 0 0
DWIDTH 0 0
BBX 12 12 -6 18
BITMAP
0100
03C0
03C0
0780
0700
0F00
0600
70E0
F9F0
F9F0
F9F0
70E0
ENDCHAR
STARTCHAR dieresisgrave
ENCODING 63192
SWIDTH 0 0
DWIDTH 0 0
BBX 12 12 -6 18
BITMAP
0800
3C00
3C00
1E00
0E00
0F00
0600
70E0
F9F0
F9F0
F9F0
70E0
ENDCHAR
STARTCHAR fi
ENCODING 64257
SWIDTH 600 0
DWIDTH 19 0
BBX 16 23 1 0
BITMAP
0F9E
1F9F
3F9F
3F9F
3C0E
3C00
3C00
FFFF
FFFF
FFFF
FFFF
3C1F
3C1F
3C1F
3C1F
3C1F
3C1F
3C1F
3C1F
3C1F
3C1F
3C1F
3C1F
ENDCHAR
STARTCHAR fl
ENCODING 64258
SWIDTH 600 0
DWIDTH 19 0
BBX 16 23 1 0
BITMAP
0F9F
1F9F
3F9F
3F9F
3C1F
3C1F
3C1F
FF9F
FF9F
FF9F
FF9F
3C1F
3C1F
3C1F
3C1F
3C1F
3C1F
3C1F
3C1F
3C1F
3C1F
3C1F
3C1F
ENDCHAR
STARTCHAR .notdef
ENCODING -1
SWIDTH 600 0
DWIDTH 19 0
BBX 17 24 1 0
BITMAP
FFFF80
FFFF80
FFFF80
E00380
E00380
E00380
E00380
E00380
E00380
E00380
E00380
E00380
E00380
E00380
E00380
E00380
E00380
E00380
E00380
E00380
E00380
FFFF80
FFFF80
FFFF80
ENDCHAR
STARTCHAR a.alt01
ENCODING -1
SWIDTH 600 0
DWIDTH 19 0
BBX 16 16 1 0
BITMAP
0F9F
3FDF
3FFF
7FFF
7C3F
781F
F81F
F81F
F81F
F81F
7C1F
7C1F
7FFF
3FFF
3FDF
0F9F
ENDCHAR
STARTCHAR g.alt01
ENCODING -1
SWIDTH 600 0
DWIDTH 19 0
BBX 16 22 1 -6
BITMAP
0F9F
1FDF
3FFF
7FFF
7C3F
7C1F
F81F
F81F
F81F
F81F
7C1F
7C3F
7FFF
3FFF
1FDF
0F9F
101F
183F
3FFE
7FFC
1FF8
0FE0
ENDCHAR
STARTCHAR g.alt02
ENCODING -1
SWIDTH 600 0
DWIDTH 19 0
BBX 16 22 2 -6
BITMAP
0FFF
3FFF
7FFF
7C7F
F83C
F83C
F83C
7C7C
7FFC
3FF8
1FE0
7000
7FF8
FFFE
7FFF
1FFF
F00F
F00F
FFFF
FFFE
FFFC
3FF0
ENDCHAR
STARTCHAR zero.alt01
ENCODING -1
SWIDTH 600 0
DWIDTH 19 0
BBX 17 22 1 0
BITMAP
07F000
1FFC00
3FFE00
3FFE00
7C1F00
780F00
781F00
F83F80
F87F80
F8FF80
F9EF80
FBCF80
FF8F80
FF0F80
FE0F80
7C0F00
7C0F00
7C1F00
3FFE00
3FFE00
1FFC00
07F000
ENDCHAR
STARTCHAR zero.alt02
ENCODING -1
SWIDTH 600 0
DWIDTH 19 0
BBX 17 22 1 0
BITMAP
07F000
1FFC00
3FFE00
3FFE00
7E3F00
7C1F00
780F00
F80F80
F80F80
F80F80
F80F80
F80F80
F80F80
F80F80
F80F80
780F00
7C1F00
7E3F00
3FFE00
3FFE00
1FFC00
07F000
ENDCHAR
STARTCHAR aacute.alt01
ENCODING -1
SWIDTH 600 0
DWIDTH 19 0
BBX 16 25 1 0
BITMAP
0060
00F8
00F0
01E0
01E0
03C0
0080
0000
0000
0F9F
3FDF
3FFF
7FFF
7C3F
781F
F81F
F81F
F81F
F81F
7C1F
7C1F
7FFF
3FFF
3FDF
0F9F
ENDCHAR
STARTCHAR abreve.alt01
ENCODING -1
SWIDTH 600 0
DWIDTH 19 0
BBX 16 24 1 0
BITMAP
1818
3C3C
1E3C
1FF8
0FF0
03E0
0000
0000
0F9F
3FDF
3FFF
7FFF
7C3F
781F
F81F
F81F
F81F
F81F
7C1F
7C1F
7FFF
3FFF
3FDF
0F9F
ENDCHAR
STARTCHAR acircumflex.alt01
ENCODING -1
SWIDTH 600 0
DWIDTH 19 0
BBX 16 25 1 0
BITMAP
03E0
07E0
0FF0
0FF8
1E7C
3C3C
0818
0000
0000
0F9F
3FDF
3FFF
7FFF
7C3F
781F
F81F
F81F
F81F
F81F
7C1F
7C1F
7FFF
3FFF
3FDF
0F9F
ENDCHAR
STARTCHAR adieresis.alt01
ENCODING -1
SWIDTH 600 0
DWIDTH 19 0
BBX 16 23 1 0
BITMAP
1E38
3E7C
3E7C
3E7C
1E38
0000
0000
0F9F
3FDF
3FFF
7FFF
7C3F
781F
F81F
F81F
F81F
F81F
7C1F
7C1F
7FFF
3FFF
3FDF
0F9F
ENDCHAR
STARTCHAR uni1EA1.alt01
ENCODING -1
SWIDTH 600 0
DWIDTH 19 0
BBX 16 23 1 -7
BITMAP
0F9F
3FDF
3FFF
7FFF
7C3F
781F
F81F
F81F
F81F
F81F
7C1F
7C1F
7FFF
3FFF
3FDF
0F9F
0000
0000
03C0
03C0
07E0
03C0
03C0
ENDCHAR
STARTCHAR agrave.alt01
ENCODING -1
SWIDTH 600 0
DWIDTH 19 0
BBX 16 25 1 0
BITMAP
0300
0F00
0F80
0780
03C0
01C0
0180
0000
0000
0F9F
3FDF
3FFF
7FFF
7C3F
781F
F81F
F81F
F81F
F81F
7C1F
7C1F
7FFF
3FFF
3FDF
0F9F
ENDCHAR
STARTCHAR uni1EA3.alt01
ENCODING -1
SWIDTH 600 0
DWIDTH 19 0
BBX 16 24 1 0
BITMAP
0FE0
0FF0
0FF0
00F0
01E0
01C0
00C0
0000
0F9F
3FDF
3FFF
7FFF
7C3F
781F
F81F
F81F
F81F
F81F
7C1F
7C1F
7FFF
3FFF
3FDF
0F9F
ENDCHAR
STARTCHAR amacron.alt01
ENCODING -1
SWIDTH 600 0
DWIDTH 19 0
BBX 16 22 1 0
BITMAP
1FF8
1FF8
1FF8
0000
0000
0000
0F9F
3FDF
3FFF
7FFF
7C3F
781F
F81F
F81F
F81F
F81F
7C1F
7C1F
7FFF
3FFF
3FDF
0F9F
ENDCHAR
STARTCHAR aogonek.alt01
ENCODING -1
SWIDTH 600 0
DWIDTH 19 0
BBX 17 22 1 -6
BITMAP
0F9F00
3FDF00
3FFF00
7FFF00
7C3F00
781F00
F81F00
F81F00
F81F00
F81F00
7C1F00
7C1F00
7FFF00
3FFF00
3FDF00
0F8700
001E00
003C00
007800
007900
003F80
001F00
ENDCHAR
STARTCHAR aring.alt01
ENCODING -1
SWIDTH 600 0
DWIDTH 19 0
BBX 16 26 1 0
BITMAP
03C0
07F0
0E70
0E38
0E38
0E38
0E70
07F0
03C0
0000
0F9F
3FDF
3FFF
7FFF
7C3F
781F
F81F
F81F
F81F
F81F
7C1F
7C1F
7FFF
3FFF
3FDF
0F9F
ENDCHAR
STARTCHAR aringacute.alt01
ENCODING -1
SWIDTH 600 0
DWIDTH 19 0
BBX 16 30 1 0
BITMAP
0060
00F0
01F8
03C0
0080
0000
03E0
0FF0
0E38
0E38
0E38
0FF0
03E0
0000
0F9F
3FDF
3FFF
7FFF
7C3F
781F
F81F
F81F
F81F
F81F
7C1F
7C1F
7FFF
3FFF
3FDF
0F9F
ENDCHAR
STARTCHAR atilde.alt01
ENCODING -1
SWIDTH 600 0
DWIDTH 19 0
BBX 16 22 1 0
BITMAP
0F08
1FFC
3FFC
08F8
0000
0000
0F9F
3FDF
3FFF
7FFF
7C3F
781F
F81F
F81F
F81F
F81F
7C1F
7C1F
7FFF
3FFF
3FDF
0F9F
ENDCHAR
STARTCHAR uni1EAF.alt01
ENCODING -1
SWIDTH 600 0
DWIDTH 19 0
BBX 16 29 1 0
BITMAP
0060
00F8
00F0
01E0
01E0
03C0
1088
381C
3C3C
1FF8
0FF0
07E0
0000
0F9F
3FDF
3FFF
7FFF
7C3F
781F
F81F
F81F
F81F
F81F
7C1F
7C1F
7FFF
3FFF
3FDF
0F9F
ENDCHAR
STARTCHAR uni1EB7.alt01
ENCODING -1
SWIDTH 600 0
DWIDTH 19 0
BBX 16 31 1 -7
BITMAP
1818
3C3C
1E3C
1FF8
0FF0
03E0
0000
0000
0F9F
3FDF
3FFF
7FFF
7C3F
781F
F81F
F81F
F81F
F81F
7C1F
7C1F
7FFF
3FFF
3FDF
0F9F
0000
0000
03C0
03C0
07E0
03C0
03C0
ENDCHAR
STARTCHAR uni1EB1.alt01
ENCODING -1
SWIDTH 600 0
DWIDTH 19 0
BBX 16 29 1 0
BITMAP
0600
1F00
0F00
0780
0380
03C0
1108
381C
3C3C
1FF8
0FF0
07E0
0000
0F9F
3FDF
3FFF
7FFF
7C3F
781F
F81F
F81F
F81F
F81F
7C1F
7C1F
7FFF
3FFF
3FDF
0F9F
ENDCHAR
STARTCHAR uni1EB3.alt01
ENCODING -1
SWIDTH 600 0
DWIDTH 19 0
BBX 16 28 1 0
BITMAP
0FC0
0FE0
0FE0
00E0
01C0
11C8
3B9C
3C3C
1FF8
0FF0
07E0
0000
0F9F
3FDF
3FFF
7FFF
7C3F
781F
F81F
F81F
F81F
F81F
7C1F
7C1F
7FFF
3FFF
3FDF
0F9F
ENDCHAR
STARTCHAR uni1EB5.alt01
ENCODING -1
SWIDTH 600 0
DWIDTH 19 0
BBX 16 28 1 0
BITMAP
0F08
3FF8
1FFC
10F0
0000
1008
381C
3C3C
1FF8
0FF0
07E0
0000
0F9F
3FDF
3FFF
7FFF
7C3F
781F
F81F
F81F
F81F
F81F
7C1F
7C1F
7FFF
3FFF
3FDF
0F9F
ENDCHAR
STARTCHAR uni1EA5.alt01
ENCODING -1
SWIDTH 600 0
DWIDTH 19 0
BBX 18 29 1 0
BITMAP
000200
000780
0007C0
000F00
000E00
03DE00
07EC00
0FF000
1FF800
3E7C00
1C3800
081000
000000
0F9F00
3FDF00
3FFF00
7FFF00
7C3F00
781F00
F81F00
F81F00
F81F00
F81F00
7C1F00
7C1F00
7FFF00
3FFF00
3FDF00
0F9F00
ENDCHAR
STARTCHAR uni1EAD.alt01
ENCODING -1
SWIDTH 600 0
DWIDTH 19 0
BBX 16 32 1 -7
BITMAP
03E0
07E0
0FF0
0FF8
1E7C
3C3C
0818
0000
0000
0F9F
3FDF
3FFF
7FFF
7C3F
781F
F81F
F81F
F81F
F81F
7C1F
7C1F
7FFF
3FFF
3FDF
0F9F
0000
0000
03C0
03C0
07E0
03C0
03C0
ENDCHAR
STARTCHAR uni1EA7.alt01
ENCODING -1
SWIDTH 600 0
DWIDTH 19 0
BBX 18 29 -1 0
BITMAP
100000
780000
F80000
3C0000
1C0000
0EF000
0DF800
03FC00
07FE00
0F9F00
070E00
020400
000000
03E7C0
0FF7C0
0FFFC0
1FFFC0
1F0FC0
1E07C0
3E07C0
3E07C0
3E07C0
3E07C0
1F07C0
1F07C0
1FFFC0
0FFFC0
0FF7C0
03E7C0
ENDCHAR
STARTCHAR uni1EA9.alt01
ENCODING -1
SWIDTH 600 0
DWIDTH 19 0
BBX 16 29 1 0
BITMAP
007E
007F
007F
0007
000F
03CE
07E4
0FF0
1FF8
3E7C
1C38
0810
0000
0F9F
3FDF
3FFF
7FFF
7C3F
781F
F81F
F81F
F81F
F81F
7C1F
7C1F
7FFF
3FFF
3FDF
0F9F
ENDCHAR
STARTCHAR uni1EAB.alt01
ENCODING -1
SWIDTH 600 0
DWIDTH 19 0
BBX 16 28 1 0
BITMAP
0F08
1FFC
3FF8
10F0
0000
03C0
07E0
0FF0
1E78
3C3C
0810
0000
0F9F
3FDF
3FFF
7FFF
7C3F
781F
F81F
F81F
F81F
F81F
7C1F
7C1F
7FFF
3FFF
3FDF
0F9F
ENDCHAR
STARTCHAR gbreve.alt01
ENCODING -1
SWIDTH 600 0
DWIDTH 19 0
BBX 16 30 1 -6
BITMAP
1818
3C3C
1E3C
1FF8
0FF0
03E0
0000
0000
0F9F
1FDF
3FFF
7FFF
7C3F
7C1F
F81F
F81F
F81F
F81F
7C1F
7C3F
7FFF
3FFF
1FDF
0F9F
101F
183F
3FFE
7FFC
1FF8
0FE0
ENDCHAR
STARTCHAR gcircumflex.alt01
ENCODING -1
SWIDTH 600 0
DWIDTH 19 0
BBX 16 31 1 -6
BITMAP
03E0
07E0
0FF0
0FF8
1E7C
3C3C
0818
0000
0000
0F9F
1FDF
3FFF
7FFF
7C3F
7C1F
F81F
F81F
F81F
F81F
7C1F
7C3F
7FFF
3FFF
1FDF
0F9F
101F
183F
3FFE
7FFC
1FF8
0FE0
ENDCHAR
STARTCHAR gcommaaccent.alt01
ENCODING -1
SWIDTH 600 0
DWIDTH 19 0
BBX 16 31 1 -6
BITMAP
00E0
00E0
00E0
01E0
01E0
03E0
03E0
0000
0000
0F9F
1FDF
3FFF
7FFF
7C3F
7C1F
F81F
F81F
F81F
F81F
7C1F
7C3F
7FFF
3FFF
1FDF
0F9F
101F
183F
3FFE
7FFC
1FF8
0FE0
ENDCHAR
STARTCHAR gdotaccent.alt01
ENCODING -1
SWIDTH 600 0
DWIDTH 19 0
BBX 16 29 1 -6
BITMAP
03C0
03E0
07E0
03E0
03C0
0000
0000
0F9F
1FDF
3FFF
7FFF
7C3F
7C1F
F81F
F81F
F81F
F81F
7C1F
7C3F
7FFF
3FFF
1FDF
0F9F
101F
183F
3FFE
7FFC
1FF8
0FE0
ENDCHAR
STARTCHAR germandbls.alt01
ENCODING -1
SWIDTH 600 0
DWIDTH 19 0
BBX 19 23 0 0
BITMAP
03F000
0FFC00
1FFE00
3FFF00
3E0F00
3E0F80
3C0780
FC1F80
FC7F80
FC7F80
FCF800
3CF800
3CFC00
3C7F80
3C7FC0
3C1FC0
3C07E0
3C01E0
3C63E0
3CFFC0
3DFFC0
3CFF80
3C3F00
ENDCHAR
STARTCHAR uni0430.alt01
ENCODING -1
SWIDTH 600 0
DWIDTH 19 0
BBX 16 16 1 0
BITMAP
0F9F
3FDF
3FFF
7FFF
7C3F
781F
F81F
F81F
F81F
F81F
7C1F
7C1F
7FFF
3FFF
3FDF
0F9F
ENDCHAR
STARTCHAR uni04D3.alt01
ENCODING -1
SWIDTH 600 0
DWIDTH 19 0
BBX 16 23 1 0
BITMAP
1E38
3E7C
3E7C
3E7C
1E38
0000
0000
0F9F
3FDF
3FFF
7FFF
7C3F
781F
F81F
F81F
F81F
F81F
7C1F
7C1F
7FFF
3FFF
3FDF
0F9F
ENDCHAR
STARTCHAR uni04D1.alt01
ENCODING -1
SWIDTH 600 0
DWIDTH 19 0
BBX 16 25 1 0
BITMAP
0420
1C38
3C3C
1E3C
1FF8
0FF0
03E0
0000
0000
0F9F
3FDF
3FFF
7FFF
7C3F
781F
F81F
F81F
F81F
F81F
7C1F
7C1F
7FFF
3FFF
3FDF
0F9F
ENDCHAR
STARTCHAR zero.numr
ENCODING -1
SWIDTH 600 0
DWIDTH 19 0
BBX 9 11 5 11
BITMAP
3E00
7F00
6300
E380
EB80
EB80
E380
E380
6300
7F00
3E00
ENDCHAR
STARTCHAR one.numr
ENCODING -1
SWIDTH 600 0
DWIDTH 19 0
BBX 9 11 5 11
BITMAP
3C00
FC00
6C00
0C00
0C00
0C00
0C00
0C00
0C00
7F80
7F80
ENDCHAR
STARTCHAR two.numr
ENCODING -1
SWIDTH 600 0
DWIDTH 19 0
BBX 9 11 5 11
BITMAP
3E00
7F00
E700
0300
0700
0F00
1E00
3800
7000
FF80
FF80
ENDCHAR
STARTCHAR three.numr
ENCODING -1
SWIDTH 600 0
DWIDTH 19 0
BBX 9 11 5 11
BITMAP
3E00
7F00
E380
0700
1F00
1F00
0780
0380
6380
FF00
3E00
ENDCHAR
STARTCHAR four.numr
ENCODING -1
SWIDTH 600 0
DWIDTH 19 0
BBX 9 11 5 11
BITMAP
0E00
1E00
1E00
3600
7600
6600
C600
FF80
FF80
0600
0600
ENDCHAR
STARTCHAR five.numr
ENCODING -1
SWIDTH 600 0
DWIDTH 19 0
BBX 9 11 5 11
BITMAP
7F00
7F00
6000
6000
6E00
7F80
6380
0380
6380
FF00
3E00
ENDCHAR
STARTCHAR six.numr
ENCODING -1
SWIDTH 600 0
DWIDTH 19 0
BBX 9 11 5 11
BITMAP
0F00
3C00
3800
7000
6F00
FF00
E380
E380
6380
7F00
3E00
ENDCHAR
STARTCHAR seven.numr
ENCODING -1
SWIDTH 600 0
DWIDTH 19 0
BBX 8 11 6 11
BITMAP
FF
FF
C7
CE
0E
1C
1C
1C
38
38
78
ENDCHAR
STARTCHAR eight.numr
ENCODING -1
SWIDTH 600 0
DWIDTH 19 0
BBX 9 11 5 11
BITMAP
3E00
7F00
6300
6300
3E00
7F00
E380
E380
E380
7F00
3E00
ENDCHAR
STARTCHAR nine.numr
ENCODING -1
SWIDTH 600 0
DWIDTH 19 0
BBX 9 11 5 11
BITMAP
3E00
7F00
E300
E380
E380
7F80
7B00
0700
0E00
1E00
7800
ENDCHAR
STARTCHAR zero.dnom
ENCODING -1
SWIDTH 600 0
DWIDTH 19 0
BBX 9 11 5 0
BITMAP
3E00
7F00
6300
E380
EB80
EB80
E380
E380
6300
7F00
3E00
ENDCHAR
STARTCHAR one.dnom
ENCODING -1
SWIDTH 600 0
DWIDTH 19 0
BBX 9 11 5 0
BITMAP
3C00
FC00
6C00
0C00
0C00
0C00
0C00
0C00
0C00
7F80
7F80
ENDCHAR
STARTCHAR two.dnom
ENCODING -1
SWIDTH 600 0
DWIDTH 19 0
BBX 9 11 5 0
BITMAP
3E00
7F00
E700
0300
0700
0F00
1E00
3800
7000
FF80
FF80
ENDCHAR
STARTCHAR three.dnom
ENCODING -1
SWIDTH 600 0
DWIDTH 19 0
BBX 9 11 5 0
BITMAP
3E00
7F00
E380
0700
1F00
1F00
0780
0380
6380
FF00
3E00
ENDCHAR
STARTCHAR four.dnom
ENCODING -1
SWIDTH 600 0
DWIDTH 19 0
BBX 9 11 5 0
BITMAP
0E00
1E00
1E00
3600
7600
6600
C600
FF80
FF80
0600
0600
ENDCHAR
STARTCHAR five.dnom
ENCODING -1
SWIDTH 600 0
DWIDTH 19 0
BBX 9 11 5 0
BITMAP
7F00
7F00
6000
6000
6E00
7F80
6380
0380
6380
FF00
3E00
ENDCHAR
STARTCHAR six.dnom
ENCODING -1
SWIDTH 600 0
DWIDTH 19 0
BBX 9 11 5 0
BITMAP
0F00
3C00
3800
7000
6F00
FF00
E380
E380
6380
7F00
3E00
ENDCHAR
STARTCHAR seven.dnom
ENCODING -1
SWIDTH 600 0
DWIDTH 19 0
BBX 8 11 6 0
BITMAP
FF
FF
C7
CE
0E
1C
1C
1C
38
38
78
ENDCHAR
STARTCHAR eight.dnom
ENCODING -1
SWIDTH 600 0
DWIDTH 19 0
BBX 9 11 5 0
BITMAP
3E00
7F00
6300
6300
3E00
7F00
E380
E380
E380
7F00
3E00
ENDCHAR
STARTCHAR nine.dnom
ENCODING -1
SWIDTH 600 0
DWIDTH 19 0
BBX 9 11 5 0
BITMAP
3E00
7F00
E300
E380
E380
7F80
7B00
0700
0E00
1E00
7800
ENDCHAR
STARTCHAR tilde.alt01
ENCODING -1
SWIDTH 600 0
DWIDTH 19 0
BBX 10 4 4 18
BITMAP
7880
FFC0
7FC0
0780
ENDCHAR
STARTCHAR breve.cyrl
ENCODING -1
SWIDTH 600 0
DWIDTH 19 0
BBX 11 7 4 18
BITMAP
2100
E0E0
F1E0
F1E0
7FC0
7FC0
1F00
ENDCHAR
STARTCHAR ringacute
ENCODING -1
SWIDTH 600 0
DWIDTH 19 0
BBX 9 13 5 17
BITMAP
0200
0700
1F80
1E00
0800
0000
3E00
7F00
E380
E380
E380
7F00
3E00
ENDCHAR
STARTCHAR breveacute
ENCODING -1
SWIDTH 0 0
DWIDTH 0 0
BBX 12 12 -6 17
BITMAP
0180
03E0
03C0
0780
0780
0F00
4220
E070
F0F0
7FE0
3FC0
1F80
ENDCHAR
STARTCHAR brevegrave
ENCODING -1
SWIDTH 0 0
DWIDTH 0 0
BBX 12 12 -6 17
BITMAP
1800
7C00
3C00
1E00
1E00
0F00
4420
E070
F0F0
7FE0
3FC0
1F80
ENDCHAR
STARTCHAR brevehook
ENCODING -1
SWIDTH 0 0
DWIDTH 0 0
BBX 12 11 -6 17
BITMAP
3F00
3F80
3F80
0380
0700
4720
EE70
F0F0
7FE0
3FC0
1F80
ENDCHAR
STARTCHAR brevetilde
ENCODING -1
SWIDTH 0 0
DWIDTH 0 0
BBX 12 11 -6 17
BITMAP
3C20
FFE0
7FF0
43C0
0000
4020
E070
F0F0
7FE0
3FC0
1F80
ENDCHAR
STARTCHAR dieresiscaron
ENCODING -1
SWIDTH 0 0
DWIDTH 0 0
BBX 12 13 -6 18
BITMAP
4040
6060
F9F0
7FE0
3FC0
1F80
0F00
0000
70E0
F9F0
F9F0
F9F0
70E0
ENDCHAR
STARTCHAR circumflexacute
ENCODING -1
SWIDTH 0 0
DWIDTH 0 0
BBX 16 12 -6 17
BITMAP
0008
001E
001F
003C
0038
0F78
1FB0
3FC0
7FE0
F9F0
70E0
2040
ENDCHAR
STARTCHAR circumflexbreve
ENCODING -1
SWIDTH 0 0
DWIDTH 0 0
BBX 12 13 -6 17
BITMAP
4040
6060
F0F0
7FE0
3FC0
1F80
0000
0F00
1F80
3FC0
7FE0
F0F0
2040
ENDCHAR
STARTCHAR circumflexgrave
ENCODING -1
SWIDTH 0 0
DWIDTH 0 0
BBX 16 12 -10 17
BITMAP
1000
7800
F800
3C00
1C00
1EF0
0DF8
03FC
07FE
0F9F
070E
0204
ENDCHAR
STARTCHAR circumflexhook
ENCODING -1
SWIDTH 0 0
DWIDTH 0 0
BBX 14 12 -6 17
BITMAP
01F8
01FC
01FC
001C
003C
0F38
1F90
3FC0
7FE0
F9F0
70E0
2040
ENDCHAR
STARTCHAR dieresismacron
ENCODING -1
SWIDTH 0 0
DWIDTH 0 0
BBX 12 9 -6 18
BITMAP
7FE0
7FE0
7FE0
0000
70E0
F9F0
F9F0
F9F0
70E0
ENDCHAR
STARTCHAR circumflextilde
ENCODING -1
SWIDTH 0 0
DWIDTH 0 0
BBX 12 11 -6 17
BITMAP
3C20
7FE0
FFF0
43C0
0000
0F00
1F80
3FC0
79E0
F0F0
2040
ENDCHAR
STARTCHAR tilde.case
ENCODING -1
SWIDTH 600 0
DWIDTH 19 0
BBX 11 4 4 24
BITMAP
7C40
FFE0
FFE0
47C0
ENDCHAR
STARTCHAR tilde.alt01.case
ENCODING -1
SWIDTH 600 0
DWIDTH 19 0
BBX 10 4 4 24
BITMAP
7880
FFC0
7FC0
0780
ENDCHAR
STARTCHAR macron.case
ENCODING -1
SWIDTH 600 0
DWIDTH 19 0
BBX 9 3 5 24
BITMAP
FF80
FF80
FF80
ENDCHAR
STARTCHAR dotaccent.case
ENCODING -1
SWIDTH 600 0
DWIDTH 19 0
BBX 5 5 7 23
BITMAP
F0
F8
F8
F8
78
ENDCHAR
STARTCHAR dieresis.case
ENCODING -1
SWIDTH 600 0
DWIDTH 19 0
BBX 11 5 4 24
BITMAP
F1E0
FBE0
FBE0
FBE0
F1E0
ENDCHAR
STARTCHAR hungarumlaut.case
ENCODING -1
SWIDTH 600 0
DWIDTH 19 0
BBX 13 7 4 23
BITMAP
1860
3E78
3CF8
78F0
79E0
F1C0
2080
ENDCHAR
STARTCHAR acute.case
ENCODING -1
SWIDTH 600 0
DWIDTH 19 0
BBX 7 7 7 23
BITMAP
18
3E
3C
7C
78
F0
20
ENDCHAR
STARTCHAR grave.case
ENCODING -1
SWIDTH 600 0
DWIDTH 19 0
BBX 7 7 5 23
BITMAP
30
F8
78
7C
3C
1E
08
ENDCHAR
STARTCHAR circumflex.case
ENCODING -1
SWIDTH 600 0
DWIDTH 19 0
BBX 13 7 3 23
BITMAP
0F80
1FC0
1FC0
3DE0
78F0
F078
2020
ENDCHAR
STARTCHAR caron.case
ENCODING -1
SWIDTH 600 0
DWIDTH 19 0
BBX 13 7 3 23
BITMAP
2020
7070
F8F8
3DE0
1FC0
1FC0
0F80
ENDCHAR
STARTCHAR breve.case
ENCODING -1
SWIDTH 600 0
DWIDTH 19 0
BBX 13 6 3 23
BITMAP
7070
F078
78F0
3FE0
1FC0
0F80
ENDCHAR
STARTCHAR breve.cyrl_case
ENCODING -1
SWIDTH 600 0
DWIDTH 19 0
BBX 11 7 4 23
BITMAP
2100
E0E0
F1E0
F1E0
7FC0
7FC0
1F00
ENDCHAR
STARTCHAR ring.case
ENCODING -1
SWIDTH 600 0
DWIDTH 19 0
BBX 9 9 5 23
BITMAP
3E00
7F00
E380
E380
E380
E380
E380
7F00
3E00
ENDCHAR
STARTCHAR ringacute.case
ENCODING -1
SWIDTH 600 0
DWIDTH 19 0
BBX 9 13 5 22
BITMAP
0200
0700
1F80
1E00
0800
0000
3E00
7F00
E380
E380
E380
7F00
3E00
ENDCHAR
STARTCHAR uni0309.case
ENCODING -1
SWIDTH 0 0
DWIDTH 0 0
BBX 8 7 -4 23
BITMAP
FE
FF
FF
0F
1E
1C
0C
ENDCHAR
STARTCHAR breveacute.case
ENCODING -1
SWIDTH 0 0
DWIDTH 0 0
BBX 12 12 -6 23
BITMAP
0180
03E0
03C0
0780
0780
0F00
4220
E070
F0F0
7FE0
3FC0
1F80
ENDCHAR
STARTCHAR brevegrave.case
ENCODING -1
SWIDTH 0 0
DWIDTH 0 0
BBX 12 12 -6 23
BITMAP
1800
7C00
3C00
1E00
0E00
0F00
4420
E070
F0F0
7FE0
3FC0
1F80
ENDCHAR
STARTCHAR brevehook.case
ENCODING -1
SWIDTH 0 0
DWIDTH 0 0
BBX 12 11 -6 23
BITMAP
3F00
3F80
3F80
0380
0700
4720
EE70
F0F0
7FE0
3FC0
1F80
ENDCHAR
STARTCHAR brevetilde.case
ENCODING -1
SWIDTH 0 0
DWIDTH 0 0
BBX 12 11 -6 23
BITMAP
3C20
7FE0
FFF0
43C0
0000
4020
E070
F0F0
7FE0
3FC0
1F80
ENDCHAR
STARTCHAR dieresisacute.case
ENCODING -1
SWIDTH 0 0
DWIDTH 0 0
BBX 12 12 -6 23
BITMAP
0100
03C0
03C0
0780
0700
0F00
0600
70E0
F9F0
F9F0
F9F0
70E0
ENDCHAR
STARTCHAR dieresiscaron.case
ENCODING -1
SWIDTH 0 0
DWIDTH 0 0
BBX 12 13 -6 23
BITMAP
4040
6060
F9F0
7FE0
3FC0
1F80
0F00
0000
70E0
F9F0
F9F0
F9F0
70E0
ENDCHAR
STARTCHAR dieresisgrave.case
ENCODING -1
SWIDTH 0 0
DWIDTH 0 0
BBX 12 12 -6 23
BITMAP
0800
3C00
3C00
1E00
0E00
0F00
0600
70E0
F9F0
F9F0
F9F0
70E0
ENDCHAR
STARTCHAR circumflexacute.case
ENCODING -1
SWIDTH 0 0
DWIDTH 0 0
BBX 16 12 -6 23
BITMAP
0008
001E
001F
003C
0038
0F78
1FB0
3FC0
7FE0
F9F0
70E0
2040
ENDCHAR
STARTCHAR circumflexbreve.case
ENCODING -1
SWIDTH 0 0
DWIDTH 0 0
BBX 12 13 -6 23
BITMAP
4040
6060
F0F0
7FE0
3FC0
1F80
0000
0F00
1F80
3FC0
7FE0
F0F0
2040
ENDCHAR
STARTCHAR circumflexgrave.case
ENCODING -1
SWIDTH 0 0
DWIDTH 0 0
BBX 16 12 -10 23
BITMAP
1000
7800
F800
3C00
1C00
0EF0
0DF8
03FC
07FE
0F9F
070E
0204
ENDCHAR
STARTCHAR circumflexhook.case
ENCODING -1
SWIDTH 0 0
DWIDTH 0 0
BBX 14 12 -6 23
BITMAP
01F8
01FC
01FC
001C
003C
0F38
1F90
3FC0
7FE0
F9F0
70E0
2040
ENDCHAR
STARTCHAR dieresismacron.case
ENCODING -1
SWIDTH 0 0
DWIDTH 0 0
BBX 12 9 -6 23
BITMAP
7FE0
7FE0
7FE0
0000
70E0
F9F0
F9F0
F9F0
70E0
ENDCHAR
STARTCHAR circumflextilde.case
ENCODING -1
SWIDTH 0 0
DWIDTH 0 0
BBX 12 11 -6 23
BITMAP
3C20
7FE0
FFF0
43C0
0000
0F00
1F80
3FC0
7BE0
F0F0
2040
ENDCHAR
ENDFONT
